<svg width="1920" height="1200" version="1.1" baseProfile="full" xmlns="http://www.w3.org/2000/svg">
<g transform="translate(0,1200) scale(1,-1)">
<polyline stroke="black" fill="none" points="896.1695843197016,1072.0644366012089 1054.38579265433,1050.2516609741508" />
<polyline stroke="black" fill="none" points="896.1695843197016,1072.0644366012089 855.8764107094654,1064.484527650464" />
<polyline stroke="black" fill="none" points="1053.4091669954407,985.27246597577 1054.38579265433,1050.2516609741508" />
<polyline stroke="black" fill="none" points="1054.38579265433,1050.2516609741508 916.6229990033634,1020.6052054394313" />
<polyline stroke="black" fill="none" points="917.0578578941945,957.9457577428632 916.6229990033634,1020.6052054394313" />
<polyline stroke="black" fill="none" points="1230.8324739151315,1011.6430245231409 1429.8022424398218,983.3093342816712" />
<polyline stroke="black" fill="none" points="1230.8324739151315,1011.6430245231409 1145.483428869266,989.4938083282486" />
<polyline stroke="black" fill="none" points="1429.8022424398218,983.3093342816712 1304.3606285077915,944.195404756884" />
<polyline stroke="black" fill="none" points="1303.515233267935,929.0387961038116 1304.3606285077915,944.195404756884" />
<polyline stroke="black" fill="none" points="1429.7942671090264,983.203863512872 1655.5962110903843,951.0420288443788" />
<polyline stroke="black" fill="none" points="1429.7942671090264,983.203863512872 1304.3543031177196,944.0820004492002" />
<polyline stroke="black" fill="none" points="1628.5449381078452,710.679046543979 1655.5962110903843,951.0420288443788" />
<polyline stroke="black" fill="none" points="1628.5449381078452,710.679046543979 1516.3408182653857,647.4730528414179" />
<polyline stroke="black" fill="none" points="1655.5962110903843,951.0420288443788 1540.8341272210755,906.2176553764541" />
<polyline stroke="black" fill="none" points="1303.5089388967513,928.9259479160614 1304.3543031177196,944.0820004492002" />
<polyline stroke="black" fill="none" points="1304.3543031177196,944.0820004492002 1540.8341272210755,906.2176553764541" />
<polyline stroke="black" fill="none" points="1516.3408182653857,647.4730528414179 1540.8341272210755,906.2176553764541" />
<polyline stroke="black" fill="none" points="754.3670587401758,1078.6618879368307 916.3805468363521,1055.5404895007166" />
<polyline stroke="black" fill="none" points="754.3670587401758,1078.6618879368307 592.0438663379114,1050.5757244268193" />
<polyline stroke="black" fill="none" points="917.0675607809721,956.5476547274493 916.3805468363521,1055.5404895007166" />
<polyline stroke="black" fill="none" points="916.3805468363521,1055.5404895007166 756.1552482719325,1023.8046422302891" />
<polyline stroke="black" fill="none" points="596.7247542074501,970.6829643365397 592.0438663379114,1050.5757244268193" />
<polyline stroke="black" fill="none" points="592.0438663379114,1050.5757244268193 756.1552482719325,1023.8046422302891" />
<polyline stroke="black" fill="none" points="759.7678180441513,912.9799091093255 756.1552482719325,1023.8046422302891" />
<polyline stroke="black" fill="none" points="1098.5653327834577,996.3320836769599 1305.4944480289591,964.5230076997066" />
<polyline stroke="black" fill="none" points="1098.5653327834577,996.3320836769599 955.0247820030631,960.5484589967266" />
<polyline stroke="black" fill="none" points="1303.5153635667355,929.0411321566223 1305.4944480289591,964.5230076997066" />
<polyline stroke="black" fill="none" points="1305.4944480289591,964.5230076997066 1228.5902647279995,941.4725449468162" />
<polyline stroke="black" fill="none" points="1401.6978901272205,795.4367634475152 1527.9547280030752,770.1611087669177" />
<polyline stroke="black" fill="none" points="1504.5136851623258,522.5325289041951 1527.9547280030752,770.1611087669177" />
<polyline stroke="black" fill="none" points="1504.5136851623258,522.5325289041951 1373.654870749879,438.17635773235577" />
<polyline stroke="black" fill="none" points="1527.9547280030752,770.1611087669177 1393.1401718373677,705.1605164731884" />
<polyline stroke="black" fill="none" points="1225.1632124991172,484.27066360010116 1373.654870749879,438.17635773235577" />
<polyline stroke="black" fill="none" points="1373.654870749879,438.17635773235577 1393.1401718373677,705.1605164731884" />
<polyline stroke="black" fill="none" points="596.8054774144916,969.3051915734151 758.9632044559505,937.6634700646309" />
<polyline stroke="black" fill="none" points="596.8054774144916,969.3051915734151 505.88175481890676,950.4130243740749" />
<polyline stroke="black" fill="none" points="759.7378436002123,913.8994511415749 758.9632044559505,937.6634700646309" />
<polyline stroke="black" fill="none" points="758.9632044559505,937.6634700646309 574.4959554431816,893.8565045196942" />
<polyline stroke="black" fill="none" points="576.4257016597237,863.2036147781805 574.4959554431816,893.8565045196942" />
<polyline stroke="black" fill="none" points="759.7684829725977,912.9595107440994 576.1690579857752,867.28024940141" />
<polyline stroke="black" fill="none" points="576.4892334531633,862.1944494057143 576.1690579857752,867.28024940141" />
<polyline stroke="black" fill="none" points="576.1690579857752,867.28024940141 700.0476752194531,837.8416286628465" />
<polyline stroke="black" fill="none" points="943.3063160496979,962.3594831298751 1096.476444787475,935.7185381616678" />
<polyline stroke="black" fill="none" points="943.3063160496979,962.3594831298751 759.6366706901313,917.003186561448" />
<polyline stroke="black" fill="none" points="761.6250689478102,856.00403079702 759.6366706901313,917.003186561448" />
<polyline stroke="black" fill="none" points="759.6366706901313,917.003186561448 979.7116548966904,872.3731502350138" />
<polyline stroke="black" fill="none" points="979.3772658984867,768.8582842343724 979.7116548966904,872.3731502350138" />
<polyline stroke="black" fill="none" points="1158.254076231252,952.8245396574655 1408.2076625126774,911.6126161467198" />
<polyline stroke="black" fill="none" points="1158.254076231252,952.8245396574655 979.8091476876252,902.5534290236308" />
<polyline stroke="black" fill="none" points="1387.37572604178,626.1770968979935 1408.2076625126774,911.6126161467198" />
<polyline stroke="black" fill="none" points="1387.37572604178,626.1770968979935 1226.3160334241466,540.712826328402" />
<polyline stroke="black" fill="none" points="1408.2076625126774,911.6126161467198 1240.6995133324892,852.3647111638912" />
<polyline stroke="black" fill="none" points="979.3770963516206,768.8057985927301 979.8091476876252,902.5534290236308" />
<polyline stroke="black" fill="none" points="979.8091476876252,902.5534290236308 1240.6995133324892,852.3647111638912" />
<polyline stroke="black" fill="none" points="1226.3160334241466,540.712826328402 1240.6995133324892,852.3647111638912" />
<polyline stroke="black" fill="none" points="408.167084534001,970.2752664348793 571.854550657717,935.8136743057985" />
<polyline stroke="black" fill="none" points="408.167084534001,970.2752664348793 189.74704065396782,928.3311758078812" />
<polyline stroke="black" fill="none" points="576.5485539573506,861.2521778994021 571.854550657717,935.8136743057985" />
<polyline stroke="black" fill="none" points="571.854550657717,935.8136743057985 351.7443970038662,887.4689369463492" />
<polyline stroke="black" fill="none" points="221.37095277018807,675.5058612608758 189.74704065396782,928.3311758078812" />
<polyline stroke="black" fill="none" points="221.37095277018807,675.5058612608758 378.5516120965533,617.8735319362975" />
<polyline stroke="black" fill="none" points="189.74704065396782,928.3311758078812 351.7443970038662,887.4689369463492" />
<polyline stroke="black" fill="none" points="378.5516120965533,617.8735319362975 351.7443970038662,887.4689369463492" />
<polyline stroke="black" fill="none" points="576.5529597120667,861.1821950631178 688.9081277529386,834.211520835491" />
<polyline stroke="black" fill="none" points="576.5529597120667,861.1821950631178 359.7771328830114,806.6851376897193" />
<polyline stroke="black" fill="none" points="610.1730039669694,490.56953855116274 566.0926949202675,472.37378570190185" />
<polyline stroke="black" fill="none" points="385.896183157774,544.0104841326103 359.7771328830114,806.6851376897193" />
<polyline stroke="black" fill="none" points="385.896183157774,544.0104841326103 566.0926949202675,472.37378570190185" />
<polyline stroke="black" fill="none" points="359.7771328830114,806.6851376897193 546.701390031024,753.0735211439603" />
<polyline stroke="black" fill="none" points="566.0926949202675,472.37378570190185 546.701390031024,753.0735211439603" />
<polyline stroke="black" fill="none" points="761.6903230619085,854.0021954731423 979.4931990490999,804.7470383955887" />
<polyline stroke="black" fill="none" points="761.6903230619085,854.0021954731423 543.8796679547697,793.9194902429731" />
<polyline stroke="black" fill="none" points="979.3798071148101,769.6449538574825 979.4931990490999,804.7470383955887" />
<polyline stroke="black" fill="none" points="979.4931990490999,804.7470383955887 765.6042708788127,733.9319270471923" />
<polyline stroke="black" fill="none" points="563.5303633786543,509.4649350574357 543.8796679547697,793.9194902429731" />
<polyline stroke="black" fill="none" points="563.5303633786543,509.4649350574357 775.568586044577,428.2513067111769" />
<polyline stroke="black" fill="none" points="543.8796679547697,793.9194902429731 765.6042708788127,733.9319270471923" />
<polyline stroke="black" fill="none" points="775.568586044577,428.2513067111769 765.6042708788127,733.9319270471923" />
<polyline stroke="black" fill="none" points="979.3711469287148,766.9640701920265 1233.9477109706745,706.0710502761802" />
<polyline stroke="black" fill="none" points="979.3711469287148,766.9640701920265 766.9520424668726,692.5856179174974" />
<polyline stroke="black" fill="none" points="1220.2309484965037,408.86516504138046 1233.9477109706745,706.0710502761802" />
<polyline stroke="black" fill="none" points="1220.2309484965037,408.86516504138046 1026.7363740318401,291.87630647227655" />
<polyline stroke="black" fill="none" points="1233.9477109706745,706.0710502761802 1030.668578164644,617.2126434210796" />
<polyline stroke="black" fill="none" points="776.7821621479231,391.0217841675334 766.9520424668726,692.5856179174974" />
<polyline stroke="black" fill="none" points="776.7821621479231,391.0217841675334 1026.7363740318401,291.87630647227655" />
<polyline stroke="black" fill="none" points="766.9520424668726,692.5856179174974 1030.668578164644,617.2126434210796" />
<polyline stroke="black" fill="none" points="1026.7363740318401,291.87630647227655 1030.668578164644,617.2126434210796" />
</g></svg>
