<svg width="1920" height="1200" style="background-color:white" version="1.1" baseProfile="full" xmlns="http://www.w3.org/2000/svg">
<g transform="translate(0,1200) scale(1,-1)">
<polyline stroke="black" fill="none" points="1230.9598247591853,1014.5778051562502 1430.0371166508057,986.4154579320245" />
<polyline stroke="black" fill="none" points="1230.9598247591853,1014.5778051562502 1176.271993749443,1000.4774179166886" />
<polyline stroke="black" fill="none" points="1429.3251287574753,976.9996841653933 1430.0371166508057,986.4154579320245" />
<polyline stroke="black" fill="none" points="1430.0371166508057,986.4154579320245 1405.2888926581825,978.7478109962807" />
<polyline stroke="black" fill="none" points="1542.7679820731967,910.6153463170612 1649.145800256928,893.7271665828841" />
<polyline stroke="black" fill="none" points="1622.5843265862068,657.7162760821261 1649.145800256928,893.7271665828841" />
<polyline stroke="black" fill="none" points="1622.5843265862068,657.7162760821261 1510.9663001472409,590.6972388094104" />
<polyline stroke="black" fill="none" points="1649.145800256928,893.7271665828841 1534.9784482064836,844.3589109354994" />
<polyline stroke="black" fill="none" points="1321.5335210058333,638.7211447331565 1510.9663001472409,590.6972388094104" />
<polyline stroke="black" fill="none" points="1510.9663001472409,590.6972388094104 1534.9784482064836,844.3589109354994" />
<polyline stroke="black" fill="none" points="1098.7938617301845,1006.6002873886983 1146.0790319283326,999.4930947053012" />
<polyline stroke="black" fill="none" points="1098.7938617301845,1006.6002873886983 943.2892550277886,968.6877450657478" />
<polyline stroke="black" fill="none" points="943.3518834942007,945.4576394949636 943.2892550277886,968.6877450657478" />
<polyline stroke="black" fill="none" points="943.2892550277886,968.6877450657478 991.9503962645621,960.3316465156987" />
<polyline stroke="black" fill="none" points="1307.0781146418537,992.9156623503951 1545.7684524117158,958.3433200851526" />
<polyline stroke="black" fill="none" points="1307.0781146418537,992.9156623503951 1280.714037419266,985.4591418829007" />
<polyline stroke="black" fill="none" points="1520.8661436696075,695.2780891137863 1545.7684524117158,958.3433200851526" />
<polyline stroke="black" fill="none" points="1520.8661436696075,695.2780891137863 1387.2318417819688,624.2056201479437" />
<polyline stroke="black" fill="none" points="1545.7684524117158,958.3433200851526 1408.0494120419041,909.4442961079355" />
<polyline stroke="black" fill="none" points="1324.450392327827,640.0809700641685 1387.2318417819688,624.2056201479437" />
<polyline stroke="black" fill="none" points="1387.2318417819688,624.2056201479437 1408.0494120419041,909.4442961079355" />
<polyline stroke="black" fill="none" points="533.7434928179186,923.8017677595155 472.7854437994657,910.3214896914101" />
<polyline stroke="black" fill="none" points="755.0782517477775,1056.8442400477645 943.128055701668,1028.4796827937907" />
<polyline stroke="black" fill="none" points="755.0782517477775,1056.8442400477645 566.4084924709375,1022.3211226397787" />
<polyline stroke="black" fill="none" points="943.3528694397327,945.0919332897088 943.128055701668,1028.4796827937907" />
<polyline stroke="black" fill="none" points="943.128055701668,1028.4796827937907 757.2998953694762,988.6896916268406" />
<polyline stroke="black" fill="none" points="571.7268021721836,937.8428842651861 566.4084924709375,1022.3211226397787" />
<polyline stroke="black" fill="none" points="566.4084924709375,1022.3211226397787 757.2998953694762,988.6896916268406" />
<polyline stroke="black" fill="none" points="757.5797965623905,980.1030131788555 757.2998953694762,988.6896916268406" />
<polyline stroke="black" fill="none" points="1159.858786621345,1002.866792875416 1412.132859802473,965.3949770967736" />
<polyline stroke="black" fill="none" points="1159.858786621345,1002.866792875416 979.9855178741279,957.1513264437467" />
<polyline stroke="black" fill="none" points="1390.9430775310443,675.0563178049607 1412.132859802473,965.3949770967736" />
<polyline stroke="black" fill="none" points="1390.9430775310443,675.0563178049607 1228.7689172584778,593.8603174170137" />
<polyline stroke="black" fill="none" points="1412.132859802473,965.3949770967736 1243.4258643151816,911.437510506863" />
<polyline stroke="black" fill="none" points="979.7193593849798,874.758184064349 979.9855178741279,957.1513264437467" />
<polyline stroke="black" fill="none" points="979.9855178741279,957.1513264437467 1243.4258643151816,911.437510506863" />
<polyline stroke="black" fill="none" points="1228.7689172584778,593.8603174170137 1243.4258643151816,911.437510506863" />
<polyline stroke="black" fill="none" points="412.3204267099219,923.6118485405303 535.5895423597763,895.2380097314051" />
<polyline stroke="black" fill="none" points="412.3204267099219,923.6118485405303 196.03666904793147,878.0471606220437" />
<polyline stroke="black" fill="none" points="536.4342486607577,876.8913992486126 357.08950682158013,833.7141160465504" />
<polyline stroke="black" fill="none" points="227.1566622781702,629.2505522764158 196.03666904793147,878.0471606220437" />
<polyline stroke="black" fill="none" points="227.1566622781702,629.2505522764158 383.4378540472957,568.7334637444743" />
<polyline stroke="black" fill="none" points="196.03666904793147,878.0471606220437 357.08950682158013,833.7141160465504" />
<polyline stroke="black" fill="none" points="383.4378540472957,568.7334637444743 357.08950682158013,833.7141160465504" />
<polyline stroke="black" fill="none" points="541.7398882388422,800.4000725633078 365.1932302544594,752.2164075593857" />
<polyline stroke="black" fill="none" points="772.9737994928701,507.8529601685615 771.3693711544065,557.0728655636975" />
<polyline stroke="black" fill="none" points="772.9737994928701,507.8529601685615 569.7572524540935,419.3273127526894" />
<polyline stroke="black" fill="none" points="390.85311357245007,494.15951460329757 365.1932302544594,752.2164075593857" />
<polyline stroke="black" fill="none" points="390.85311357245007,494.15951460329757 569.7572524540935,419.3273127526894" />
<polyline stroke="black" fill="none" points="365.1932302544594,752.2164075593857 550.7337798912874,694.7024742525745" />
<polyline stroke="black" fill="none" points="569.7572524540935,419.3273127526894 550.7337798912874,694.7024742525745" />
<polyline stroke="black" fill="none" points="757.6626847919846,977.5602066718966 979.9219834185917,937.4833329194526" />
<polyline stroke="black" fill="none" points="757.6626847919846,977.5602066718966 534.5718228731918,928.6556344507762" />
<polyline stroke="black" fill="none" points="979.7253955828758,876.6267748963087 979.9219834185917,937.4833329194526" />
<polyline stroke="black" fill="none" points="979.9219834185917,937.4833329194526 760.8548887565734,879.6312600356774" />
<polyline stroke="black" fill="none" points="555.0897767031488,631.6470398885788 534.5718228731918,928.6556344507762" />
<polyline stroke="black" fill="none" points="555.0897767031488,631.6470398885788 771.2989590449727,559.23293546643" />
<polyline stroke="black" fill="none" points="534.5718228731918,928.6556344507762 760.8548887565734,879.6312600356774" />
<polyline stroke="black" fill="none" points="771.2989590449727,559.23293546643 760.8548887565734,879.6312600356774" />
<polyline stroke="black" fill="none" points="979.7172524818444,874.1059622600799 1239.2807174290112,821.6231645886894" />
<polyline stroke="black" fill="none" points="979.7172524818444,874.1059622600799 763.1253879760424,809.9779423381069" />
<polyline stroke="black" fill="none" points="1225.0385839526186,513.0338822814296 1239.2807174290112,821.6231645886894" />
<polyline stroke="black" fill="none" points="1225.0385839526186,513.0338822814296 1028.1093241447732,405.46922928845163" />
<polyline stroke="black" fill="none" points="1239.2807174290112,821.6231645886894 1032.209955651986,744.7406375564296" />
<polyline stroke="black" fill="none" points="773.3387722834177,496.65649486568924 763.1253879760424,809.9779423381069" />
<polyline stroke="black" fill="none" points="773.3387722834177,496.65649486568924 1028.1093241447732,405.46922928845163" />
<polyline stroke="black" fill="none" points="763.1253879760424,809.9779423381069 1032.209955651986,744.7406375564296" />
<polyline stroke="black" fill="none" points="1028.1093241447732,405.46922928845163 1032.209955651986,744.7406375564296" />
</g></svg>
