<svg width="1920" height="1200" style="background-color:white" version="1.1" baseProfile="full" xmlns="http://www.w3.org/2000/svg">
<g transform="translate(0,1200) scale(1,-1)">
<polyline stroke="black" fill="none" points="917.7955077861812,995.8307123338077 942.0507285265827,991.8602846475853" />
<polyline stroke="black" fill="none" points="1538.6529102227857,867.2573844622668 1644.1310977917906,849.1692324461937" />
<polyline stroke="black" fill="none" points="1617.9474335254108,616.5153519917736 1644.1310977917906,849.1692324461937" />
<polyline stroke="black" fill="none" points="1617.9474335254108,616.5153519917736 1506.7909243102672,546.5890309994095" />
<polyline stroke="black" fill="none" points="1644.1310977917906,849.1692324461937 1530.4327016209952,796.3381475664104" />
<polyline stroke="black" fill="none" points="1385.8201052019126,578.8520128487385 1506.7909243102672,546.5890309994095" />
<polyline stroke="black" fill="none" points="1506.7909243102672,546.5890309994095 1530.4327016209952,796.3381475664104" />
<polyline stroke="black" fill="none" points="754.0890820863397,1087.1895262712253 916.318002358265,1064.5526139761305" />
<polyline stroke="black" fill="none" points="754.0890820863397,1087.1895262712253 605.3932746393785,1062.0396051494415" />
<polyline stroke="black" fill="none" points="916.8988208860362,980.8616306952742 916.318002358265,1064.5526139761305" />
<polyline stroke="black" fill="none" points="916.318002358265,1064.5526139761305 755.8399988046058,1033.4757185792282" />
<polyline stroke="black" fill="none" points="758.3744918882331,955.7237200573014 755.8399988046058,1033.4757185792282" />
<polyline stroke="black" fill="none" points="916.8993329043235,980.7878532383372 942.6034419978299,976.4425510922197" />
<polyline stroke="black" fill="none" points="916.8993329043235,980.7878532383372 785.6941561896282,949.9904381847564" />
<polyline stroke="black" fill="none" points="1100.0612182840434,1063.544825298721 1309.4830088366612,1036.0316375112382" />
<polyline stroke="black" fill="none" points="1100.0612182840434,1063.544825298721 943.1237831967359,1030.0644372403115" />
<polyline stroke="black" fill="none" points="1308.9020589852053,1025.6161192655084 1309.4830088366612,1036.0316375112382" />
<polyline stroke="black" fill="none" points="1309.4830088366612,1036.0316375112382 1159.6872947963182,997.5188887390759" />
<polyline stroke="black" fill="none" points="943.376405037511,936.3621263443652 943.1237831967359,1030.0644372403115" />
<polyline stroke="black" fill="none" points="943.1237831967359,1030.0644372403115 1159.6872947963182,997.5188887390759" />
<polyline stroke="black" fill="none" points="1151.763496174436,750.4183903985152 1159.6872947963182,997.5188887390759" />
<polyline stroke="black" fill="none" points="1308.7708684702284,1023.2640794139033 1548.8378519619246,990.768116917491" />
<polyline stroke="black" fill="none" points="1308.7708684702284,1023.2640794139033 1159.2435220897198,983.6800139539992" />
<polyline stroke="black" fill="none" points="1523.679489912961,724.9979671770875 1548.8378519619246,990.768116917491" />
<polyline stroke="black" fill="none" points="1523.679489912961,724.9979671770875 1389.5751021451172,656.3125603464516" />
<polyline stroke="black" fill="none" points="1548.8378519619246,990.768116917491 1410.6272833056055,944.7658334858415" />
<polyline stroke="black" fill="none" points="1151.7714297130185,750.6657946336387 1159.2435220897198,983.6800139539992" />
<polyline stroke="black" fill="none" points="1159.2435220897198,983.6800139539992 1410.6272833056055,944.7658334858415" />
<polyline stroke="black" fill="none" points="1389.5751021451172,656.3125603464516 1410.6272833056055,944.7658334858415" />
<polyline stroke="black" fill="none" points="591.2418639300772,1064.2641928855255 755.6818341745609,1038.3278194434674" />
<polyline stroke="black" fill="none" points="591.2418639300772,1064.2641928855255 402.60845665221314,1032.7272785206721" />
<polyline stroke="black" fill="none" points="758.3767885910561,955.6532628776592 755.6818341745609,1038.3278194434674" />
<polyline stroke="black" fill="none" points="755.6818341745609,1038.3278194434674 567.6667164040459,1002.3349715277384" />
<polyline stroke="black" fill="none" points="409.1908387775794,958.7732350428662 402.60845665221314,1032.7272785206721" />
<polyline stroke="black" fill="none" points="402.60845665221314,1032.7272785206721 567.6667164040459,1002.3349715277384" />
<polyline stroke="black" fill="none" points="568.5019256656893,989.0681610068593 567.6667164040459,1002.3349715277384" />
<polyline stroke="black" fill="none" points="758.3936520459583,955.1359336613718 910.1818562689681,926.5020561316682" />
<polyline stroke="black" fill="none" points="758.3936520459583,955.1359336613718 753.2600207973303,953.9578844277419" />
<polyline stroke="black" fill="none" points="943.3811574016152,934.5993828799818 1156.4152288119221,895.4808166060136" />
<polyline stroke="black" fill="none" points="943.3811574016152,934.5993828799818 772.5119105523931,890.049157963238" />
<polyline stroke="black" fill="none" points="1151.7896118997141,751.2327988708539 1156.4152288119221,895.4808166060136" />
<polyline stroke="black" fill="none" points="1156.4152288119221,895.4808166060136 979.6073915714902,840.0969563564287" />
<polyline stroke="black" fill="none" points="979.2393946527305,726.1782809852779 979.6073915714902,840.0969563564287" />
<polyline stroke="black" fill="none" points="1151.7423292112828,749.7583070984354 1392.3324567622851,694.0933469768115" />
<polyline stroke="black" fill="none" points="1151.7423292112828,749.7583070984354 1046.6886756947451,708.4651390588883" />
<polyline stroke="black" fill="none" points="1372.9181312093979,428.08168249263247 1392.3324567622851,694.0933469768115" />
<polyline stroke="black" fill="none" points="1372.9181312093979,428.08168249263247 1216.4179202376356,326.2469494649146" />
<polyline stroke="black" fill="none" points="1392.3324567622851,694.0933469768115 1229.7253807406917,614.5843458793729" />
<polyline stroke="black" fill="none" points="1175.7089793510436,340.97099026481465 1216.4179202376356,326.2469494649146" />
<polyline stroke="black" fill="none" points="1216.4179202376356,326.2469494649146 1229.7253807406917,614.5843458793729" />
<polyline stroke="black" fill="none" points="347.37997277102374,926.3876883665548 193.9131977319878,895.0237858229984" />
<polyline stroke="black" fill="none" points="500.31813632729546,625.5549441689792 381.788448816405,585.321239450015" />
<polyline stroke="black" fill="none" points="225.20288754143485,644.8704955191656 193.9131977319878,895.0237858229984" />
<polyline stroke="black" fill="none" points="225.20288754143485,644.8704955191656 381.788448816405,585.321239450015" />
<polyline stroke="black" fill="none" points="193.9131977319878,895.0237858229984 355.28566861113165,851.8549968220077" />
<polyline stroke="black" fill="none" points="381.788448816405,585.321239450015 355.28566861113165,851.8549968220077" />
<polyline stroke="black" fill="none" points="568.5191609374621,988.7943887974428 758.4699140775483,952.7964025710057" />
<polyline stroke="black" fill="none" points="568.5191609374621,988.7943887974428 346.0310845624474,944.9267062919408" />
<polyline stroke="black" fill="none" points="760.3908605876594,893.8665001066041 758.4699140775483,952.7964025710057" />
<polyline stroke="black" fill="none" points="758.4699140775483,952.7964025710057 536.4403322278667,901.6079404186314" />
<polyline stroke="black" fill="none" points="373.3329601506541,670.3565884603217 346.0310845624474,944.9267062919408" />
<polyline stroke="black" fill="none" points="373.3329601506541,670.3565884603217 556.7827584004931,607.1402046205508" />
<polyline stroke="black" fill="none" points="346.0310845624474,944.9267062919408 536.4403322278667,901.6079404186314" />
<polyline stroke="black" fill="none" points="556.7827584004931,607.1402046205508 536.4403322278667,901.6079404186314" />
<polyline stroke="black" fill="none" points="760.4462142029797,892.1683876736392 979.6254963414992,845.7015451781979" />
<polyline stroke="black" fill="none" points="760.4462142029797,892.1683876736392 541.0085436316406,835.4805838633761" />
<polyline stroke="black" fill="none" points="979.238292742997,725.8371691693311 979.6254963414992,845.7015451781979" />
<polyline stroke="black" fill="none" points="979.6254963414992,845.7015451781979 764.1413048011618,778.8121190832089" />
<polyline stroke="black" fill="none" points="560.9248547982161,547.1810956458219 541.0085436316406,835.4805838633761" />
<polyline stroke="black" fill="none" points="560.9248547982161,547.1810956458219 774.2522610993036,468.6329103779754" />
<polyline stroke="black" fill="none" points="541.0085436316406,835.4805838633761 764.1413048011618,778.8121190832089" />
<polyline stroke="black" fill="none" points="774.2522610993036,468.6329103779754 764.1413048011618,778.8121190832089" />
<polyline stroke="black" fill="none" points="979.235333514509,724.9210979407584 1231.8595855276335,660.826906700105" />
<polyline stroke="black" fill="none" points="979.235333514509,724.9210979407584 768.4496337358498,646.6432103867081" />
<polyline stroke="black" fill="none" points="1218.3459764872428,368.0228178978638 1231.8595855276335,660.826906700105" />
<polyline stroke="black" fill="none" points="1218.3459764872428,368.0228178978638 1026.1996087894393,247.46629319058877" />
<polyline stroke="black" fill="none" points="1231.8595855276335,660.826906700105 1030.0669805407408,567.4386335610727" />
<polyline stroke="black" fill="none" points="778.1316530923891,349.62272942270494 768.4496337358498,646.6432103867081" />
<polyline stroke="black" fill="none" points="778.1316530923891,349.62272942270494 1026.1996087894393,247.46629319058877" />
<polyline stroke="black" fill="none" points="768.4496337358498,646.6432103867081 1030.0669805407408,567.4386335610727" />
<polyline stroke="black" fill="none" points="1026.1996087894393,247.46629319058877 1030.0669805407408,567.4386335610727" />
</g></svg>
