<svg width="1024" height="1024" style="background-color:white" version="1.1" baseProfile="full" xmlns="http://www.w3.org/2000/svg">
<g transform="translate(0,1024) scale(1,-1)">
<polyline stroke="black" fill="none" points="939.462487188982,971.7089104115464 975.7764856330306,1023.8440220696298" />
<polyline stroke="black" fill="none" points="939.462487188982,971.7089104115464 929.0997540329693,955.8236806821609" />
<polyline stroke="black" fill="none" points="929.0997540329693,955.8236806821609 976.6341994968595,1023.9528684962529" />
<polyline stroke="black" fill="none" points="929.0997540329693,955.8236806821609 932.3009946524076,954.7252270111899" />
<polyline stroke="black" fill="none" points="913.0459119836089,927.053240649074 981.2281985402047,1023.7966845582154" />
<polyline stroke="black" fill="none" points="913.0459119836089,927.053240649074 908.349627788815,919.8157822151577" />
<polyline stroke="black" fill="none" points="877.1381272687688,893.6063126906388 883.1518559354427,891.3186644638729" />
<polyline stroke="black" fill="none" points="883.1518559354427,891.3186644638729 975.2895990594809,1023.7111390936208" />
<polyline stroke="black" fill="none" points="899.379314793346,907.094742684882 981.6906780486743,1023.7653631585356" />
<polyline stroke="black" fill="none" points="899.379314793346,907.094742684882 886.5746999842806,887.3885646104384" />
<polyline stroke="black" fill="none" points="886.5746999842806,887.3885646104384 983.1057050834257,1023.8134058807964" />
<polyline stroke="black" fill="none" points="886.5746999842806,887.3885646104384 886.8026584814886,887.3015705012206" />
<polyline stroke="black" fill="none" points="869.5402268478001,962.9460261782207 905.6054941464686,1023.966077783048" />
<polyline stroke="black" fill="none" points="909.4882684354534,950.4417557267927 958.7935185304127,1023.9279969794361" />
<polyline stroke="black" fill="none" points="872.182749458676,963.4268408656386 908.1915792035188,1023.9524925764458" />
<polyline stroke="black" fill="none" points="909.4368122859116,950.4363537254303 958.4981654574199,1023.5678829651137" />
<polyline stroke="black" fill="none" points="876.3043686082308,872.1266158686685 966.9148747123077,999.9983327650847" />
<polyline stroke="black" fill="none" points="876.3043686082308,872.1266158686685 865.5546793100252,855.5936744528169" />
<polyline stroke="black" fill="none" points="966.9148747123077,999.9983327650847 978.4001452951412,996.350704931551" />
<polyline stroke="black" fill="none" points="966.9148747123077,999.9983327650847 955.6673360660352,982.4154889899582" />
<polyline stroke="black" fill="none" points="865.5546793100252,855.5936744528169 955.6673360660352,982.4154889899582" />
<polyline stroke="black" fill="none" points="865.5546793100252,855.5936744528169 873.3190197357587,852.4859039029293" />
<polyline stroke="black" fill="none" points="955.6673360660352,982.4154889899582 965.8310545106729,979.0909948942037" />
<polyline stroke="black" fill="none" points="803.4283897235703,983.6782315462542 822.1255893699014,1023.8191890376506" />
<polyline stroke="black" fill="none" points="792.8364764226781,979.4862613220848 812.7939404291517,1023.650961968588" />
<polyline stroke="black" fill="none" points="839.7880466547225,945.5365827785781 883.3237077435754,1023.5695994783332" />
<polyline stroke="black" fill="none" points="803.7466914016738,983.6073784977095 822.413088567981,1023.6339504920259" />
<polyline stroke="black" fill="none" points="825.3877474744891,927.4283403366246 878.4304754235294,1023.8054942757794" />
<polyline stroke="black" fill="none" points="870.3631392378088,964.0342011100738 870.3731226732441,964.0510839510023" />
<polyline stroke="black" fill="none" points="870.3731226732441,964.0510839510023 914.1466913183885,948.7871074413877" />
<polyline stroke="black" fill="none" points="870.3731226732441,964.0510839510023 863.834978084436,955.1942359035947" />
<polyline stroke="black" fill="none" points="914.1352594099819,948.7703133409946 914.1466913183885,948.7871074413877" />
<polyline stroke="black" fill="none" points="914.1466913183885,948.7871074413877 899.1966750467054,926.3380428678172" />
<polyline stroke="black" fill="none" points="839.3887089451962,841.7815229746582 841.1069155708162,841.0740139768748" />
<polyline stroke="black" fill="none" points="897.1198827454798,927.0887032289492 899.1966750467054,926.3380428678172" />
<polyline stroke="black" fill="none" points="841.1069155708162,841.0740139768748 899.1966750467054,926.3380428678172" />
<polyline stroke="black" fill="none" points="869.1981651815968,846.5812966721735 991.9076535264331,1014.4213020718851" />
<polyline stroke="black" fill="none" points="869.1981651815968,846.5812966721735 864.5285453022279,839.2758772417812" />
<polyline stroke="black" fill="none" points="991.9076535264331,1014.4213020718851 1005.1318786005002,1010.3520925563762" />
<polyline stroke="black" fill="none" points="991.9076535264331,1014.4213020718851 982.7747218270317,999.620135851751" />
<polyline stroke="black" fill="none" points="930.9575574830061,928.9996558337402 982.7747218270317,999.620135851751" />
<polyline stroke="black" fill="none" points="982.7747218270317,999.620135851751 994.4935989910603,995.9225448526595" />
<polyline stroke="black" fill="none" points="699.883236294711,1015.4267733779072 702.3226037188743,1023.9622727584967" />
<polyline stroke="black" fill="none" points="782.5710548417201,980.9442144056948 801.2367140437692,1023.9179485089321" />
<polyline stroke="black" fill="none" points="794.5107885965772,1021.7340750353254 795.294929191165,1023.5763118128555" />
<polyline stroke="black" fill="none" points="815.0197856097625,920.2865047287221 818.7300591389603,918.8805268287696" />
<polyline stroke="black" fill="none" points="853.1311895984916,958.8316519416213 905.7716499782373,940.1973636371915" />
<polyline stroke="black" fill="none" points="853.1311895984916,958.8316519416213 842.3324431665585,944.5478189318703" />
<polyline stroke="black" fill="none" points="905.7716499782373,940.1973636371915 887.2321696723304,912.5016343592999" />
<polyline stroke="black" fill="none" points="886.371877158743,912.8198291721924 887.2321696723304,912.5016343592999" />
<polyline stroke="black" fill="none" points="829.6784873013825,827.4531017631314 887.2321696723304,912.5016343592999" />
<polyline stroke="black" fill="none" points="941.1530317418853,925.318970552783 1015.5290596473681,1023.6383774164824" />
<polyline stroke="black" fill="none" points="943.7150197147788,924.5188630318751 1019.4812362846785,1023.9411967040558" />
<polyline stroke="black" fill="none" points="699.0740246150023,1015.308880609002 713.1343561614823,1010.3455040577076" />
<polyline stroke="black" fill="none" points="692.0649481947153,990.6884480037013 705.6983613010959,985.687565593749" />
<polyline stroke="black" fill="none" points="809.6372592552433,910.3792614830214 813.043899846568,909.0687782398296" />
<polyline stroke="black" fill="none" points="792.4698871241058,880.9632916100707 796.8504088107829,879.2016894065214" />
<polyline stroke="black" fill="none" points="980.8182089240066,911.488789605278 1023.8528167674672,962.2945708663565" />
<polyline stroke="black" fill="none" points="987.8675549912325,909.0905450878088 1023.7692053499203,950.6664934958637" />
<polyline stroke="black" fill="none" points="433.1357155765761,1016.2251361152996 430.09252426180313,1014.0870752726447" />
<polyline stroke="black" fill="none" points="417.3291535833014,1019.3143858791245 430.09252426180313,1014.0870752726447" />
<polyline stroke="black" fill="none" points="430.2216354328763,1013.0529001028177 430.09252426180313,1014.0870752726447" />
<polyline stroke="black" fill="none" points="622.8531522040835,1016.9711899000449 621.5453915505384,1015.8353532490893" />
<polyline stroke="black" fill="none" points="589.6021774193589,973.9848972937702 595.8703451462317,1023.7389673420294" />
<polyline stroke="black" fill="none" points="599.3445371559948,1023.9873180790476 621.5453915505384,1015.8353532490893" />
<polyline stroke="black" fill="none" points="613.0311660347804,964.7071404060151 621.5453915505384,1015.8353532490893" />
<polyline stroke="black" fill="none" points="687.3069555535587,974.4736082604393 701.3209104234713,1023.7532916955959" />
<polyline stroke="black" fill="none" points="674.91317497102,978.9095806465648 686.7107290776758,1023.8726596165601" />
<polyline stroke="black" fill="none" points="786.4497613352366,1023.9374868332039 797.2371498354123,1020.3364775673184" />
<polyline stroke="black" fill="none" points="725.5317268688486,1023.8911358707658 714.0129679180465,1012.5251965850783" />
<polyline stroke="black" fill="none" points="780.5722764715108,981.6403931887132 797.2371498354123,1020.3364775673184" />
<polyline stroke="black" fill="none" points="797.2371498354123,1020.3364775673184 771.792936253702,992.2010305842628" />
<polyline stroke="black" fill="none" points="688.9250496210373,931.241382386292 714.0129679180465,1012.5251965850783" />
<polyline stroke="black" fill="none" points="714.0129679180465,1012.5251965850783 771.792936253702,992.2010305842628" />
<polyline stroke="black" fill="none" points="769.1325685069603,985.7067154278733 771.792936253702,992.2010305842628" />
<polyline stroke="black" fill="none" points="798.0245402281507,985.406636066589 841.5716273915657,970.1401107087154" />
<polyline stroke="black" fill="none" points="798.0245402281507,985.406636066589 791.4198835327709,977.7241516716862" />
<polyline stroke="black" fill="none" points="796.5111947651745,886.447295958604 841.5716273915657,970.1401107087154" />
<polyline stroke="black" fill="none" points="841.5716273915657,970.1401107087154 823.9614822762716,947.6543468968325" />
<polyline stroke="black" fill="none" points="817.8648282924887,949.8751015896553 823.9614822762716,947.6543468968325" />
<polyline stroke="black" fill="none" points="789.0081748508189,881.5886091418915 823.9614822762716,947.6543468968325" />
<polyline stroke="black" fill="none" points="828.8700496030976,827.7119705577729 845.3506021605566,820.7812996119472" />
<polyline stroke="black" fill="none" points="845.3506021605566,820.7812996119472 831.3633682500433,799.1782730673053" />
<polyline stroke="black" fill="none" points="775.3229289681535,748.2449788044848 789.6230406175748,741.5184259254304" />
<polyline stroke="black" fill="none" points="814.5974646001508,806.4481752844624 831.3633682500433,799.1782730673053" />
<polyline stroke="black" fill="none" points="789.6230406175748,741.5184259254304 831.3633682500433,799.1782730673053" />
<polyline stroke="black" fill="none" points="987.1396813428779,871.118494374537 1019.7168020728475,906.2987731207472" />
<polyline stroke="black" fill="none" points="1019.7168020728475,906.2987731207472 1023.8936708258169,904.8319354078923" />
<polyline stroke="black" fill="none" points="1019.7168020728475,906.2987731207472 1001.0333591666288,868.8958729563901" />
<polyline stroke="black" fill="none" points="914.6949484866427,778.6996961738594 1001.0333591666288,868.8958729563901" />
<polyline stroke="black" fill="none" points="1001.0333591666288,868.8958729563901 1004.5006876247875,867.6111071346522" />
<polyline stroke="black" fill="none" points="418.495746025023,1011.0797537543688 416.6523240975358,1023.9548922726552" />
<polyline stroke="black" fill="none" points="390.79698762439034,972.6011913497186 380.6867050155867,1023.8678612431365" />
<polyline stroke="black" fill="none" points="433.81422637797056,1011.7182249428489 432.3939718409039,1023.5928897156214" />
<polyline stroke="black" fill="none" points="581.3913920579267,977.1321967378069 613.8515500635444,964.2763189463927" />
<polyline stroke="black" fill="none" points="612.465645493608,955.3208250206235 588.1732410469037,932.6417375012934" />
<polyline stroke="black" fill="none" points="576.8216087271766,937.3928660555232 588.1732410469037,932.6417375012934" />
<polyline stroke="black" fill="none" points="587.9656955768162,931.0760710291676 588.1732410469037,932.6417375012934" />
<polyline stroke="black" fill="none" points="626.7916708458797,1023.9962407128397 623.6077717958963,1021.2453515700344" />
<polyline stroke="black" fill="none" points="665.3172653420017,982.6753400067357 675.3613991039949,1023.598366601691" />
<polyline stroke="black" fill="none" points="673.6587863350634,1023.9258783870637 657.3616103468465,1008.9611276085966" />
<polyline stroke="black" fill="none" points="608.1603646711739,929.4484974832476 623.6077717958963,1021.2453515700344" />
<polyline stroke="black" fill="none" points="623.6077717958963,1021.2453515700344 657.3616103468465,1008.9611276085966" />
<polyline stroke="black" fill="none" points="649.0901863388931,971.9205373226357 657.3616103468465,1008.9611276085966" />
<polyline stroke="black" fill="none" points="694.6824211438346,937.2161096292666 686.1202739165144,928.1050777925243" />
<polyline stroke="black" fill="none" points="685.227361505278,925.3292128985702 690.2260599157245,923.3221808903013" />
<polyline stroke="black" fill="none" points="793.8846448611561,978.1506053682647 826.358053926255,966.6292725592656" />
<polyline stroke="black" fill="none" points="793.8846448611561,978.1506053682647 793.0606366628297,977.1889212570052" />
<polyline stroke="black" fill="none" points="783.526273875111,883.7041509593632 826.358053926255,966.6292725592656" />
<polyline stroke="black" fill="none" points="826.358053926255,966.6292725592656 812.9573687283344,949.8767763524884" />
<polyline stroke="black" fill="none" points="787.8590437927629,959.0405537035545 812.9573687283344,949.8767763524884" />
<polyline stroke="black" fill="none" points="780.2149032262297,885.4851769902942 812.9573687283344,949.8767763524884" />
<polyline stroke="black" fill="none" points="839.281225942166,945.6028191338926 894.7243670419123,925.4999439534706" />
<polyline stroke="black" fill="none" points="839.281225942166,945.6028191338926 817.6348878748506,917.1598246860001" />
<polyline stroke="black" fill="none" points="894.7243670419123,925.4999439534706 874.6050905566094,895.5131653912975" />
<polyline stroke="black" fill="none" points="796.5101541285968,878.5128684323424 817.6348878748506,917.1598246860001" />
<polyline stroke="black" fill="none" points="817.6348878748506,917.1598246860001 874.6050905566094,895.5131653912975" />
<polyline stroke="black" fill="none" points="774.8355174548919,747.6214044802551 874.6050905566094,895.5131653912975" />
<polyline stroke="black" fill="none" points="920.7213073203724,796.518395919987 913.1302542496893,782.6617262840393" />
<polyline stroke="black" fill="none" points="909.4217358635216,784.2376229824354 913.1302542496893,782.6617262840393" />
<polyline stroke="black" fill="none" points="883.9256517965447,751.74473846505 913.1302542496893,782.6617262840393" />
<polyline stroke="black" fill="none" points="1008.9100226098157,875.5606237569941 1023.7785147042734,891.0466750743835" />
<polyline stroke="black" fill="none" points="926.3094497220264,773.7589937009855 1023.8832886727066,871.6714908005476" />
<polyline stroke="black" fill="none" points="1001.0938964896561,756.7518305850857 1023.7027645130623,775.1840092277497" />
<polyline stroke="black" fill="none" points="243.00440989267491,1004.7985817058247 235.14510136671095,1023.6959127895366" />
<polyline stroke="black" fill="none" points="243.95911513171654,1005.240087881908 244.47326114336255,1005.000634671389" />
<polyline stroke="black" fill="none" points="243.95911513171654,1005.240087881908 239.65439339131808,1002.6614364276325" />
<polyline stroke="black" fill="none" points="246.9249207380903,999.3411255257258 236.7451191462817,1023.9704030651574" />
<polyline stroke="black" fill="none" points="448.3938466018182,1005.9175902759664 446.6286460029712,1023.89830511692" />
<polyline stroke="black" fill="none" points="570.0468354718538,877.2814459983606 586.3852096163831,1023.4397258175513" />
<polyline stroke="black" fill="none" points="519.7646343209497,1020.2963996579215 519.8059894854529,1023.8237902874573" />
<polyline stroke="black" fill="none" points="549.2405815971453,856.9177003120183 561.7063542615716,1023.9196700746343" />
<polyline stroke="black" fill="none" points="592.8814988123306,935.4372520323254 621.9017035112377,923.365317227466" />
<polyline stroke="black" fill="none" points="592.8814988123306,935.4372520323254 574.702654214333,918.4306043758336" />
<polyline stroke="black" fill="none" points="610.1009290213474,862.6600511481174 621.9017035112377,923.365317227466" />
<polyline stroke="black" fill="none" points="621.9017035112377,923.365317227466 604.0802599816251,905.8188554674412" />
<polyline stroke="black" fill="none" points="570.1007284552503,877.2998603555632 574.702654214333,918.4306043758336" />
<polyline stroke="black" fill="none" points="574.702654214333,918.4306043758336 604.0802599816251,905.8188554674412" />
<polyline stroke="black" fill="none" points="597.7748327365302,868.3063742446403 604.0802599816251,905.8188554674412" />
<polyline stroke="black" fill="none" points="661.6239775538043,983.7274007910908 698.7442100601721,969.7630567705073" />
<polyline stroke="black" fill="none" points="661.6239775538043,983.7274007910908 641.0286854753775,964.0259234969587" />
<polyline stroke="black" fill="none" points="671.9231653191348,881.9005513417229 698.7442100601721,969.7630567705073" />
<polyline stroke="black" fill="none" points="698.7442100601721,969.7630567705073 678.7682902740709,949.2866678605978" />
<polyline stroke="black" fill="none" points="618.6402498637606,858.8732326242329 641.0286854753775,964.0259234969587" />
<polyline stroke="black" fill="none" points="641.0286854753775,964.0259234969587 678.7682902740709,949.2866678605978" />
<polyline stroke="black" fill="none" points="654.2515885947325,862.36297679733 678.7682902740709,949.2866678605978" />
<polyline stroke="black" fill="none" points="727.0449376690489,826.5932921567417 736.6785965014884,822.3300878170606" />
<polyline stroke="black" fill="none" points="815.7907110051208,808.629020519794 792.9559150864623,774.6241416937067" />
<polyline stroke="black" fill="none" points="782.9415922988837,779.1664564681063 792.9559150864623,774.6241416937067" />
<polyline stroke="black" fill="none" points="774.8696546801643,747.8051171694381 792.9559150864623,774.6241416937067" />
<polyline stroke="black" fill="none" points="791.5775405295906,739.6756441491628 930.3088722155935,929.0641267099351" />
<polyline stroke="black" fill="none" points="930.3088722155935,929.0641267099351 1003.6102058778877,903.0345534700178" />
<polyline stroke="black" fill="none" points="930.3088722155935,929.0641267099351 907.0974207947963,892.1306951427079" />
<polyline stroke="black" fill="none" points="1003.6102058778877,903.0345534700178 983.1728778689089,863.537845494866" />
<polyline stroke="black" fill="none" points="793.72281124038,738.8633114208593 907.0974207947963,892.1306951427079" />
<polyline stroke="black" fill="none" points="907.0974207947963,892.1306951427079 983.1728778689089,863.537845494866" />
<polyline stroke="black" fill="none" points="880.3520169692079,753.2202742614825 983.1728778689089,863.537845494866" />
<polyline stroke="black" fill="none" points="885.5753041670075,750.7162642304904 912.8725022554963,779.4112499143101" />
<polyline stroke="black" fill="none" points="912.8725022554963,779.4112499143101 957.3517064498635,760.4418237451489" />
<polyline stroke="black" fill="none" points="912.8725022554963,779.4112499143101 898.2480296304461,752.6358777372384" />
<polyline stroke="black" fill="none" points="957.3517064498635,760.4418237451489 951.7294742726208,748.9320621220905" />
<polyline stroke="black" fill="none" points="893.0828558526794,747.3586905327192 898.2480296304461,752.6358777372384" />
<polyline stroke="black" fill="none" points="898.2480296304461,752.6358777372384 936.7025199745425,735.650538842353" />
<polyline stroke="black" fill="none" points="1003.6723708593452,755.4565302218864 1021.3201268737322,769.7221514297778" />
<polyline stroke="black" fill="none" points="1021.3201268737322,769.7221514297778 1023.9394645519146,768.6468447934924" />
<polyline stroke="black" fill="none" points="1021.3201268737322,769.7221514297778 1013.4956206177283,751.3247952761676" />
<polyline stroke="black" fill="none" points="219.1560645146983,1012.165614230028 250.65346995038442,997.3985219821587" />
<polyline stroke="black" fill="none" points="219.1560645146983,1012.165614230028 213.58539001534018,1008.9295477463473" />
<polyline stroke="black" fill="none" points="254.79398791990167,987.2687024265568 250.65346995038442,997.3985219821587" />
<polyline stroke="black" fill="none" points="250.65346995038442,997.3985219821587 225.96746221335746,982.3610148429534" />
<polyline stroke="black" fill="none" points="261.5581000353244,991.3896213012565 246.0322545329892,981.762694350025" />
<polyline stroke="black" fill="none" points="267.7591673268194,975.1814914082776 265.957858873568,974.0332665507112" />
<polyline stroke="black" fill="none" points="247.1117309862741,979.231091665527 246.0322545329892,981.762694350025" />
<polyline stroke="black" fill="none" points="246.0322545329892,981.762694350025 249.17677683616182,980.2515206746561" />
<polyline stroke="black" fill="none" points="269.032238858219,972.5517983460011 248.85421811631142,1023.5882220521137" />
<polyline stroke="black" fill="none" points="302.90706085270017,948.1051266651359 276.1907813374289,1023.5027208487543" />
<polyline stroke="black" fill="none" points="424.5202345519717,1015.2369172626711 457.57386519976825,1001.6775364677089" />
<polyline stroke="black" fill="none" points="424.5202345519717,1015.2369172626711 388.48443263047284,990.1022424525491" />
<polyline stroke="black" fill="none" points="458.71269386439593,990.6433880397733 432.4540283982276,971.0069663302613" />
<polyline stroke="black" fill="none" points="391.94277468241586,972.4041836405104 388.48443263047284,990.1022424525491" />
<polyline stroke="black" fill="none" points="388.48443263047284,990.1022424525491 432.4540283982276,971.0069663302613" />
<polyline stroke="black" fill="none" points="434.5435574290869,954.9046840385056 432.4540283982276,971.0069663302613" />
<polyline stroke="black" fill="none" points="509.0113493451099,1023.9996012658212 538.5492977496726,1012.603171950853" />
<polyline stroke="black" fill="none" points="483.22783917986857,1023.9996012658212 457.5001288174646,1005.1721895252863" />
<polyline stroke="black" fill="none" points="529.8046681605224,796.998179244464 538.5492977496726,1012.603171950853" />
<polyline stroke="black" fill="none" points="538.5492977496726,1012.603171950853 504.75074750512886,985.8835944864632" />
<polyline stroke="black" fill="none" points="461.1262133377437,962.1141221008195 457.5001288174646,1005.1721895252863" />
<polyline stroke="black" fill="none" points="457.5001288174646,1005.1721895252863 504.75074750512886,985.8835944864632" />
<polyline stroke="black" fill="none" points="506.854794843145,803.6479120830052 504.75074750512886,985.8835944864632" />
<polyline stroke="black" fill="none" points="538.4546626803304,825.2655114368039 536.3430766209791,823.1483887971319" />
<polyline stroke="black" fill="none" points="534.838419028159,794.3980518239848 536.3430766209791,823.1483887971319" />
<polyline stroke="black" fill="none" points="536.3430766209791,823.1483887971319 538.2945184265996,822.1899518134649" />
<polyline stroke="black" fill="none" points="615.8682294756741,825.509679000811 632.8817916590692,817.5271400055035" />
<polyline stroke="black" fill="none" points="629.0403114618717,802.2394233555804 620.4243489351634,792.3630307030467" />
<polyline stroke="black" fill="none" points="609.558748564863,797.6392015835858 620.4243489351634,792.3630307030467" />
<polyline stroke="black" fill="none" points="611.7162798435158,757.4782227865591 620.4243489351634,792.3630307030467" />
<polyline stroke="black" fill="none" points="734.0674625054727,998.0679740509296 734.0698137833826,998.074751047803" />
<polyline stroke="black" fill="none" points="734.0698137833826,998.074751047803 795.6674758771,976.1804664708161" />
<polyline stroke="black" fill="none" points="734.0698137833826,998.074751047803 704.1305012367561,967.0413247182471" />
<polyline stroke="black" fill="none" points="708.2803932966422,785.74630830148 795.6674758771,976.1804664708161" />
<polyline stroke="black" fill="none" points="795.6674758771,976.1804664708161 767.5357847080866,943.1664182306223" />
<polyline stroke="black" fill="none" points="677.8567545701156,883.7568198920176 704.1305012367561,967.0413247182471" />
<polyline stroke="black" fill="none" points="704.1305012367561,967.0413247182471 767.5357847080866,943.1664182306223" />
<polyline stroke="black" fill="none" points="731.6270574924952,860.9385373888083 767.5357847080866,943.1664182306223" />
<polyline stroke="black" fill="none" points="777.5397942505683,886.0427058312255 836.1977121012246,862.4272721055195" />
<polyline stroke="black" fill="none" points="777.5397942505683,886.0427058312255 751.4211680610588,852.5979596714508" />
<polyline stroke="black" fill="none" points="765.248282216188,752.0378226689571 836.1977121012246,862.4272721055195" />
<polyline stroke="black" fill="none" points="836.1977121012246,862.4272721055195 811.7499745405318,826.998243255699" />
<polyline stroke="black" fill="none" points="731.8554377211244,812.1798791199926 751.4211680610588,852.5979596714508" />
<polyline stroke="black" fill="none" points="751.4211680610588,852.5979596714508 811.7499745405318,826.998243255699" />
<polyline stroke="black" fill="none" points="764.3488614472932,752.8347986106094 811.7499745405318,826.998243255699" />
<polyline stroke="black" fill="none" points="829.4019591869603,775.7532522523809 911.0930506405101,883.2692064184948" />
<polyline stroke="black" fill="none" points="911.0930506405101,883.2692064184948 963.9554994308787,863.2226050571669" />
<polyline stroke="black" fill="none" points="911.0930506405101,883.2692064184948 893.6099770307951,854.929293132541" />
<polyline stroke="black" fill="none" points="963.9554994308787,863.2226050571669 947.8901063487322,833.4680008720625" />
<polyline stroke="black" fill="none" points="832.0403760594587,774.7557437815574 893.6099770307951,854.929293132541" />
<polyline stroke="black" fill="none" points="893.6099770307951,854.929293132541 947.8901063487322,833.4680008720625" />
<polyline stroke="black" fill="none" points="876.0895355752094,755.1499957583179 947.8901063487322,833.4680008720625" />
<polyline stroke="black" fill="none" points="231.50966897505793,969.6994146182208 206.7958941338298,1023.5947334668465" />
<polyline stroke="black" fill="none" points="250.6553351527242,981.1475324954478 285.28740402749924,964.5408568945998" />
<polyline stroke="black" fill="none" points="250.6553351527242,981.1475324954478 223.944489587972,964.5058242094443" />
<polyline stroke="black" fill="none" points="296.01935075119127,935.8294390985666 285.28740402749924,964.5408568945998" />
<polyline stroke="black" fill="none" points="285.28740402749924,964.5408568945998 258.76276338168867,947.1237626182572" />
<polyline stroke="black" fill="none" points="314.5817682739581,955.6853492061048 328.4533224235429,949.0791303006387" />
<polyline stroke="black" fill="none" points="314.5817682739581,955.6853492061048 294.2988361644462,941.8520542864245" />
<polyline stroke="black" fill="none" points="330.5118455101667,942.5402449828784 315.0526903897727,931.656627562283" />
<polyline stroke="black" fill="none" points="296.69797994743067,935.4179256904208 294.2988361644462,941.8520542864245" />
<polyline stroke="black" fill="none" points="294.2988361644462,941.8520542864245 315.0526903897727,931.656627562283" />
<polyline stroke="black" fill="none" points="321.6498031682157,912.441329878802 315.0526903897727,931.656627562283" />
<polyline stroke="black" fill="none" points="374.71586033429264,980.0820265476286 365.05523547233736,1023.8568529435097" />
<polyline stroke="black" fill="none" points="355.17290313585863,1023.8206522906178 337.7945758700804,1012.6276069130365" />
<polyline stroke="black" fill="none" points="330.8500787579061,955.8774194614341 310.2314128172676,1023.9271115393385" />
<polyline stroke="black" fill="none" points="311.7893124730858,1023.9129957357984 337.7945758700804,1012.6276069130365" />
<polyline stroke="black" fill="none" points="349.4988981270093,968.645984845834 337.7945758700804,1012.6276069130365" />
<polyline stroke="black" fill="none" points="369.36391865358667,982.0047475721085 415.6544694960026,961.4385666605307" />
<polyline stroke="black" fill="none" points="369.36391865358667,982.0047475721085 327.31202978793965,952.8832935495985" />
<polyline stroke="black" fill="none" points="418.60847877671813,942.937148295674 415.6544694960026,961.4385666605307" />
<polyline stroke="black" fill="none" points="415.6544694960026,961.4385666605307 374.2713014063713,930.6151321029824" />
<polyline stroke="black" fill="none" points="343.51384899279736,900.6979551729087 327.31202978793965,952.8832935495985" />
<polyline stroke="black" fill="none" points="327.31202978793965,952.8832935495985 374.2713014063713,930.6151321029824" />
<polyline stroke="black" fill="none" points="395.66677734731275,841.6639839408027 374.2713014063713,930.6151321029824" />
<polyline stroke="black" fill="none" points="454.3213929073848,969.9572475354864 460.41309959821655,967.3415501036859" />
<polyline stroke="black" fill="none" points="454.3213929073848,969.9572475354864 415.1310327862957,939.9452543242442" />
<polyline stroke="black" fill="none" points="499.2472872364529,945.0901207872672 465.3760159161989,916.9746151351442" />
<polyline stroke="black" fill="none" points="433.801147829699,827.7858159922802 415.1310327862957,939.9452543242442" />
<polyline stroke="black" fill="none" points="415.1310327862957,939.9452543242442 465.3760159161989,916.9746151351442" />
<polyline stroke="black" fill="none" points="477.81811488844875,767.8094644860925 465.3760159161989,916.9746151351442" />
<polyline stroke="black" fill="none" points="510.200378100912,806.8861978668733 536.4457155652855,793.567078954512" />
<polyline stroke="black" fill="none" points="510.200378100912,806.8861978668733 491.28612839085355,788.128853108983" />
<polyline stroke="black" fill="none" points="533.7655420252493,745.8137471078485 536.4457155652855,793.567078954512" />
<polyline stroke="black" fill="none" points="536.4457155652855,793.567078954512 517.7997688449802,774.2468585727216" />
<polyline stroke="black" fill="none" points="492.60420410391595,760.7594089104115 491.28612839085355,788.128853108983" />
<polyline stroke="black" fill="none" points="491.28612839085355,788.128853108983 517.7997688449802,774.2468585727216" />
<polyline stroke="black" fill="none" points="517.4255196415887,747.3879040606766 517.7997688449802,774.2468585727216" />
<polyline stroke="black" fill="none" points="572.4953720965066,879.4577871259727 622.6413473876969,856.8440805364971" />
<polyline stroke="black" fill="none" points="572.4953720965066,879.4577871259727 539.8009751183813,847.4502590570464" />
<polyline stroke="black" fill="none" points="600.7558890646849,758.1723044008311 622.6413473876969,856.8440805364971" />
<polyline stroke="black" fill="none" points="622.6413473876969,856.8440805364971 591.0079184684562,823.0357417420153" />
<polyline stroke="black" fill="none" points="534.0554947815248,746.3005551639744 539.8009751183813,847.4502590570464" />
<polyline stroke="black" fill="none" points="539.8009751183813,847.4502590570464 591.0079184684562,823.0357417420153" />
<polyline stroke="black" fill="none" points="580.2978942954318,759.998766637772 591.0079184684562,823.0357417420153" />
<polyline stroke="black" fill="none" points="674.7794161767505,884.9106801553155 736.7905387087683,858.5904278897309" />
<polyline stroke="black" fill="none" points="674.7794161767505,884.9106801553155 641.0259714278751,847.5864246343268" />
<polyline stroke="black" fill="none" points="702.2754824533707,781.7299525228553 736.7905387087683,858.5904278897309" />
<polyline stroke="black" fill="none" points="736.7905387087683,858.5904278897309 704.8075219006286,818.791389189169" />
<polyline stroke="black" fill="none" points="616.6636244567065,755.1461778976882 641.0259714278751,847.5864246343268" />
<polyline stroke="black" fill="none" points="641.0259714278751,847.5864246343268 704.8075219006286,818.791389189169" />
<polyline stroke="black" fill="none" points="680.7583323753166,761.3175870930276 704.8075219006286,818.791389189169" />
<polyline stroke="black" fill="none" points="729.4628169710543,813.2043430622073 781.523684284092,789.8450735479719" />
<polyline stroke="black" fill="none" points="729.4628169710543,813.2043430622073 704.418042250305,780.7265689731987" />
<polyline stroke="black" fill="none" points="759.6717292949722,754.8336553549838 781.523684284092,789.8450735479719" />
<polyline stroke="black" fill="none" points="781.523684284092,789.8450735479719 757.7377530961442,755.622281974028" />
<polyline stroke="black" fill="none" points="793.84679853496,738.6560138587614 823.232414671495,778.342367436569" />
<polyline stroke="black" fill="none" points="823.232414671495,778.342367436569 904.108749637206,742.3323998559308" />
<polyline stroke="black" fill="none" points="823.232414671495,778.342367436569 800.4199455241355,742.7932799622928" />
<polyline stroke="black" fill="none" points="904.108749637206,742.3323998559308 877.6707099659207,692.8532116458704" />
<polyline stroke="black" fill="none" points="884.9557294463897,689.5189698493629 973.4019119507359,768.1357123863074" />
<polyline stroke="black" fill="none" points="973.4019119507359,768.1357123863074 1023.7443682966837,746.9919062264388" />
<polyline stroke="black" fill="none" points="973.4019119507359,768.1357123863074 958.6290500719576,737.0632730553574" />
<polyline stroke="black" fill="none" points="1023.9463504502222,741.7448271952786 1021.9702976740971,736.928876227773" />
<polyline stroke="black" fill="none" points="896.233670976965,684.1086452546974 958.6290500719576,737.0632730553574" />
<polyline stroke="black" fill="none" points="958.6290500719576,737.0632730553574 988.8623905467955,723.8597238265811" />
<polyline stroke="black" fill="none" points="131.79613204804826,1023.8897001918851 132.4869231804874,1023.5514332031527" />
<polyline stroke="black" fill="none" points="137.33700077081357,1014.7311194018832 134.34023640136218,1013.10717059113" />
<polyline stroke="black" fill="none" points="215.77931631465492,965.7348361471852 187.3922862519459,1023.9733716692349" />
<polyline stroke="black" fill="none" points="140.15743612211372,1010.3844795763948 132.67975783462174,1023.5035661561659" />
<polyline stroke="black" fill="none" points="163.42352372753953,998.8363251075492 149.8564530580618,1023.7780966230741" />
<polyline stroke="black" fill="none" points="317.7174327899532,914.241980700039 343.13866190883755,901.4959115487663" />
<polyline stroke="black" fill="none" points="350.1395797388228,896.9939438305504 329.27486983719405,881.1485455562232" />
<polyline stroke="black" fill="none" points="369.58607271142415,855.1361767798609 396.57498356020864,841.059438895621" />
<polyline stroke="black" fill="none" points="369.58607271142415,855.1361767798609 345.45767966918106,835.513337557901" />
<polyline stroke="black" fill="none" points="399.9516849553258,826.9281137729023 396.57498356020864,841.059438895621" />
<polyline stroke="black" fill="none" points="396.57498356020864,841.059438895621 372.4075715931854,820.5553751873997" />
<polyline stroke="black" fill="none" points="345.46335781089186,835.1517704703148 372.4075715931854,820.5553751873997" />
<polyline stroke="black" fill="none" points="401.30177143496087,724.8135539316529 372.4075715931854,820.5553751873997" />
<polyline stroke="black" fill="none" points="413.15581471766944,838.2885902602912 454.92425086478147,816.649020189579" />
<polyline stroke="black" fill="none" points="413.15581471766944,838.2885902602912 377.78600730228027,807.6895666106116" />
<polyline stroke="black" fill="none" points="462.8747105578277,752.762366610355 454.92425086478147,816.649020189579" />
<polyline stroke="black" fill="none" points="454.92425086478147,816.649020189579 420.1482521537842,784.4850509547608" />
<polyline stroke="black" fill="none" points="402.77302630270583,723.9716726650245 377.78600730228027,807.6895666106116" />
<polyline stroke="black" fill="none" points="377.78600730228027,807.6895666106116 420.1482521537842,784.4850509547608" />
<polyline stroke="black" fill="none" points="432.20858114482485,728.488178987411 420.1482521537842,784.4850509547608" />
<polyline stroke="black" fill="none" points="478.4460755594637,768.2748009802501 519.0691417338993,746.3881308644354" />
<polyline stroke="black" fill="none" points="478.4460755594637,768.2748009802501 447.4943394481765,737.3461239534374" />
<polyline stroke="black" fill="none" points="518.7633670358994,729.5889589065468 519.0691417338993,746.3881308644354" />
<polyline stroke="black" fill="none" points="519.0691417338993,746.3881308644354 488.7396682237774,713.9813714609345" />
<polyline stroke="black" fill="none" points="450.8086058587474,717.8561167017277 447.4943394481765,737.3461239534374" />
<polyline stroke="black" fill="none" points="465.90424665831176,666.9972317287703 485.6655766538459,655.1208971427249" />
<polyline stroke="black" fill="none" points="447.4943394481765,737.3461239534374 488.7396682237774,713.9813714609345" />
<polyline stroke="black" fill="none" points="490.9287399935365,680.4804109031585 488.7396682237774,713.9813714609345" />
<polyline stroke="black" fill="none" points="539.1044229273851,751.609378821418 510.92767836932444,720.9859209432082" />
<polyline stroke="black" fill="none" points="510.9994728442472,696.6839273487853 510.92767836932444,720.9859209432082" />
<polyline stroke="black" fill="none" points="510.92767836932444,720.9859209432082 534.0389751924068,708.1477032564612" />
<polyline stroke="black" fill="none" points="603.677105585529,761.3639539994817 650.5805021525946,737.6091197818324" />
<polyline stroke="black" fill="none" points="603.677105585529,761.3639539994817 595.8345958332396,752.260986691247" />
<polyline stroke="black" fill="none" points="646.4470255986664,726.2867650907885 650.5805021525946,737.6091197818324" />
<polyline stroke="black" fill="none" points="650.5805021525946,737.6091197818324 643.0009588444091,728.0425547081527" />
<polyline stroke="black" fill="none" points="796.2590782933556,737.5836886080497 800.0291824470294,742.6179216531709" />
<polyline stroke="black" fill="none" points="800.0291824470294,742.6179216531709 875.5947592939996,707.2917948091234" />
<polyline stroke="black" fill="none" points="800.0291824470294,742.6179216531709 796.8180066227812,737.6161280509222" />
<polyline stroke="black" fill="none" points="875.5947592939996,707.2917948091234 869.7148488290851,696.4848229607833" />
<polyline stroke="black" fill="none" points="876.7430615692431,637.8002630215201 1011.6214040579587,741.2633306125772" />
<polyline stroke="black" fill="none" points="738.9733537739565,519.9277249061882 735.9968041025755,514.7349564002654" />
<polyline stroke="black" fill="none" points="1011.6214040579587,741.2633306125772 1023.8324114341252,736.0768200681301" />
<polyline stroke="black" fill="none" points="1011.6214040579587,741.2633306125772 991.3961512530502,693.429703313666" />
<polyline stroke="black" fill="none" points="735.9968041025755,514.7349564002654 991.3961512530502,693.429703313666" />
<polyline stroke="black" fill="none" points="735.9968041025755,514.7349564002654 760.6276241264034,500.0556032361815" />
<polyline stroke="black" fill="none" points="991.3961512530502,693.429703313666 1023.8065892333698,678.8552137105937" />
<polyline stroke="black" fill="none" points="1023.9255834284083,419.90237881600444 1022.0997199259832,413.9745812161698" />
<polyline stroke="black" fill="none" points="974.2935142980292,441.011493424177 1022.0997199259832,413.9745812161698" />
<polyline stroke="black" fill="none" points="981.1517739161568,409.48218387376176 1022.0997199259832,413.9745812161698" />
<polyline stroke="black" fill="none" points="976.7110244667915,380.685646444652 1023.6384181866104,382.9753180028058" />
<polyline stroke="black" fill="none" points="118.07203007773649,1009.3749822093337 109.3423851133656,1023.8095281717422" />
<polyline stroke="black" fill="none" points="129.73699051559902,1015.2432070957656 176.84947946297297,991.8483121411373" />
<polyline stroke="black" fill="none" points="129.73699051559902,1015.2432070957656 93.61968190538028,995.8006808925024" />
<polyline stroke="black" fill="none" points="196.9664821324825,953.8030316411501 176.84947946297297,991.8483121411373" />
<polyline stroke="black" fill="none" points="176.84947946297297,991.8483121411373 119.88350484460761,958.9510804814919" />
<polyline stroke="black" fill="none" points="218.56374871783936,967.0453961769781 261.8613110516345,945.4260211187836" />
<polyline stroke="black" fill="none" points="218.56374871783936,967.0453961769781 169.0222519200691,936.4221198239713" />
<polyline stroke="black" fill="none" points="264.9829241195981,938.0953652542981 261.8613110516345,945.4260211187836" />
<polyline stroke="black" fill="none" points="261.8613110516345,945.4260211187836 212.65548855147796,912.9572209942876" />
<polyline stroke="black" fill="none" points="205.89864694813258,874.2323822063995 169.0222519200691,936.4221198239713" />
<polyline stroke="black" fill="none" points="169.0222519200691,936.4221198239713 212.65548855147796,912.9572209942876" />
<polyline stroke="black" fill="none" points="228.55336760651863,883.484628022524 212.65548855147796,912.9572209942876" />
<polyline stroke="black" fill="none" points="276.46335853805175,945.2907690814793 313.17837525215396,927.1280201565824" />
<polyline stroke="black" fill="none" points="276.46335853805175,945.2907690814793 238.05531988911042,919.6192240128992" />
<polyline stroke="black" fill="none" points="373.77740457055916,753.6664820389369 313.17837525215396,927.1280201565824" />
<polyline stroke="black" fill="none" points="313.17837525215396,927.1280201565824 275.0892853921695,900.2020989761174" />
<polyline stroke="black" fill="none" points="265.67045844370534,863.0060663824114 238.05531988911042,919.6192240128992" />
<polyline stroke="black" fill="none" points="238.05531988911042,919.6192240128992 275.0892853921695,900.2020989761174" />
<polyline stroke="black" fill="none" points="333.1010514261765,767.4371856653494 275.0892853921695,900.2020989761174" />
<polyline stroke="black" fill="none" points="340.3974884061833,773.068840530578 380.49173888550297,749.7353049423256" />
<polyline stroke="black" fill="none" points="331.8351206281644,767.6864923787882 329.4267500601329,765.6024169743982" />
<polyline stroke="black" fill="none" points="385.80974708752433,733.8945505134811 380.49173888550297,749.7353049423256" />
<polyline stroke="black" fill="none" points="380.49173888550297,749.7353049423256 349.4392372819002,721.0726768695642" />
<polyline stroke="black" fill="none" points="416.7375762354169,737.3478263973436 416.72672552379055,737.3910340781373" />
<polyline stroke="black" fill="none" points="416.72672552379055,737.3910340781373 451.7707722411388,717.1781411109016" />
<polyline stroke="black" fill="none" points="416.72672552379055,737.3910340781373 402.89134355973573,723.9899273914198" />
<polyline stroke="black" fill="none" points="458.62308784859056,676.3155427228647 451.7707722411388,717.1781411109016" />
<polyline stroke="black" fill="none" points="451.7707722411388,717.1781411109016 422.73026038921734,687.4273120374469" />
<polyline stroke="black" fill="none" points="420.4038528837124,688.8330361257574 422.73026038921734,687.4273120374469" />
<polyline stroke="black" fill="none" points="423.96073924486853,682.88670157968 422.73026038921734,687.4273120374469" />
<polyline stroke="black" fill="none" points="507.44774110060354,698.5273058043165 532.2296695935604,684.421094088623" />
<polyline stroke="black" fill="none" points="507.44774110060354,698.5273058043165 484.28400757096273,672.8788580610199" />
<polyline stroke="black" fill="none" points="526.1946274589953,585.4499097069086 515.351467246274,571.822711436162" />
<polyline stroke="black" fill="none" points="531.5439208225026,671.1608196442876 516.6356369362686,653.7479624767157" />
<polyline stroke="black" fill="none" points="491.8609373291755,586.8012124628334 484.28400757096273,672.8788580610199" />
<polyline stroke="black" fill="none" points="491.8609373291755,586.8012124628334 515.351467246274,571.822711436162" />
<polyline stroke="black" fill="none" points="484.28400757096273,672.8788580610199 516.6356369362686,653.7479624767157" />
<polyline stroke="black" fill="none" points="515.351467246274,571.822711436162 516.6356369362686,653.7479624767157" />
<polyline stroke="black" fill="none" points="580.1166013473567,760.0062446994443 580.1251127047891,760.0564750449046" />
<polyline stroke="black" fill="none" points="580.1251127047891,760.0564750449046 650.9811811267534,723.6637613842587" />
<polyline stroke="black" fill="none" points="580.1251127047891,760.0564750449046 534.0699964116295,708.0241664019491" />
<polyline stroke="black" fill="none" points="645.083884732707,715.4021563165819 607.5019246220345,667.2287469248154" />
<polyline stroke="black" fill="none" points="524.9120148484386,562.785857157723 534.0699964116295,708.0241664019491" />
<polyline stroke="black" fill="none" points="534.0699964116295,708.0241664019491 607.5019246220345,667.2287469248154" />
<polyline stroke="black" fill="none" points="576.4263739599896,566.6119867314117 607.5019246220345,667.2287469248154" />
<polyline stroke="black" fill="none" points="698.1970132822184,783.5910997794142 798.8215331764056,736.2111997432567" />
<polyline stroke="black" fill="none" points="698.1970132822184,783.5910997794142 645.3628059380397,715.8748538720056" />
<polyline stroke="black" fill="none" points="798.8215331764056,736.2111997432567 750.8338250298509,661.1157722283913" />
<polyline stroke="black" fill="none" points="596.3538863191184,584.3652241303944 645.3628059380397,715.8748538720056" />
<polyline stroke="black" fill="none" points="645.3628059380397,715.8748538720056 750.8338250298509,661.1157722283913" />
<polyline stroke="black" fill="none" points="691.0997047035446,585.3071497660626 750.8338250298509,661.1157722283913" />
<polyline stroke="black" fill="none" points="778.2900296667513,704.0721002685555 798.4314830390834,730.2471777701454" />
<polyline stroke="black" fill="none" points="798.4314830390834,730.2471777701454 899.3235829981692,682.4415053951635" />
<polyline stroke="black" fill="none" points="798.4314830390834,730.2471777701454 755.0503803998411,661.9878210129721" />
<polyline stroke="black" fill="none" points="899.3235829981692,682.4415053951635 861.0644918589907,607.1069856986869" />
<polyline stroke="black" fill="none" points="692.7598628898155,584.0828271705012 755.0503803998411,661.9878210129721" />
<polyline stroke="black" fill="none" points="638.6412086570208,478.44183918614624 652.9392374523173,469.2142605761537" />
<polyline stroke="black" fill="none" points="755.0503803998411,661.9878210129721 861.0644918589907,607.1069856986869" />
<polyline stroke="black" fill="none" points="696.2791758022306,489.51476756920897 861.0644918589907,607.1069856986869" />
<polyline stroke="black" fill="none" points="734.0690613947862,484.78297736877295 1023.6956952272353,650.1206323371764" />
<polyline stroke="black" fill="none" points="1023.7909237893346,646.9454021489114 988.9272017457006,553.6997144073086" />
<polyline stroke="black" fill="none" points="768.9527121286237,463.44191205812393 988.9272017457006,553.6997144073086" />
<polyline stroke="black" fill="none" points="988.9272017457006,553.6997144073086 1023.459930316053,536.0183716545789" />
<polyline stroke="black" fill="none" points="937.3935420688177,434.5930560729277 1023.6388074290463,450.1193640480295" />
<polyline stroke="black" fill="none" points="961.2226232953338,438.5343491657315 982.1713709665302,426.59409714931905" />
<polyline stroke="black" fill="none" points="982.1713709665302,426.59409714931905 977.0379897501116,411.59038801063826" />
<polyline stroke="black" fill="none" points="976.0564285499395,377.7308886721486 987.786222437659,370.7718925695358" />
<polyline stroke="black" fill="none" points="987.7579498036243,370.7711343127901 987.786222437659,370.7718925695358" />
<polyline stroke="black" fill="none" points="987.786222437659,370.7718925695358 982.9975843303125,355.97823776148755" />
<polyline stroke="black" fill="none" points="986.363755244526,365.06286030879414 1023.7758548940963,365.6189816698395" />
<polyline stroke="black" fill="none" points="62.10746235404952,802.4464747013658 55.643483223249575,798.128056382068" />
<polyline stroke="black" fill="none" points="95.99343056631056,785.6066867883446 89.42402034077406,781.0221711063025" />
<polyline stroke="black" fill="none" points="13.931359816289273,869.9547327909636 5.5709387702673325,864.9614972593355" />
<polyline stroke="black" fill="none" points="71.38330244760812,793.3532468364708 0.23835894331307372,863.6464509635689" />
<polyline stroke="black" fill="none" points="71.38330244760812,793.3532468364708 89.42402034077406,781.0221711063025" />
<polyline stroke="black" fill="none" points="0.1795244137135228,868.5341211904789 5.5709387702673325,864.9614972593355" />
<polyline stroke="black" fill="none" points="89.42402034077406,781.0221711063025 5.5709387702673325,864.9614972593355" />
<polyline stroke="black" fill="none" points="101.39553228160662,780.4250634526231 0.20650395131599453,884.5242999923378" />
<polyline stroke="black" fill="none" points="101.39553228160662,780.4250634526231 101.88712545410334,780.0917708086672" />
<polyline stroke="black" fill="none" points="15.967969631581923,878.7629272548934 0.30987795688571396,895.201326578907" />
<polyline stroke="black" fill="none" points="16.946399579880904,879.1211352077646 12.05537017075335,876.2256325687497" />
<polyline stroke="black" fill="none" points="103.53005851132451,781.4081915375997 12.05537017075335,876.2256325687497" />
<polyline stroke="black" fill="none" points="12.05537017075335,876.2256325687497 32.972649109567385,862.618552850767" />
<polyline stroke="black" fill="none" points="2.2276519902164864,951.2576061567667 0.11293244791033885,950.1261543380556" />
<polyline stroke="black" fill="none" points="107.42871088958213,784.2348501630353 0.35672176792246546,897.0371580295771" />
<polyline stroke="black" fill="none" points="112.1832669067391,787.3582087389395 0.22489702538075562,907.5856693008894" />
<polyline stroke="black" fill="none" points="38.1498887106398,1023.8799929125108 45.5504798155838,1019.9967049117154" />
<polyline stroke="black" fill="none" points="51.42696046747051,1011.6568037932798 45.5504798155838,1019.9967049117154" />
<polyline stroke="black" fill="none" points="45.5504798155838,1019.9967049117154 0.27246668575412514,997.2705617037712" />
<polyline stroke="black" fill="none" points="159.73627418961723,768.4008733931529 0.20173404868967282,954.2595498004663" />
<polyline stroke="black" fill="none" points="174.15552840484366,765.6565020204695 0.0802079116616028,975.6967106926645" />
<polyline stroke="black" fill="none" points="57.70432946684002,1014.3887035620298 97.06464675263629,993.7580932292527" />
<polyline stroke="black" fill="none" points="57.70432946684002,1014.3887035620298 0.44918321966588337,985.1593982899918" />
<polyline stroke="black" fill="none" points="184.59225571136875,859.6519651020399 97.06464675263629,993.7580932292527" />
<polyline stroke="black" fill="none" points="97.06464675263629,993.7580932292527 39.743012328059194,962.7322715168233" />
<polyline stroke="black" fill="none" points="177.43352400655368,768.1812556160778 0.44918321966588337,985.1593982899918" />
<polyline stroke="black" fill="none" points="0.44918321966588337,985.1593982899918 39.743012328059194,962.7322715168233" />
<polyline stroke="black" fill="none" points="186.41098032799403,774.9252940425883 39.743012328059194,962.7322715168233" />
<polyline stroke="black" fill="none" points="187.8841874706278,775.7891406297853 168.49625902687114,761.0969732553854" />
<polyline stroke="black" fill="none" points="318.8422878684303,607.3412794457956 317.0906959973548,605.5886912956315" />
<polyline stroke="black" fill="none" points="224.10498978631858,729.6290377516174 221.26778521206734,727.3045896020245" />
<polyline stroke="black" fill="none" points="176.11226530051965,752.159949744445 168.49625902687114,761.0969732553854" />
<polyline stroke="black" fill="none" points="168.49625902687114,761.0969732553854 178.86020247075533,754.2588129369287" />
<polyline stroke="black" fill="none" points="223.36586785982206,886.1635326035941 223.34943166357948,886.1936080813105" />
<polyline stroke="black" fill="none" points="223.34943166357948,886.1936080813105 292.0543916602094,848.2793912800508" />
<polyline stroke="black" fill="none" points="223.34943166357948,886.1936080813105 144.7621784027706,832.1189689326158" />
<polyline stroke="black" fill="none" points="350.46335979594346,718.0833935316865 292.0543916602094,848.2793912800508" />
<polyline stroke="black" fill="none" points="392.32156511284626,603.9435967465945 366.7318842938321,576.4268139185496" />
<polyline stroke="black" fill="none" points="292.0543916602094,848.2793912800508 214.33222927624985,788.9377040521763" />
<polyline stroke="black" fill="none" points="324.4076845300116,600.1949682151777 144.7621784027706,832.1189689326158" />
<polyline stroke="black" fill="none" points="324.4076845300116,600.1949682151777 360.20202945087146,575.2754429157123" />
<polyline stroke="black" fill="none" points="144.7621784027706,832.1189689326158 214.33222927624985,788.9377040521763" />
<polyline stroke="black" fill="none" points="361.2975774509098,576.1796680603693 214.33222927624985,788.9377040521763" />
<polyline stroke="black" fill="none" points="374.737778845056,740.3703021576163 374.7276067161864,740.3986377209699" />
<polyline stroke="black" fill="none" points="374.7276067161864,740.3986377209699 411.95783623932857,718.4446923980538" />
<polyline stroke="black" fill="none" points="374.7276067161864,740.3986377209699 341.26432737235103,709.3823806692752" />
<polyline stroke="black" fill="none" points="422.23587692034846,681.4148419641466 411.95783623932857,718.4446923980538" />
<polyline stroke="black" fill="none" points="435.9414320820847,577.3589771325903 427.1195496641572,567.2149147149494" />
<polyline stroke="black" fill="none" points="411.95783623932857,718.4446923980538 378.9305855784619,685.9854058735416" />
<polyline stroke="black" fill="none" points="402.1854478181741,584.0078555817312 341.26432737235103,709.3823806692752" />
<polyline stroke="black" fill="none" points="402.1854478181741,584.0078555817312 427.1195496641572,567.2149147149494" />
<polyline stroke="black" fill="none" points="341.26432737235103,709.3823806692752 378.9305855784619,685.9854058735416" />
<polyline stroke="black" fill="none" points="427.1195496641572,567.2149147149494 378.9305855784619,685.9854058735416" />
<polyline stroke="black" fill="none" points="432.5903278371195,691.7604781458217 464.96398246822093,672.394413771694" />
<polyline stroke="black" fill="none" points="432.5903278371195,691.7604781458217 406.07338083497683,664.4402700032472" />
<polyline stroke="black" fill="none" points="481.4498455946713,562.2049693816806 464.96398246822093,672.394413771694" />
<polyline stroke="black" fill="none" points="481.4498455946713,562.2049693816806 464.91661207383515,542.0069353041968" />
<polyline stroke="black" fill="none" points="464.96398246822093,672.394413771694 438.8142704160845,644.0112784207731" />
<polyline stroke="black" fill="none" points="443.3843237780884,556.5057010258795 406.07338083497683,664.4402700032472" />
<polyline stroke="black" fill="none" points="443.3843237780884,556.5057010258795 464.91661207383515,542.0069353041968" />
<polyline stroke="black" fill="none" points="406.07338083497683,664.4402700032472 438.8142704160845,644.0112784207731" />
<polyline stroke="black" fill="none" points="464.91661207383515,542.0069353041968 438.8142704160845,644.0112784207731" />
<polyline stroke="black" fill="none" points="624.7456882387015,623.0365576947538 708.3278773467757,575.0757548758211" />
<polyline stroke="black" fill="none" points="624.7456882387015,623.0365576947538 581.4541043939842,563.9421938544701" />
<polyline stroke="black" fill="none" points="708.3278773467757,575.0757548758211 661.4015041853866,500.3565748474126" />
<polyline stroke="black" fill="none" points="650.4050530566855,507.2450613546152 661.4015041853866,500.3565748474126" />
<polyline stroke="black" fill="none" points="621.7301801018714,462.5589963969667 661.4015041853866,500.3565748474126" />
<polyline stroke="black" fill="none" points="638.7024265128418,457.7947308054673 686.584468017091,495.5037304489865" />
<polyline stroke="black" fill="none" points="638.7024265128418,457.7947308054673 619.5604027609833,427.1586065632061" />
<polyline stroke="black" fill="none" points="686.584468017091,495.5037304489865 716.0773463573688,477.1931529610958" />
<polyline stroke="black" fill="none" points="686.584468017091,495.5037304489865 661.5909091065614,454.1786358283045" />
<polyline stroke="black" fill="none" points="619.5604027609833,427.1586065632061 661.5909091065614,454.1786358283045" />
<polyline stroke="black" fill="none" points="619.5604027609833,427.1586065632061 624.5555868298175,423.76677215640973" />
<polyline stroke="black" fill="none" points="661.5909091065614,454.1786358283045 668.6998418147859,449.55593800149774" />
<polyline stroke="black" fill="none" points="799.4870323193029,444.8159177355148 878.3322677799822,468.62259064862883" />
<polyline stroke="black" fill="none" points="878.3322677799822,468.62259064862883 985.4133065631579,406.7341877575772" />
<polyline stroke="black" fill="none" points="878.3322677799822,468.62259064862883 839.6701029861887,380.21671975718584" />
<polyline stroke="black" fill="none" points="985.4133065631579,406.7341877575772 952.7105362723447,308.9514382980991" />
<polyline stroke="black" fill="none" points="813.312744371736,378.43056575641253 839.6701029861887,380.21671975718584" />
<polyline stroke="black" fill="none" points="839.6701029861887,380.21671975718584 952.7105362723447,308.9514382980991" />
<polyline stroke="black" fill="none" points="945.733154285236,309.7281640761489 952.7105362723447,308.9514382980991" />
<polyline stroke="black" fill="none" points="968.9508521887744,356.0200798250261 1023.3314902989315,355.7830780666471" />
<polyline stroke="black" fill="none" points="1023.8589823833568,302.55799057195867 1022.0700719931837,296.2232090159721" />
<polyline stroke="black" fill="none" points="953.8493519485548,304.48726187414206 1022.0700719931837,296.2232090159721" />
<polyline stroke="black" fill="none" points="1022.0700719931837,296.2232090159721 1023.7697126610622,295.1746671347099" />
<polyline stroke="black" fill="none" points="1015.9724865221278,265.21769147377677 1023.2569022538216,263.8764493234704" />
<polyline stroke="black" fill="none" points="1023.1280288774717,214.91361942122035 1023.6991735684562,214.5411851328886" />
<polyline stroke="black" fill="none" points="85.83882390383934,768.9676885135943 0.0709758973374619,851.6754161075327" />
<polyline stroke="black" fill="none" points="8.916311829833376,813.9123873619872 30.52287349452655,798.7701753658514" />
<polyline stroke="black" fill="none" points="8.916311829833376,813.9123873619872 0.2779046559110725,808.4287220286743" />
<polyline stroke="black" fill="none" points="30.620877219314934,798.6804598148665 30.52287349452655,798.7701753658514" />
<polyline stroke="black" fill="none" points="30.52287349452655,798.7701753658514 0.08754016392077801,778.8183737665686" />
<polyline stroke="black" fill="none" points="1.303642055506316,773.0654879312561 0.12358437652881094,774.0245462112749" />
<polyline stroke="black" fill="none" points="36.11429675034236,801.7475514899953 36.109531954010265,801.7519943879292" />
<polyline stroke="black" fill="none" points="36.109531954010265,801.7519943879292 57.85467295120145,786.6274389760758" />
<polyline stroke="black" fill="none" points="36.109531954010265,801.7519943879292 3.617127980831924,780.4357252791137" />
<polyline stroke="black" fill="none" points="80.6782503358308,765.0868725130026 57.85467295120145,786.6274389760758" />
<polyline stroke="black" fill="none" points="57.85467295120145,786.6274389760758 25.32735423659193,764.5872067691336" />
<polyline stroke="black" fill="none" points="28.90045333011477,759.4273709376113 3.617127980831924,780.4357252791137" />
<polyline stroke="black" fill="none" points="3.617127980831924,780.4357252791137 25.32735423659193,764.5872067691336" />
<polyline stroke="black" fill="none" points="80.30421046925431,718.6584888109053 25.32735423659193,764.5872067691336" />
<polyline stroke="black" fill="none" points="94.0900945846214,728.7107260895771 80.2292492137554,718.4575786993139" />
<polyline stroke="black" fill="none" points="238.94413675329548,600.26022581761 231.316825713399,593.0985344890304" />
<polyline stroke="black" fill="none" points="135.74176765238877,691.8189111387247 124.28653248217529,682.7420533745641" />
<polyline stroke="black" fill="none" points="218.26436616611693,602.8103708438343 231.316825713399,593.0985344890304" />
<polyline stroke="black" fill="none" points="107.59704909660655,695.0403358365492 124.28653248217529,682.7420533745641" />
<polyline stroke="black" fill="none" points="231.316825713399,593.0985344890304 124.28653248217529,682.7420533745641" />
<polyline stroke="black" fill="none" points="121.2240654619921,793.6746794070036 163.22098181693485,766.0068535030492" />
<polyline stroke="black" fill="none" points="121.2240654619921,793.6746794070036 65.624961045097,754.4664936584002" />
<polyline stroke="black" fill="none" points="175.38594245397735,751.7765059658099 163.22098181693485,766.0068535030492" />
<polyline stroke="black" fill="none" points="272.84833676624544,584.4646128598596 267.6810362188031,579.3984870725424" />
<polyline stroke="black" fill="none" points="163.22098181693485,766.0068535030492 107.72258574531077,724.3430656453397" />
<polyline stroke="black" fill="none" points="135.75472678834785,692.1796519888326 65.624961045097,754.4664936584002" />
<polyline stroke="black" fill="none" points="239.15523280062007,600.3757515638123 267.6810362188031,579.3984870725424" />
<polyline stroke="black" fill="none" points="65.624961045097,754.4664936584002 107.72258574531077,724.3430656453397" />
<polyline stroke="black" fill="none" points="267.6810362188031,579.3984870725424 107.72258574531077,724.3430656453397" />
<polyline stroke="black" fill="none" points="180.0314724237718,754.8101887713913 219.50603382581102,728.8007910509027" />
<polyline stroke="black" fill="none" points="180.0314724237718,754.8101887713913 132.21535457763707,717.9963188113561" />
<polyline stroke="black" fill="none" points="349.6827991033681,563.7780971886392 219.50603382581102,728.8007910509027" />
<polyline stroke="black" fill="none" points="362.8303860937431,503.6375484024582 362.8062796464503,503.61006461297677" />
<polyline stroke="black" fill="none" points="219.50603382581102,728.8007910509027 171.90062645613466,689.9153386158184" />
<polyline stroke="black" fill="none" points="342.78408915744023,518.4054841154947 132.21535457763707,717.9963188113561" />
<polyline stroke="black" fill="none" points="342.78408915744023,518.4054841154947 362.8062796464503,503.61006461297677" />
<polyline stroke="black" fill="none" points="132.21535457763707,717.9963188113561 171.90062645613466,689.9153386158184" />
<polyline stroke="black" fill="none" points="362.8062796464503,503.61006461297677 171.90062645613466,689.9153386158184" />
<polyline stroke="black" fill="none" points="363.63866119069246,578.5460070342622 403.76616045276967,550.7488536070341" />
<polyline stroke="black" fill="none" points="363.63866119069246,578.5460070342622 326.9132913103532,539.243978040346" />
<polyline stroke="black" fill="none" points="431.0740784404375,502.1203088542539 403.76616045276967,550.7488536070341" />
<polyline stroke="black" fill="none" points="431.0740784404375,502.1203088542539 404.94611315225256,470.23920025291847" />
<polyline stroke="black" fill="none" points="403.76616045276967,550.7488536070341 367.53545395904695,509.4578591225531" />
<polyline stroke="black" fill="none" points="373.9570311011697,493.17988943260593 326.9132913103532,539.243978040346" />
<polyline stroke="black" fill="none" points="373.9570311011697,493.17988943260593 404.94611315225256,470.23920025291847" />
<polyline stroke="black" fill="none" points="326.9132913103532,539.243978040346 367.53545395904695,509.4578591225531" />
<polyline stroke="black" fill="none" points="404.94611315225256,470.23920025291847 367.53545395904695,509.4578591225531" />
<polyline stroke="black" fill="none" points="470.54228471995657,507.58514707341766 477.7783964547647,502.5853984714794" />
<polyline stroke="black" fill="none" points="470.54228471995657,507.58514707341766 443.7662253866328,473.7110929808722" />
<polyline stroke="black" fill="none" points="459.95554934344625,446.2599198000438 443.7662253866328,473.7110929808722" />
<polyline stroke="black" fill="none" points="459.95554934344625,446.2599198000438 486.91657763513354,426.56198128509897" />
<polyline stroke="black" fill="none" points="443.7662253866328,473.7110929808722 478.9537959810184,448.32344592198916" />
<polyline stroke="black" fill="none" points="486.91657763513354,426.56198128509897 478.9537959810184,448.32344592198916" />
<polyline stroke="black" fill="none" points="543.6635462659652,586.7071743526915 656.4710283027936,516.824604856673" />
<polyline stroke="black" fill="none" points="543.6635462659652,586.7071743526915 465.300353455307,486.3762123506164" />
<polyline stroke="black" fill="none" points="656.4710283027936,516.824604856673 583.5269263285452,402.9971081229669" />
<polyline stroke="black" fill="none" points="491.90646447410876,413.24323705601034 465.300353455307,486.3762123506164" />
<polyline stroke="black" fill="none" points="491.90646447410876,413.24323705601034 541.6264313711104,376.64456257807126" />
<polyline stroke="black" fill="none" points="465.300353455307,486.3762123506164 583.5269263285452,402.9971081229669" />
<polyline stroke="black" fill="none" points="541.6264313711104,376.64456257807126 583.5269263285452,402.9971081229669" />
<polyline stroke="black" fill="none" points="597.1013112630966,407.50922698595025 731.9127612726696,485.91990810897073" />
<polyline stroke="black" fill="none" points="597.1013112630966,407.50922698595025 574.8882733547432,372.39713876382996" />
<polyline stroke="black" fill="none" points="731.9127612726696,485.91990810897073 833.8305539242939,423.58902752654336" />
<polyline stroke="black" fill="none" points="731.9127612726696,485.91990810897073 681.7573843400041,396.84324854980815" />
<polyline stroke="black" fill="none" points="833.8305539242939,423.58902752654336 788.7457743218479,324.8489820123757" />
<polyline stroke="black" fill="none" points="574.8882733547432,372.39713876382996 681.7573843400041,396.84324854980815" />
<polyline stroke="black" fill="none" points="574.8882733547432,372.39713876382996 611.1042000390419,346.1358587681949" />
<polyline stroke="black" fill="none" points="681.7573843400041,396.84324854980815 788.7457743218479,324.8489820123757" />
<polyline stroke="black" fill="none" points="611.1042000390419,346.1358587681949 788.7457743218479,324.8489820123757" />
<polyline stroke="black" fill="none" points="805.2718690178044,360.51376228800495 864.3584151180025,361.0178893353541" />
<polyline stroke="black" fill="none" points="633.9486522275478,343.1902917930022 612.213292513465,305.4506243622717" />
<polyline stroke="black" fill="none" points="864.3584151180025,361.0178893353541 1023.7040188802174,260.2886942161799" />
<polyline stroke="black" fill="none" points="864.3584151180025,361.0178893353541 800.6254233578509,206.63021539095934" />
<polyline stroke="black" fill="none" points="1023.7636571434861,218.50537189856112 984.926510014983,72.80293744180403" />
<polyline stroke="black" fill="none" points="612.213292513465,305.4506243622717 800.6254233578509,206.63021539095934" />
<polyline stroke="black" fill="none" points="612.213292513465,305.4506243622717 621.7697459839981,298.3185249807803" />
<polyline stroke="black" fill="none" points="800.6254233578509,206.63021539095934 984.926510014983,72.80293744180403" />
<polyline stroke="black" fill="none" points="740.1756432417682,220.40527516583768 984.926510014983,72.80293744180403" />
<polyline stroke="black" fill="none" points="855.8650447636019,150.42986307632253 846.1663945021376,123.67757754041946" />
<polyline stroke="black" fill="none" points="798.2997612663471,159.56319568621512 846.1663945021376,123.67757754041946" />
<polyline stroke="black" fill="none" points="797.7186257311065,157.65154666452446 846.1663945021376,123.67757754041946" />
<polyline stroke="black" fill="none" points="1022.432376881159,212.1742426534313 1023.2189581811081,211.9495059113213" />
<polyline stroke="black" fill="none" points="992.2993664322485,99.02553702423506 1023.625397505635,82.13397963031701" />
<polyline stroke="black" fill="none" points="988.0732110634001,83.86973286305687 1023.7419463438525,63.330260864537536" />
<polyline stroke="black" fill="none" points="987.6681434193479,82.41879857937414 1023.3913528711723,61.72147376907219" />
<polyline stroke="black" fill="none" points="986.5275318999784,76.72539349614169 1023.6457190457738,54.72280776717099" />
<polyline stroke="black" fill="none" points="985.6023290095314,73.7653351839329 1019.2786978496622,49.333469819414574" />
<polyline stroke="black" fill="none" points="1019.6405706750746,48.90934596145655 1019.1600324556055,46.9222363766022" />
<polyline stroke="black" fill="none" points="3.240530399030945,674.8776930173383 0.3128807985161757,676.7010949445689" />
<polyline stroke="black" fill="none" points="6.00417687913864,776.1584405017775 42.42356512242691,749.4998855260402" />
<polyline stroke="black" fill="none" points="6.00417687913864,776.1584405017775 0.3516558067640858,772.4268345725609" />
<polyline stroke="black" fill="none" points="104.20398294128364,697.9932290867823 42.42356512242691,749.4998855260402" />
<polyline stroke="black" fill="none" points="42.42356512242691,749.4998855260402 0.3865024739646401,720.2029206791746" />
<polyline stroke="black" fill="none" points="50.64701627983192,738.0700953122221 96.01567628477397,704.6750015952986" />
<polyline stroke="black" fill="none" points="50.64701627983192,738.0700953122221 0.12742961333947278,702.2289560397903" />
<polyline stroke="black" fill="none" points="260.92503994602464,567.2466329900369 96.01567628477397,704.6750015952986" />
<polyline stroke="black" fill="none" points="260.92503994602464,567.2466329900369 252.27703479916573,558.7267608222988" />
<polyline stroke="black" fill="none" points="96.01567628477397,704.6750015952986 29.078305394373103,653.8743189722439" />
<polyline stroke="black" fill="none" points="0.11885874502240767,677.4206911418953 29.078305394373103,653.8743189722439" />
<polyline stroke="black" fill="none" points="102.72721830150692,608.7531936420953 29.078305394373103,653.8743189722439" />
<polyline stroke="black" fill="none" points="143.30395030251452,642.3005878732351 176.27251946689904,617.3902106464867" />
<polyline stroke="black" fill="none" points="143.30395030251452,642.3005878732351 101.18546340634703,607.0977225029043" />
<polyline stroke="black" fill="none" points="303.3522524330558,519.2100760966462 176.27251946689904,617.3902106464867" />
<polyline stroke="black" fill="none" points="303.3522524330558,519.2100760966462 302.633650142482,518.4443857287155" />
<polyline stroke="black" fill="none" points="176.27251946689904,617.3902106464867 134.25135426446178,580.4981728064979" />
<polyline stroke="black" fill="none" points="101.18546340634703,607.0977225029043 134.25135426446178,580.4981728064979" />
<polyline stroke="black" fill="none" points="214.71471891884067,533.1068151567817 134.25135426446178,580.4981728064979" />
<polyline stroke="black" fill="none" points="244.6822854312406,562.0631412747591 283.4735678605208,532.6601063224638" />
<polyline stroke="black" fill="none" points="244.6822854312406,562.0631412747591 202.06902012761088,520.4730069560931" />
<polyline stroke="black" fill="none" points="355.93515717074513,477.2822191261685 283.4735678605208,532.6601063224638" />
<polyline stroke="black" fill="none" points="355.93515717074513,477.2822191261685 355.22623303208593,476.46166953772786" />
<polyline stroke="black" fill="none" points="283.4735678605208,532.6601063224638 241.17081297801434,488.87269702315285" />
<polyline stroke="black" fill="none" points="202.06902012761088,520.4730069560931 241.17081297801434,488.87269702315285" />
<polyline stroke="black" fill="none" points="277.27685248525404,471.4267292997706 241.17081297801434,488.87269702315285" />
<polyline stroke="black" fill="none" points="378.46028501437223,458.7467891029136 312.0649704313556,508.8318667238218" />
<polyline stroke="black" fill="none" points="378.46028501437223,458.7467891029136 379.7862116388152,457.7402226470529" />
<polyline stroke="black" fill="none" points="312.0649704313556,508.8318667238218 352.7233685426535,477.95819380688386" />
<polyline stroke="black" fill="none" points="312.0649704313556,508.8318667238218 271.7493308699341,465.1599531691378" />
<polyline stroke="black" fill="none" points="379.62319483074907,457.70071166168043 352.7233685426535,477.95819380688386" />
<polyline stroke="black" fill="none" points="352.7233685426535,477.95819380688386 312.8502549387257,431.9706687303524" />
<polyline stroke="black" fill="none" points="271.7493308699341,465.1599531691378 312.8502549387257,431.9706687303524" />
<polyline stroke="black" fill="none" points="358.7190501733003,414.9361751614575 312.8502549387257,431.9706687303524" />
<polyline stroke="black" fill="none" points="392.98403749380765,473.61342737729 442.08496167705545,437.1030743217059" />
<polyline stroke="black" fill="none" points="392.98403749380765,473.61342737729 349.9771701279534,421.8882604314648" />
<polyline stroke="black" fill="none" points="462.48746499247534,414.0227063557202 442.08496167705545,437.1030743217059" />
<polyline stroke="black" fill="none" points="462.48746499247534,414.0227063557202 433.57828309816006,374.93679171547365" />
<polyline stroke="black" fill="none" points="442.08496167705545,437.1030743217059 399.87039135246255,382.2117377570909" />
<polyline stroke="black" fill="none" points="349.9771701279534,421.8882604314648 399.87039135246255,382.2117377570909" />
<polyline stroke="black" fill="none" points="433.57828309816006,374.93679171547365 399.87039135246255,382.2117377570909" />
<polyline stroke="black" fill="none" points="539.2382014345725,330.41352577968644 571.5507543071906,297.67410072607663" />
<polyline stroke="black" fill="none" points="539.2382014345725,330.41352577968644 586.3858139502781,294.45819821525834" />
<polyline stroke="black" fill="none" points="539.2382014345725,330.41352577968644 506.722763600253,279.54601088990177" />
<polyline stroke="black" fill="none" points="571.5507543071906,297.67410072607663 679.8155291106257,214.63420349255915" />
<polyline stroke="black" fill="none" points="571.5507543071906,297.67410072607663 499.93490239787064,178.61945762530127" />
<polyline stroke="black" fill="none" points="586.3858139502781,294.45819821525834 679.8155291106257,214.63420349255915" />
<polyline stroke="black" fill="none" points="679.8155291106257,214.63420349255915 613.3200053333866,80.51021528102558" />
<polyline stroke="black" fill="none" points="506.722763600253,279.54601088990177 499.93490239787064,178.61945762530127" />
<polyline stroke="black" fill="none" points="499.93490239787064,178.61945762530127 613.3200053333866,80.51021528102558" />
<polyline stroke="black" fill="none" points="613.2968455541684,80.5736466827255 613.3200053333866,80.51021528102558" />
<polyline stroke="black" fill="none" points="621.7330538591755,297.98998672005405 608.9451557874124,275.402432410452" />
<polyline stroke="black" fill="none" points="671.5957466429303,270.71618597953716 654.0289775265485,236.98550160219122" />
<polyline stroke="black" fill="none" points="741.5782883742656,218.83266742665478 710.8959552431737,151.51286075911452" />
<polyline stroke="black" fill="none" points="666.1635509880977,186.70975771742076 710.8959552431737,151.51286075911452" />
<polyline stroke="black" fill="none" points="797.1466252808436,186.03354438720407 806.069115106978,179.45484473879486" />
<polyline stroke="black" fill="none" points="806.069115106978,179.45484473879486 776.41895589338,105.68528196558805" />
<polyline stroke="black" fill="none" points="713.2785589257153,155.18949881364722 776.41895589338,105.68528196558805" />
<polyline stroke="black" fill="none" points="855.0517125956944,147.3363978057654 1023.6207317759204,43.814669884537466" />
<polyline stroke="black" fill="none" points="731.0073157427466,141.27986366822773 873.4992630538998,0.26849217719626495" />
<polyline stroke="black" fill="none" points="83.6294042941729,611.1813067241148 0.05863409867845348,660.5721627721083" />
<polyline stroke="black" fill="none" points="83.6294042941729,611.1813067241148 93.25242123544416,603.3688218069732" />
<polyline stroke="black" fill="none" points="88.90902510277596,599.8322032869772 0.2774783603867945,650.4901908268888" />
<polyline stroke="black" fill="none" points="84.93741321210666,596.6313341221734 0.43617086538716876,643.8461164189442" />
<polyline stroke="black" fill="none" points="78.20452421278964,590.8706858059132 0.3845366390094114,632.6440444789723" />
<polyline stroke="black" fill="none" points="43.066303833295876,540.7428403406328 0.4835374484109707,557.3362379459246" />
<polyline stroke="black" fill="none" points="122.76066640058366,589.7383620421166 96.1481816699457,605.5816372570486" />
<polyline stroke="black" fill="none" points="192.58889753050522,546.1205294038078 212.0907433130717,530.5997406379569" />
<polyline stroke="black" fill="none" points="96.1481816699457,605.5816372570486 143.35469453063138,567.4144698014251" />
<polyline stroke="black" fill="none" points="96.1481816699457,605.5816372570486 31.163319925499366,551.3990277574096" />
<polyline stroke="black" fill="none" points="210.85848400512776,529.0700517671187 143.35469453063138,567.4144698014251" />
<polyline stroke="black" fill="none" points="211.54719414478194,512.5826198240043 206.315154151407,507.40207808123216" />
<polyline stroke="black" fill="none" points="143.35469453063138,567.4144698014251 78.40991119330505,509.32597013585416" />
<polyline stroke="black" fill="none" points="31.19366127687431,551.3868247844537 31.163319925499366,551.3990277574096" />
<polyline stroke="black" fill="none" points="31.163319925499366,551.3990277574096 78.40991119330505,509.32597013585416" />
<polyline stroke="black" fill="none" points="133.85781636717718,489.97574261751276 78.40991119330505,509.32597013585416" />
<polyline stroke="black" fill="none" points="227.10324701803546,497.0325993971899 170.46862856513917,524.668587663195" />
<polyline stroke="black" fill="none" points="227.10324701803546,497.0325993971899 264.66741975132936,466.59444222451356" />
<polyline stroke="black" fill="none" points="170.46862856513917,524.668587663195 214.0144532995431,488.83188827985117" />
<polyline stroke="black" fill="none" points="170.46862856513917,524.668587663195 116.89677068903109,473.88336005786965" />
<polyline stroke="black" fill="none" points="264.66741975132936,466.59444222451356 214.0144532995431,488.83188827985117" />
<polyline stroke="black" fill="none" points="264.66741975132936,466.59444222451356 262.07562897548723,463.80728649083534" />
<polyline stroke="black" fill="none" points="214.0144532995431,488.83188827985117 210.75364874257554,485.53244270313576" />
<polyline stroke="black" fill="none" points="116.89677068903109,473.88336005786965 144.1707856542797,449.5728676357004" />
<polyline stroke="black" fill="none" points="210.5712230564311,485.5256937130805 189.86666888257372,494.2843903537066" />
<polyline stroke="black" fill="none" points="262.2202759686835,463.58067491634466 275.08522228050685,453.11430314588625" />
<polyline stroke="black" fill="none" points="189.86666888257372,494.2843903537066 232.32109214681492,458.9266901724948" />
<polyline stroke="black" fill="none" points="189.86666888257372,494.2843903537066 134.80242920267636,439.9038179986967" />
<polyline stroke="black" fill="none" points="182.41949480918197,399.3138330989868 181.16409865467136,397.9852532126802" />
<polyline stroke="black" fill="none" points="134.80242920267636,439.9038179986967 181.16409865467136,397.9852532126802" />
<polyline stroke="black" fill="none" points="184.7993157812984,397.5460232479012 181.16409865467136,397.9852532126802" />
<polyline stroke="black" fill="none" points="298.13980309935346,443.81728839569985 240.17537999790233,467.0739738933805" />
<polyline stroke="black" fill="none" points="328.26308428833875,426.16181076302297 355.92579386735986,403.93881110230785" />
<polyline stroke="black" fill="none" points="240.17537999790233,467.0739738933805 295.15082282697375,421.8227857156818" />
<polyline stroke="black" fill="none" points="240.17537999790233,467.0739738933805 179.10496128444572,402.78656747923077" />
<polyline stroke="black" fill="none" points="355.92579386735986,403.93881110230785 295.15082282697375,421.8227857156818" />
<polyline stroke="black" fill="none" points="355.92579386735986,403.93881110230785 327.9380719850226,369.61807854239555" />
<polyline stroke="black" fill="none" points="295.15082282697375,421.8227857156818 234.689864061714,352.641392764554" />
<polyline stroke="black" fill="none" points="179.15689438874358,402.77958237978845 179.10496128444572,402.78656747923077" />
<polyline stroke="black" fill="none" points="179.10496128444572,402.78656747923077 234.689864061714,352.641392764554" />
<polyline stroke="black" fill="none" points="272.3011036850918,353.3697425572758 234.689864061714,352.641392764554" />
<polyline stroke="black" fill="none" points="380.3947243689812,366.0956812211131 287.9286326359219,371.7755961262298" />
<polyline stroke="black" fill="none" points="380.3947243689812,366.0956812211131 413.34605726312407,339.2610714450208" />
<polyline stroke="black" fill="none" points="287.9286326359219,371.7755961262298 341.6427234091278,325.6329005108343" />
<polyline stroke="black" fill="none" points="287.9286326359219,371.7755961262298 232.4691565255202,306.27280717613564" />
<polyline stroke="black" fill="none" points="413.34605726312407,339.2610714450208 341.6427234091278,325.6329005108343" />
<polyline stroke="black" fill="none" points="413.34605726312407,339.2610714450208 384.36689156621503,299.8413409893513" />
<polyline stroke="black" fill="none" points="341.6427234091278,325.6329005108343 286.89808147788847,255.41883616581777" />
<polyline stroke="black" fill="none" points="232.4691565255202,306.27280717613564 286.89808147788847,255.41883616581777" />
<polyline stroke="black" fill="none" points="384.36689156621503,299.8413409893513 286.89808147788847,255.41883616581777" />
<polyline stroke="black" fill="none" points="443.7173925321133,312.7960546784697 371.05301255430555,264.67901523046004" />
<polyline stroke="black" fill="none" points="443.7173925321133,312.7960546784697 487.3300526731464,277.23511971572464" />
<polyline stroke="black" fill="none" points="371.05301255430555,264.67901523046004 459.6600126570521,186.63551674565866" />
<polyline stroke="black" fill="none" points="371.05301255430555,264.67901523046004 289.9262795756448,153.0071455296375" />
<polyline stroke="black" fill="none" points="487.3300526731464,277.23511971572464 459.6600126570521,186.63551674565866" />
<polyline stroke="black" fill="none" points="459.6600126570521,186.63551674565866 381.0394026231599,62.064180286053045" />
<polyline stroke="black" fill="none" points="289.9262795756448,153.0071455296375 381.0394026231599,62.064180286053045" />
<polyline stroke="black" fill="none" points="488.1222957385437,252.7953194711272 474.5715445495256,193.08442227296638" />
<polyline stroke="black" fill="none" points="488.1222957385437,252.7953194711272 503.726467320214,239.860864061994" />
<polyline stroke="black" fill="none" points="488.1222957385437,252.7953194711272 472.4599115088678,228.33231254227383" />
<polyline stroke="black" fill="none" points="474.5715445495256,193.08442227296638 522.2252485369314,151.64660023881981" />
<polyline stroke="black" fill="none" points="474.5715445495256,193.08442227296638 437.97257870699156,134.43083041825372" />
<polyline stroke="black" fill="none" points="521.8396300028859,159.42911567998095 522.2252485369314,151.64660023881981" />
<polyline stroke="black" fill="none" points="522.2252485369314,151.64660023881981 486.4813271982677,89.68067081368525" />
<polyline stroke="black" fill="none" points="450.33484521780184,171.76786798236577 437.97257870699156,134.43083041825372" />
<polyline stroke="black" fill="none" points="437.97257870699156,134.43083041825372 486.4813271982677,89.68067081368525" />
<polyline stroke="black" fill="none" points="486.48504082384864,89.71971988473769 486.4813271982677,89.68067081368525" />
<polyline stroke="black" fill="none" points="616.9521082981705,87.72067423705937 645.0810981783904,15.278016215842285" />
<polyline stroke="black" fill="none" points="645.0810981783904,15.278016215842285 661.7050265260252,0.5661645101118893" />
<polyline stroke="black" fill="none" points="645.0810981783904,15.278016215842285 638.1289029273128,0.09741967103281013" />
<polyline stroke="black" fill="none" points="635.0710381289005,124.36374706856213 700.4060997821132,0.3264859331018215" />
<polyline stroke="black" fill="none" points="552.3900937056911,133.08990569368336 576.2331870152607,0.31407916151863446" />
<polyline stroke="black" fill="none" points="642.5727900484197,139.44100730414533 675.451635097796,112.43953453141438" />
<polyline stroke="black" fill="none" points="644.4513157293723,106.84549036489682 722.9065140105278,41.14265888861968" />
<polyline stroke="black" fill="none" points="675.451635097796,112.43953453141438 722.9065140105278,41.14265888861968" />
<polyline stroke="black" fill="none" points="722.9065140105278,41.14265888861968 705.93657430148,0.5878119443995047" />
<polyline stroke="black" fill="none" points="715.4996493834893,89.56471141777774 783.2173815472739,0.23476865072893816" />
<polyline stroke="black" fill="none" points="715.4996493834893,89.56471141777774 778.1626621380763,38.41920252425217" />
<polyline stroke="black" fill="none" points="715.4996493834893,89.56471141777774 705.6999423180291,67.06316686311249" />
<polyline stroke="black" fill="none" points="782.5247778764428,49.15929831666284 825.5299859082323,0.0611860421291226" />
<polyline stroke="black" fill="none" points="782.5247778764428,49.15929831666284 842.9204578737649,0.28505499028875647" />
<polyline stroke="black" fill="none" points="782.5247778764428,49.15929831666284 778.4934364961699,38.67684651522512" />
<polyline stroke="black" fill="none" points="48.973512925969544,535.5302114896349 0.28588253377921546,554.1964488651281" />
<polyline stroke="black" fill="none" points="51.889455655073164,532.611625868417 40.193728396467066,522.5520401609134" />
<polyline stroke="black" fill="none" points="58.62400464979311,516.0881966282777 0.2478562292004085,536.4419539717534" />
<polyline stroke="black" fill="none" points="58.62400464979311,516.0881966282777 85.9704494662439,491.51283897949696" />
<polyline stroke="black" fill="none" points="85.9704494662439,491.51283897949696 0.25792739259634345,518.371846771866" />
<polyline stroke="black" fill="none" points="85.9704494662439,491.51283897949696 81.86192157017518,487.7624492859515" />
<polyline stroke="black" fill="none" points="119.22922273549847,476.2897742050608 0.25151704729137236,512.1184838542008" />
<polyline stroke="black" fill="none" points="142.56194399415148,447.9114265309286 0.5521892419518508,482.4683902421317" />
<polyline stroke="black" fill="none" points="170.77913901573845,407.1284638557447 162.81907876036018,398.8325082651501" />
<polyline stroke="black" fill="none" points="186.35264748916165,396.01156808810333 0.6343609580297311,417.6831575469561" />
<polyline stroke="black" fill="none" points="206.02370012063557,378.3722654496248 0.08738582469112544,392.07596703838516" />
<polyline stroke="black" fill="none" points="257.04577782083936,335.50904610787256 0.9815536912514062,312.90855877657" />
<polyline stroke="black" fill="none" points="222.20689504136698,276.59590600304807 0.5468342421842749,214.32182393590313" />
<polyline stroke="black" fill="none" points="254.1468287112167,285.7160040492789 222.5953499255271,276.86976104858877" />
<polyline stroke="black" fill="none" points="358.68634322161927,287.9662166313647 379.1713327673965,270.07923644955787" />
<polyline stroke="black" fill="none" points="222.5953499255271,276.86976104858877 302.9144115721663,199.74831816405253" />
<polyline stroke="black" fill="none" points="222.5953499255271,276.86976104858877 130.32588947226378,166.52556259948904" />
<polyline stroke="black" fill="none" points="349.3423034242227,234.89100253526158 302.9144115721663,199.74831816405253" />
<polyline stroke="black" fill="none" points="302.9144115721663,199.74831816405253 295.57303235510096,189.83225813086432" />
<polyline stroke="black" fill="none" points="130.32588947226378,166.52556259948904 172.45361668652492,120.09257231651958" />
<polyline stroke="black" fill="none" points="282.40850938340446,201.39924194520313 184.94662919903624,134.91711195801258" />
<polyline stroke="black" fill="none" points="184.94662919903624,134.91711195801258 292.5342088671704,18.448140849940728" />
<polyline stroke="black" fill="none" points="184.94662919903624,134.91711195801258 79.45574171098917,0.49239621056113947" />
<polyline stroke="black" fill="none" points="344.18033995530544,98.35643521648677 292.5342088671704,18.448140849940728" />
<polyline stroke="black" fill="none" points="292.5342088671704,18.448140849940728 280.398697561571,0.2584603936732037" />
<polyline stroke="black" fill="none" points="449.7437200970978,123.4233133233788 434.24633805933786,65.02753797478039" />
<polyline stroke="black" fill="none" points="439.65913305862375,139.8766608973466 437.56400596144573,136.52485831134004" />
<polyline stroke="black" fill="none" points="434.24633805933786,65.02753797478039 491.54989063019354,9.715673857211698" />
<polyline stroke="black" fill="none" points="434.24633805933786,65.02753797478039 395.69414773594235,0.766669837450138" />
<polyline stroke="black" fill="none" points="497.3435377715986,108.39013320413096 491.54989063019354,9.715673857211698" />
<polyline stroke="black" fill="none" points="491.54989063019354,9.715673857211698 486.29758773094966,0.10896957034537991" />
<polyline stroke="black" fill="none" points="437.56400596144573,136.52485831134004 391.7231758867135,0.12398734082995588" />
<polyline stroke="black" fill="none" points="533.5333272567634,149.38183241265915 548.9320238002833,0.18863614758492986" />
<polyline stroke="black" fill="none" points="530.943624519045,151.69399814310373 496.4804315944275,91.36527605273716" />
<polyline stroke="black" fill="none" points="219.16213929715815,275.4802544082903 220.26062631009358,274.4220444645076" />
<polyline stroke="black" fill="none" points="108.27667689718993,244.2290959887464 132.14804175689437,218.8426776670699" />
<polyline stroke="black" fill="none" points="192.27004326241592,240.8699748408318 132.14804175689437,218.8426776670699" />
<polyline stroke="black" fill="none" points="132.14804175689437,218.8426776670699 47.67011225526261,121.10136076085195" />
<polyline stroke="black" fill="none" points="0.09454413666571782,178.46613798972658 47.67011225526261,121.10136076085195" />
<polyline stroke="black" fill="none" points="132.28041352945155,164.27119359205182 47.67011225526261,121.10136076085195" />
<polyline stroke="black" fill="none" points="155.96178803727645,138.14222809147225 105.1320565855076,74.9840388229926" />
<polyline stroke="black" fill="none" points="105.1320565855076,74.9840388229926 122.00181219849048,54.927237984764986" />
<polyline stroke="black" fill="none" points="349.01753637014906,93.74862125323313 291.3793339210551,0.292916704668869" />
<polyline stroke="black" fill="none" points="371.5969761318272,71.26249088971258 336.8289248556106,0.2547149401240745" />
<polyline stroke="black" fill="none" points="389.63474227097157,75.61760048027139 410.0915843211446,55.47167516006863" />
<polyline stroke="black" fill="none" points="370.00285234937735,72.31703968551153 349.41500597786285,40.23952883777548" />
<polyline stroke="black" fill="none" points="349.41500597786285,40.23952883777548 328.8730777977036,0.09037267565275897" />
<polyline stroke="black" fill="none" points="16.81930311957109,157.7165469936187 0.20709672018915626,150.9970965451745" />
<polyline stroke="black" fill="none" points="144.0562367305717,150.79111951588413 0.11786421885113896,69.72717322248803" />
<polyline stroke="black" fill="none" points="150.6029531748295,143.83085226385845 118.2608318812654,103.9585546848968" />
<polyline stroke="black" fill="none" points="118.2608318812654,103.9585546848968 0.2276395685519219,27.799792538761437" />
<polyline stroke="black" fill="none" points="111.65818398721217,83.31836280418082 108.94848616850913,81.45911269068444" />
<polyline stroke="black" fill="none" points="108.94848616850913,81.45911269068444 109.32129840662134,81.01884457931413" />
<polyline stroke="black" fill="none" points="108.94848616850913,81.45911269068444 43.81228227618959,0.610500391995572" />
<polyline stroke="black" fill="none" points="112.92035893702393,100.16376469100459 119.240698862626,92.80671235857648" />
<polyline stroke="black" fill="none" points="49.72619320053934,7.983968168421484 39.77015579318828,0.44538869038694884" />
</g></svg>
