<svg width="1024" height="1024" version="1.1" baseProfile="full" xmlns="http://www.w3.org/2000/svg">
<g transform="translate(0,1024) scale(1,-1)">
<polyline stroke="black" fill="none" points="975.8558287974595,998.6420196005608 994.0566513145811,1023.7791430467919" />
<polyline stroke="black" fill="none" points="995.0520442215338,1023.9204432563888 993.2502377281446,1021.0189740212413" />
<polyline stroke="black" fill="none" points="976.5049557172351,997.9493832067758 993.2502377281446,1021.0189740212413" />
<polyline stroke="black" fill="none" points="993.2502377281446,1021.0189740212413 1018.775467714871,1013.2436858384054" />
<polyline stroke="black" fill="none" points="973.9976599074103,998.7024509435394 1001.1945563075919,990.0764933339664" />
<polyline stroke="black" fill="none" points="958.1087058768871,976.8710924264121 984.1145149245801,968.309363988011" />
<polyline stroke="black" fill="none" points="902.2593191244348,1023.9353781439877 900.597123976069,1021.7371272284679" />
<polyline stroke="black" fill="none" points="893.1060352407453,883.9951447910864 923.0417196014936,925.3108863725113" />
<polyline stroke="black" fill="none" points="923.0417196014936,925.3108863725113 944.8115468252059,917.517483132305" />
<polyline stroke="black" fill="none" points="923.0417196014936,925.3108863725113 907.3821379320784,900.6391525972017" />
<polyline stroke="black" fill="none" points="894.5234918079517,882.9917793969161 907.3821379320784,900.6391525972017" />
<polyline stroke="black" fill="none" points="907.3821379320784,900.6391525972017 911.3514321897464,899.1630005635697" />
<polyline stroke="black" fill="none" points="624.0163477882458,1021.2209428971912 624.401698002392,1023.5024659195306" />
<polyline stroke="black" fill="none" points="607.8077500373305,1003.9284466145475 610.7830792803779,1023.9875273259404" />
<polyline stroke="black" fill="none" points="891.4054727536402,884.1210710102494 898.0492947171003,881.5812627162136" />
<polyline stroke="black" fill="none" points="839.7189499269309,812.807191429041 843.1290417284941,811.3564114619958" />
<polyline stroke="black" fill="none" points="881.1119579300836,870.250799950956 887.8354611504383,867.6248942555723" />
<polyline stroke="black" fill="none" points="602.2229445554893,1003.8075631649132 605.0296940465372,1023.8976588959388" />
<polyline stroke="black" fill="none" points="587.2383826307741,1009.6817429730652 588.8030040537299,1023.233564367721" />
<polyline stroke="black" fill="none" points="627.4435028798266,1023.8924530806817 616.0116714394246,1014.0057470402207" />
<polyline stroke="black" fill="none" points="615.4036704795981,1010.1711284086164 616.0116714394246,1014.0057470402207" />
<polyline stroke="black" fill="none" points="616.0116714394246,1014.0057470402207 641.0944009192815,1004.7442423716562" />
<polyline stroke="black" fill="none" points="773.4603937426307,964.7113590175646 798.8365459683494,1023.59487152534" />
<polyline stroke="black" fill="none" points="908.1485240997895,1023.8355638787189 906.5085234417787,1021.641463848852" />
<polyline stroke="black" fill="none" points="989.4236398886403,1023.8266223180447 974.5104806950949,1000.1213929859216" />
<polyline stroke="black" fill="none" points="906.0592945023882,1020.8857849761612 906.5085234417787,1021.641463848852" />
<polyline stroke="black" fill="none" points="906.5085234417787,1021.641463848852 974.5104806950949,1000.1213929859216" />
<polyline stroke="black" fill="none" points="839.194559879156,812.260389911518 974.5104806950949,1000.1213929859216" />
<polyline stroke="black" fill="none" points="941.997127893997,913.2489071721827 1023.958467512133,1019.0821640420817" />
<polyline stroke="black" fill="none" points="944.4239798680362,912.5065373241688 1023.2606110308138,1013.5983309448809" />
<polyline stroke="black" fill="none" points="979.3770456554391,899.9123903741037 1023.5260414996613,951.1009918984279" />
<polyline stroke="black" fill="none" points="493.6714360007352,1023.7555863510433 489.5730320470181,1020.7215573841163" />
<polyline stroke="black" fill="none" points="490.3058956004051,999.0656651579145 489.5730320470181,1020.7215573841163" />
<polyline stroke="black" fill="none" points="489.5730320470181,1020.7215573841163 514.8590130043926,1010.8108058994818" />
<polyline stroke="black" fill="none" points="577.5146103674193,1023.8379478218999 580.3248972947947,1022.7936182356136" />
<polyline stroke="black" fill="none" points="524.1859634631538,1023.9516167426145 514.9068064156688,1016.8507230423161" />
<polyline stroke="black" fill="none" points="579.2020879217671,1011.8689984911144 580.3248972947947,1022.7936182356136" />
<polyline stroke="black" fill="none" points="580.3248972947947,1022.7936182356136 571.1139719785631,1015.261831412347" />
<polyline stroke="black" fill="none" points="514.7853432747768,989.3206222334336 514.9068064156688,1016.8507230423161" />
<polyline stroke="black" fill="none" points="514.9068064156688,1016.8507230423161 546.8176280625911,1004.4516699032284" />
<polyline stroke="black" fill="none" points="617.2750815000727,1011.7605020333002 640.4500778039594,1003.1815701113908" />
<polyline stroke="black" fill="none" points="617.2750815000727,1011.7605020333002 606.0681368517929,1002.0217724992783" />
<polyline stroke="black" fill="none" points="637.5623912041157,988.0058738356245 630.8695440346638,981.8365307305512" />
<polyline stroke="black" fill="none" points="624.4483570557354,984.2975871042686 630.8695440346638,981.8365307305512" />
<polyline stroke="black" fill="none" points="619.7785819866726,923.6313858228687 630.8695440346638,981.8365307305512" />
<polyline stroke="black" fill="none" points="624.5431474849518,921.7876526101766 644.7920440008554,1023.2229149139451" />
<polyline stroke="black" fill="none" points="734.4233330752554,878.9016329594726 734.9607301677714,878.6787125956616" />
<polyline stroke="black" fill="none" points="734.4233330752554,878.9016329594726 714.4829787720798,854.7632230041645" />
<polyline stroke="black" fill="none" points="710.8200780106225,845.7770255335247 714.4829787720798,854.7632230041645" />
<polyline stroke="black" fill="none" points="714.4829787720798,854.7632230041645 723.2793440010556,850.9707423629776" />
<polyline stroke="black" fill="none" points="893.345726831763,1023.8977656603095 944.2672747463912,1007.7380764461009" />
<polyline stroke="black" fill="none" points="926.9364342589392,981.688668560276 944.2672747463912,1007.7380764461009" />
<polyline stroke="black" fill="none" points="944.2672747463912,1007.7380764461009 926.0058575241446,980.8416627618636" />
<polyline stroke="black" fill="none" points="990.0514242203419,895.8636049268298 1023.2544220300645,933.2200466131842" />
<polyline stroke="black" fill="none" points="973.66549332478,864.9193865966088 1023.6799597092432,919.8351744183681" />
<polyline stroke="black" fill="none" points="487.3903703262644,1000.3819395231619 486.48607394335784,1023.9862446340032" />
<polyline stroke="black" fill="none" points="451.0141471310501,979.633149238027 446.741882981395,1023.1798324485771" />
<polyline stroke="black" fill="none" points="470.6725865660225,992.1158575001868 468.6313074487157,1023.4360816781116" />
<polyline stroke="black" fill="none" points="613.9524291879585,925.6637292363273 648.1120076820265,911.4356205871576" />
<polyline stroke="black" fill="none" points="647.5032838089301,908.5657390945487 624.7278309073944,884.964475606847" />
<polyline stroke="black" fill="none" points="614.3402403110791,889.4895632735481 624.7278309073944,884.964475606847" />
<polyline stroke="black" fill="none" points="613.6771159080481,833.3072548264862 624.7278309073944,884.964475606847" />
<polyline stroke="black" fill="none" points="701.9977994198036,849.958282832307 768.8993992318893,1023.1814603804248" />
<polyline stroke="black" fill="none" points="627.6463279705076,827.7739294863557 675.8698937371835,1023.6609649525758" />
<polyline stroke="black" fill="none" points="860.9430353404092,987.1407175884733 881.3302812951725,1023.8980375570181" />
<polyline stroke="black" fill="none" points="777.8996849629848,969.8879439982009 800.8915037188156,1022.7956819006325" />
<polyline stroke="black" fill="none" points="810.747858123735,906.8577925717952 874.2056480972956,1023.4396115951045" />
<polyline stroke="black" fill="none" points="867.1602405644632,996.8402358444641 892.47079620218,988.3893201661626" />
<polyline stroke="black" fill="none" points="846.549263651732,967.4854139371747 871.7786875526024,958.6297654064618" />
<polyline stroke="black" fill="none" points="843.1064210031075,810.4865511449912 883.9297925680412,866.2739154814634" />
<polyline stroke="black" fill="none" points="883.9297925680412,866.2739154814634 886.1590946835711,865.4002715820767" />
<polyline stroke="black" fill="none" points="883.9297925680412,866.2739154814634 869.1860412334354,843.1159490644911" />
<polyline stroke="black" fill="none" points="844.575205267251,809.6912821394423 869.1860412334354,843.1159490644911" />
<polyline stroke="black" fill="none" points="937.2619901416222,807.0023568217706 1023.4763846433145,898.0273491243429" />
<polyline stroke="black" fill="none" points="947.2510918687075,802.6892402455084 1023.2155094565486,880.2988806483892" />
<polyline stroke="black" fill="none" points="378.3621318992069,962.1768595419423 364.71095533953087,1023.8926534564848" />
<polyline stroke="black" fill="none" points="450.1838747187224,980.653699706821 445.95843219039216,1023.2144158645945" />
<polyline stroke="black" fill="none" points="407.2743293917576,980.1224079621268 400.0304494918166,1023.1538463404844" />
<polyline stroke="black" fill="none" points="428.149862987308,989.7077301226029 423.7312539812847,1022.995909130457" />
<polyline stroke="black" fill="none" points="483.8279169937669,1001.6468761389931 520.901454876031,986.6653732746845" />
<polyline stroke="black" fill="none" points="483.8279169937669,1001.6468761389931 455.3677768727941,980.1280993321989" />
<polyline stroke="black" fill="none" points="519.1457538026792,984.4840397435473 493.6162851526012,963.9400511480616" />
<polyline stroke="black" fill="none" points="455.5796439896575,977.8006957885611 455.3677768727941,980.1280993321989" />
<polyline stroke="black" fill="none" points="455.3677768727941,980.1280993321989 493.6162851526012,963.9400511480616" />
<polyline stroke="black" fill="none" points="495.66805363320685,896.3136229377948 493.6162851526012,963.9400511480616" />
<polyline stroke="black" fill="none" points="536.6195559221107,998.7230631732893 539.0284829746856,997.7741489974883" />
<polyline stroke="black" fill="none" points="536.6195559221107,998.7230631732893 519.5025276100397,984.9521402477806" />
<polyline stroke="black" fill="none" points="518.9114412999019,935.5586542893652 519.5025276100397,984.9521402477806" />
<polyline stroke="black" fill="none" points="519.5025276100397,984.9521402477806 522.5439744800339,983.7192131576287" />
<polyline stroke="black" fill="none" points="611.979928450088,913.8899054328473 618.2363251651266,911.2421396272434" />
<polyline stroke="black" fill="none" points="600.4664889254695,818.7048956621721 618.2363251651266,911.2421396272434" />
<polyline stroke="black" fill="none" points="618.2363251651266,911.2421396272434 609.4796529170127,902.5277616364411" />
<polyline stroke="black" fill="none" points="756.9325487464218,1023.85370565681 760.1453129297389,1022.765485574914" />
<polyline stroke="black" fill="none" points="692.1831373129357,1023.6266470499744 683.7186665586174,1015.6533216521103" />
<polyline stroke="black" fill="none" points="695.3379246996161,849.1536409913035 760.1453129297389,1022.765485574914" />
<polyline stroke="black" fill="none" points="760.1453129297389,1022.765485574914 735.5768890585368,997.2123804434515" />
<polyline stroke="black" fill="none" points="633.8453255392797,824.6502564177788 683.7186665586174,1015.6533216521103" />
<polyline stroke="black" fill="none" points="683.7186665586174,1015.6533216521103 735.5768890585368,997.2123804434515" />
<polyline stroke="black" fill="none" points="664.560301864988,794.1777075010559 735.5768890585368,997.2123804434515" />
<polyline stroke="black" fill="none" points="789.5377880266226,983.0054927709166 833.5946653476822,967.4452710959702" />
<polyline stroke="black" fill="none" points="789.5377880266226,983.0054927709166 770.4542145585974,961.0332275421952" />
<polyline stroke="black" fill="none" points="803.2694161604127,909.9778096110803 833.5946653476822,967.4452710959702" />
<polyline stroke="black" fill="none" points="833.5946653476822,967.4452710959702 815.4501433937148,944.5083700869345" />
<polyline stroke="black" fill="none" points="719.5787453669916,842.3313130039816 770.4542145585974,961.0332275421952" />
<polyline stroke="black" fill="none" points="770.4542145585974,961.0332275421952 815.4501433937148,944.5083700869345" />
<polyline stroke="black" fill="none" points="792.4366942580815,900.0288576549401 815.4501433937148,944.5083700869345" />
<polyline stroke="black" fill="none" points="894.8154634917905,991.0570333924647 951.0536352290563,972.369342761865" />
<polyline stroke="black" fill="none" points="894.8154634917905,991.0570333924647 875.4648832713358,964.6196224853973" />
<polyline stroke="black" fill="none" points="951.0536352290563,972.369342761865 933.3034875044148,944.5143000074871" />
<polyline stroke="black" fill="none" points="835.3589328004607,897.6844276788397 875.4648832713358,964.6196224853973" />
<polyline stroke="black" fill="none" points="723.6668116484104,673.2436514887124 734.422297584686,667.6488916296962" />
<polyline stroke="black" fill="none" points="875.4648832713358,964.6196224853973 933.3034875044148,944.5143000074871" />
<polyline stroke="black" fill="none" points="734.422297584686,667.6488916296962 933.3034875044148,944.5143000074871" />
<polyline stroke="black" fill="none" points="845.4682882291773,809.8339183458107 925.6830530112346,918.5183875830737" />
<polyline stroke="black" fill="none" points="925.6830530112346,918.5183875830737 989.7510655220285,895.4120509214837" />
<polyline stroke="black" fill="none" points="925.6830530112346,918.5183875830737 905.1955435917209,885.7875977696388" />
<polyline stroke="black" fill="none" points="989.7510655220285,895.4120509214837 971.3683882315045,860.7019763509043" />
<polyline stroke="black" fill="none" points="847.7465958828566,808.6753865903993 905.1955435917209,885.7875977696388" />
<polyline stroke="black" fill="none" points="905.1955435917209,885.7875977696388 971.3683882315045,860.7019763509043" />
<polyline stroke="black" fill="none" points="926.6736720016451,811.7921995194138 971.3683882315045,860.7019763509043" />
<polyline stroke="black" fill="none" points="959.4647085721142,797.32218350566 1023.9816803351933,860.66347125478" />
<polyline stroke="black" fill="none" points="968.868954449667,794.3046394121753 1023.7129700390354,846.6786604993224" />
<polyline stroke="black" fill="none" points="963.8849175750324,736.004778431829 1023.9335882313705,786.234359434207" />
<polyline stroke="black" fill="none" points="984.7234411649131,726.6841726176225 1023.1915395415814,756.6850842704314" />
<polyline stroke="black" fill="none" points="1000.8300001704467,715.340165707395 1023.5270299739616,731.9314099643088" />
<polyline stroke="black" fill="none" points="1015.8736799583647,660.0903249798153 1023.8782352466103,664.8891589802575" />
<polyline stroke="black" fill="none" points="364.60819693938663,985.4906032594477 355.6938484737553,1023.4409281672499" />
<polyline stroke="black" fill="none" points="298.47471339573576,983.9747233953232 284.9978686820474,1023.4829635478416" />
<polyline stroke="black" fill="none" points="322.7125802386752,999.7936055892322 315.6925789917704,1023.5950327578976" />
<polyline stroke="black" fill="none" points="423.45313721216763,991.1697666297829 423.4482534314956,991.2046883164157" />
<polyline stroke="black" fill="none" points="423.4482534314956,991.2046883164157 452.05053962251856,979.0581681322133" />
<polyline stroke="black" fill="none" points="423.4482534314956,991.2046883164157 399.69654496065806,974.0839329883004" />
<polyline stroke="black" fill="none" points="452.0539017589235,979.0233380706034 452.05053962251856,979.0581681322133" />
<polyline stroke="black" fill="none" points="403.3658636978509,953.9548471300396 399.69654496065806,974.0839329883004" />
<polyline stroke="black" fill="none" points="399.69654496065806,974.0839329883004 421.08810184060064,964.6511426114544" />
<polyline stroke="black" fill="none" points="500.45957465068653,900.046488575595 502.05315685125015,899.3171463459598" />
<polyline stroke="black" fill="none" points="500.45957465068653,900.046488575595 486.73421783871805,887.9672434835549" />
<polyline stroke="black" fill="none" points="487.04136533475673,881.7032968827846 502.2531020649677,874.5293661689741" />
<polyline stroke="black" fill="none" points="563.8447407031655,1017.6604725563798 625.8145021561969,994.2516270708202" />
<polyline stroke="black" fill="none" points="563.8447407031655,1017.6604725563798 522.7279600635736,984.4391852104525" />
<polyline stroke="black" fill="none" points="592.9567538278094,810.5719071078182 625.8145021561969,994.2516270708202" />
<polyline stroke="black" fill="none" points="625.8145021561969,994.2516270708202 586.3160690819024,958.6903172668274" />
<polyline stroke="black" fill="none" points="521.933282118144,938.0363078324868 522.7279600635736,984.4391852104525" />
<polyline stroke="black" fill="none" points="522.7279600635736,984.4391852104525 586.3160690819024,958.6903172668274" />
<polyline stroke="black" fill="none" points="563.5409012426956,774.6041619779891 586.3160690819024,958.6903172668274" />
<polyline stroke="black" fill="none" points="614.3658534367814,833.6922691368749 660.9767503557381,812.007957958777" />
<polyline stroke="black" fill="none" points="614.3658534367814,833.6922691368749 586.1450742347838,803.0309588117823" />
<polyline stroke="black" fill="none" points="656.5087398902739,798.3920035452097 660.9767503557381,812.007957958777" />
<polyline stroke="black" fill="none" points="660.9767503557381,812.007957958777 651.2565808317652,800.5227797993" />
<polyline stroke="black" fill="none" points="585.842084332494,801.2124107223697 586.1450742347838,803.0309588117823" />
<polyline stroke="black" fill="none" points="586.1450742347838,803.0309588117823 586.7281588652979,802.7459445738365" />
<polyline stroke="black" fill="none" points="697.4071810994271,851.3902202443021 732.0444456414731,836.2677079549965" />
<polyline stroke="black" fill="none" points="697.4071810994271,851.3902202443021 679.4391370145374,830.0685968577786" />
<polyline stroke="black" fill="none" points="707.5123971250529,782.9484664547317 732.0444456414731,836.2677079549965" />
<polyline stroke="black" fill="none" points="732.0444456414731,836.2677079549965 714.6272051452862,814.1793017907121" />
<polyline stroke="black" fill="none" points="666.4933289931865,793.5707992857031 679.4391370145374,830.0685968577786" />
<polyline stroke="black" fill="none" points="679.4391370145374,830.0685968577786 714.6272051452862,814.1793017907121" />
<polyline stroke="black" fill="none" points="701.9989921350992,785.7498351610188 714.6272051452862,814.1793017907121" />
<polyline stroke="black" fill="none" points="845.4327556980354,864.7774327084837 850.6532822502948,862.690641392616" />
<polyline stroke="black" fill="none" points="716.8014657165688,663.2175670800423 850.6532822502948,862.690641392616" />
<polyline stroke="black" fill="none" points="850.6532822502948,862.690641392616 831.4289873317421,834.1346602471885" />
<polyline stroke="black" fill="none" points="826.0819947421297,836.3641898255951 831.4289873317421,834.1346602471885" />
<polyline stroke="black" fill="none" points="716.6460951037423,663.0456599890294 831.4289873317421,834.1346602471885" />
<polyline stroke="black" fill="none" points="732.420408647818,664.4681361634956 838.5945258609313,812.0849392606428" />
<polyline stroke="black" fill="none" points="732.420408647818,664.4681361634956 727.7253610594007,657.3400851762715" />
<polyline stroke="black" fill="none" points="838.5945258609313,812.0849392606428 865.7975581163016,800.4962719917849" />
<polyline stroke="black" fill="none" points="838.5945258609313,812.0849392606428 810.4118355251275,768.6413355306943" />
<polyline stroke="black" fill="none" points="729.0539818186817,656.6888157589539 810.4118355251275,768.6413355306943" />
<polyline stroke="black" fill="none" points="714.6853383967433,628.4595154727003 724.1053794304478,623.3247572757209" />
<polyline stroke="black" fill="none" points="810.4118355251275,768.6413355306943 832.3428603748299,758.7142124034813" />
<polyline stroke="black" fill="none" points="959.9821005069389,736.9713642155566 1001.8829256463425,718.6817473486434" />
<polyline stroke="black" fill="none" points="935.1436614541619,709.8041157516483 934.9448863660093,709.3950713838226" />
<polyline stroke="black" fill="none" points="1001.8829256463425,718.6817473486434 987.8039239666958,685.3993895647488" />
<polyline stroke="black" fill="none" points="863.6280655087633,650.1449054908894 934.9448863660093,709.3950713838226" />
<polyline stroke="black" fill="none" points="934.9448863660093,709.3950713838226 987.8039239666958,685.3993895647488" />
<polyline stroke="black" fill="none" points="896.2503137219668,622.4038237181602 987.8039239666958,685.3993895647488" />
<polyline stroke="black" fill="none" points="976.9229169932414,677.1179531080895 1023.2681916537524,655.8066091935369" />
<polyline stroke="black" fill="none" points="963.8820436507696,668.8608192386002 951.2618269022705,640.1304752455839" />
<polyline stroke="black" fill="none" points="1023.9059587868833,631.610514194925 1015.6199539114195,609.1229535596696" />
<polyline stroke="black" fill="none" points="891.6373445630293,601.8362437916448 951.2618269022705,640.1304752455839" />
<polyline stroke="black" fill="none" points="951.2618269022705,640.1304752455839 1015.6199539114195,609.1229535596696" />
<polyline stroke="black" fill="none" points="967.3729884685745,585.0663957083333 1015.6199539114195,609.1229535596696" />
<polyline stroke="black" fill="none" points="1022.1757054648493,625.5956664894757 1023.1011917240419,626.0810784912645" />
<polyline stroke="black" fill="none" points="298.6018409382223,983.3776747503005 285.00435557730907,1023.225284400334" />
<polyline stroke="black" fill="none" points="266.272863392541,928.1196154101157 225.0897559803721,1023.6679600523382" />
<polyline stroke="black" fill="none" points="298.84600217829023,938.9747423985054 297.39034112534637,937.9742054674336" />
<polyline stroke="black" fill="none" points="445.0244526454384,981.8254139054318 482.74881211297594,965.800265910578" />
<polyline stroke="black" fill="none" points="445.0244526454384,981.8254139054318 414.69801308629013,959.191126506409" />
<polyline stroke="black" fill="none" points="491.4749884902508,784.4855296528951 482.74881211297594,965.800265910578" />
<polyline stroke="black" fill="none" points="482.74881211297594,965.800265910578 452.9325545895448,942.1434780503671" />
<polyline stroke="black" fill="none" points="419.39821537641296,930.1509635227529 414.69801308629013,959.191126506409" />
<polyline stroke="black" fill="none" points="414.69801308629013,959.191126506409 452.9325545895448,942.1434780503671" />
<polyline stroke="black" fill="none" points="455.84736398299066,913.3182397218566 452.9325545895448,942.1434780503671" />
<polyline stroke="black" fill="none" points="531.2512987414308,945.6885143281634 573.191291766279,927.8840325804731" />
<polyline stroke="black" fill="none" points="531.2512987414308,945.6885143281634 501.9689314653735,920.5279838770771" />
<polyline stroke="black" fill="none" points="555.8277494589986,766.1779394381483 573.191291766279,927.8840325804731" />
<polyline stroke="black" fill="none" points="573.191291766279,927.8840325804731 544.6171027142848,901.5184046600303" />
<polyline stroke="black" fill="none" points="504.51732425685015,777.6206968105084 501.9689314653735,920.5279838770771" />
<polyline stroke="black" fill="none" points="501.9689314653735,920.5279838770771 544.6171027142848,901.5184046600303" />
<polyline stroke="black" fill="none" points="534.44012501108,731.9369108032013 544.6171027142848,901.5184046600303" />
<polyline stroke="black" fill="none" points="564.4985076005678,775.2344581581342 536.2267874911045,744.3766738786962" />
<polyline stroke="black" fill="none" points="535.4363323547246,731.7706159730159 536.2267874911045,744.3766738786962" />
<polyline stroke="black" fill="none" points="536.2267874911045,744.3766738786962 559.1642484279866,732.1103739103648" />
<polyline stroke="black" fill="none" points="666.066582606416,779.6987191965796 669.640676757937,777.980723335339" />
<polyline stroke="black" fill="none" points="800.751592184474,910.4322804401468 859.6794273991745,887.667895467622" />
<polyline stroke="black" fill="none" points="800.751592184474,910.4322804401468 775.7439539678608,878.1952966539689" />
<polyline stroke="black" fill="none" points="713.3693127924278,664.7784389198782 859.6794273991745,887.667895467622" />
<polyline stroke="black" fill="none" points="859.6794273991745,887.667895467622 836.3752087978851,853.5314717430829" />
<polyline stroke="black" fill="none" points="723.4883397714343,775.1312451006675 775.7439539678608,878.1952966539689" />
<polyline stroke="black" fill="none" points="775.7439539678608,878.1952966539689 836.3752087978851,853.5314717430829" />
<polyline stroke="black" fill="none" points="713.174743880425,665.3287934553681 836.3752087978851,853.5314717430829" />
<polyline stroke="black" fill="none" points="886.5763790215541,626.9821646865703 900.0912934249639,620.1930966330069" />
<polyline stroke="black" fill="none" points="900.0912934249639,620.1930966330069 880.475595322901,579.1698192613475" />
<polyline stroke="black" fill="none" points="866.5822073106016,586.4776152373975 880.475595322901,579.1698192613475" />
<polyline stroke="black" fill="none" points="859.8778535919259,566.8070992040459 880.475595322901,579.1698192613475" />
<polyline stroke="black" fill="none" points="874.6593151742285,559.404213412079 942.9693438973462,597.3382664515182" />
<polyline stroke="black" fill="none" points="942.9693438973462,597.3382664515182 977.9708517750173,579.7348440581802" />
<polyline stroke="black" fill="none" points="942.9693438973462,597.3382664515182 927.0601000965314,560.3252717183362" />
<polyline stroke="black" fill="none" points="898.421951399923,546.366112414198 927.0601000965314,560.3252717183362" />
<polyline stroke="black" fill="none" points="927.0601000965314,560.3252717183362 932.2449431186305,557.6114411947692" />
<polyline stroke="black" fill="none" points="17.520014995036263,969.1759045761733 0.38889149025368397,990.3495256031686" />
<polyline stroke="black" fill="none" points="264.6643562616487,927.091648129589 223.0506294121269,1022.8382329625886" />
<polyline stroke="black" fill="none" points="203.17005460664126,865.2409852645462 106.88417929760249,1023.3831265345158" />
<polyline stroke="black" fill="none" points="223.85518638465277,877.972649983074 143.2008717131323,1023.5144161400376" />
<polyline stroke="black" fill="none" points="288.31782140229075,942.1274854646884 299.94679076376235,936.3948371734941" />
<polyline stroke="black" fill="none" points="288.31782140229075,942.1274854646884 241.9738436665915,910.6982190398699" />
<polyline stroke="black" fill="none" points="311.26419439562494,903.9025770872324 293.97550983722886,891.3402675080413" />
<polyline stroke="black" fill="none" points="253.8317140031316,886.4276565633006 241.9738436665915,910.6982190398699" />
<polyline stroke="black" fill="none" points="241.9738436665915,910.6982190398699 268.9411127367408,896.4367004231519" />
<polyline stroke="black" fill="none" points="327.0688509758594,1001.6963987895197 369.5879782150205,982.8297714982184" />
<polyline stroke="black" fill="none" points="327.0688509758594,1001.6963987895197 285.85355318002905,974.9989169643119" />
<polyline stroke="black" fill="none" points="374.8008259239577,959.9589343103969 369.5879782150205,982.8297714982184" />
<polyline stroke="black" fill="none" points="369.5879782150205,982.8297714982184 328.8788699389611,954.6641336518651" />
<polyline stroke="black" fill="none" points="353.1614480508847,791.3651676634682 285.85355318002905,974.9989169643119" />
<polyline stroke="black" fill="none" points="285.85355318002905,974.9989169643119 328.8788699389611,954.6641336518651" />
<polyline stroke="black" fill="none" points="373.7429352929564,808.4862464250067 328.8788699389611,954.6641336518651" />
<polyline stroke="black" fill="none" points="381.233878839166,963.4577190640846 412.389174973364,949.3655486152734" />
<polyline stroke="black" fill="none" points="381.233878839166,963.4577190640846 353.55662504784016,943.5787043408192" />
<polyline stroke="black" fill="none" points="415.3224407531843,931.9517945608918 412.389174973364,949.3655486152734" />
<polyline stroke="black" fill="none" points="412.389174973364,949.3655486152734 385.02072439008765,928.7192208080512" />
<polyline stroke="black" fill="none" points="386.89534401616544,820.3671257564686 353.55662504784016,943.5787043408192" />
<polyline stroke="black" fill="none" points="353.55662504784016,943.5787043408192 385.02072439008765,928.7192208080512" />
<polyline stroke="black" fill="none" points="388.85826442503253,911.4714181845279 385.02072439008765,928.7192208080512" />
<polyline stroke="black" fill="none" points="532.051469956005,733.0225539290025 557.4402828469043,719.2539793796844" />
<polyline stroke="black" fill="none" points="532.051469956005,733.0225539290025 526.2491302406461,726.6451236725972" />
<polyline stroke="black" fill="none" points="556.1317885999105,708.181612129513 541.8767504516097,691.6685076810728" />
<polyline stroke="black" fill="none" points="525.693788994237,700.7663306670313 541.8767504516097,691.6685076810728" />
<polyline stroke="black" fill="none" points="540.7056798486612,678.5902500780392 541.8767504516097,691.6685076810728" />
<polyline stroke="black" fill="none" points="605.2184713829615,822.231362914011 670.1402550240474,791.4845193536801" />
<polyline stroke="black" fill="none" points="605.2184713829615,822.231362914011 565.1118269955629,778.5814938164381" />
<polyline stroke="black" fill="none" points="661.5188776602355,767.8527506527381 670.1402550240474,791.4845193536801" />
<polyline stroke="black" fill="none" points="595.8822694759006,603.8145844772716 582.7484948129779,586.2075570274937" />
<polyline stroke="black" fill="none" points="670.1402550240474,791.4845193536801 631.8807384476123,744.6813334361998" />
<polyline stroke="black" fill="none" points="553.552029326627,687.0443810000027 565.1118269955629,778.5814938164381" />
<polyline stroke="black" fill="none" points="575.625411796123,590.5290641685343 582.7484948129779,586.2075570274937" />
<polyline stroke="black" fill="none" points="565.1118269955629,778.5814938164381 631.8807384476123,744.6813334361998" />
<polyline stroke="black" fill="none" points="582.7484948129779,586.2075570274937 631.8807384476123,744.6813334361998" />
<polyline stroke="black" fill="none" points="699.5868287996403,671.8461836440658 731.3599023614605,655.0940100254263" />
<polyline stroke="black" fill="none" points="731.3560224059261,655.0887553427335 731.3599023614605,655.0940100254263" />
<polyline stroke="black" fill="none" points="731.3599023614605,655.0940100254263 713.4461999203317,627.6957808789904" />
<polyline stroke="black" fill="none" points="683.4545440724576,644.0656496842195 713.4461999203317,627.6957808789904" />
<polyline stroke="black" fill="none" points="702.152029872305,612.5758162877145 713.4461999203317,627.6957808789904" />
<polyline stroke="black" fill="none" points="711.4383982443638,607.0658166708693 887.3821477577975,826.7804729909464" />
<polyline stroke="black" fill="none" points="887.3821477577975,826.7804729909464 983.4925536142214,787.4169754016953" />
<polyline stroke="black" fill="none" points="887.3821477577975,826.7804729909464 853.4755122358021,770.6720086439163" />
<polyline stroke="black" fill="none" points="983.4925536142214,787.4169754016953 954.3665904058821,726.0258018697386" />
<polyline stroke="black" fill="none" points="715.8909226492667,604.4061537196907 853.4755122358021,770.6720086439163" />
<polyline stroke="black" fill="none" points="853.4755122358021,770.6720086439163 954.3665904058821,726.0258018697386" />
<polyline stroke="black" fill="none" points="863.5080610165112,650.4386458463068 954.3665904058821,726.0258018697386" />
<polyline stroke="black" fill="none" points="903.0492847843143,543.6274990648686 1023.2587823237002,600.6862873362498" />
<polyline stroke="black" fill="none" points="991.082066662077,526.7784280418193 1023.8622727047833,538.3259539802082" />
<polyline stroke="black" fill="none" points="184.2044346108077,875.2228737189437 90.2502255010121,1023.4682581016359" />
<polyline stroke="black" fill="none" points="19.830894483554914,967.8510781927639 0.7991201839152495,991.4330703814144" />
<polyline stroke="black" fill="none" points="138.099965665855,844.0939953302998 0.2847346991411541,1023.2583613477907" />
<polyline stroke="black" fill="none" points="240.43461049697515,888.8971064605125 250.35221631492612,883.5037913730798" />
<polyline stroke="black" fill="none" points="240.43461049697515,888.8971064605125 212.89888781914772,869.7391574538655" />
<polyline stroke="black" fill="none" points="247.8850508921039,862.6250828854007 238.0222712584246,855.4987158387335" />
<polyline stroke="black" fill="none" points="221.49353128862657,855.0347112180244 212.89888781914772,869.7391574538655" />
<polyline stroke="black" fill="none" points="212.89888781914772,869.7391574538655 238.0222712584246,855.4987158387335" />
<polyline stroke="black" fill="none" points="261.4303384098869,812.9944848511383 238.0222712584246,855.4987158387335" />
<polyline stroke="black" fill="none" points="275.1020901322436,900.6939013585109 307.69425073299163,883.6161522353309" />
<polyline stroke="black" fill="none" points="275.1020901322436,900.6939013585109 240.97290030636407,876.581682854742" />
<polyline stroke="black" fill="none" points="345.9888946957962,785.0979232508931 307.69425073299163,883.6161522353309" />
<polyline stroke="black" fill="none" points="307.69425073299163,883.6161522353309 273.81491944737127,858.4605732176506" />
<polyline stroke="black" fill="none" points="273.2339632815316,814.8549282423344 240.97290030636407,876.581682854742" />
<polyline stroke="black" fill="none" points="240.97290030636407,876.581682854742 273.81491944737127,858.4605732176506" />
<polyline stroke="black" fill="none" points="302.707990194335,797.7535440108663 273.81491944737127,858.4605732176506" />
<polyline stroke="black" fill="none" points="415.3019138732946,931.4195551754349 466.1434350536009,907.9214415930795" />
<polyline stroke="black" fill="none" points="415.3019138732946,931.4195551754349 372.3023304856035,898.1205167575005" />
<polyline stroke="black" fill="none" points="475.7316536266187,792.9399528498077 466.1434350536009,907.9214415930795" />
<polyline stroke="black" fill="none" points="466.1434350536009,907.9214415930795 424.0310906107381,872.5381217058914" />
<polyline stroke="black" fill="none" points="392.16609476904836,821.3218344939305 372.3023304856035,898.1205167575005" />
<polyline stroke="black" fill="none" points="372.3023304856035,898.1205167575005 424.0310906107381,872.5381217058914" />
<polyline stroke="black" fill="none" points="436.87582256872724,797.4098090925942 424.0310906107381,872.5381217058914" />
<polyline stroke="black" fill="none" points="471.2105380346209,794.5901578763969 527.6660954373922,764.8999295170028" />
<polyline stroke="black" fill="none" points="471.2105380346209,794.5901578763969 460.8080238064198,784.5626106203464" />
<polyline stroke="black" fill="none" points="523.5628514445577,658.3282409873156 527.6660954373922,764.8999295170028" />
<polyline stroke="black" fill="none" points="527.6660954373922,764.8999295170028 485.17931857105816,719.9465077495521" />
<polyline stroke="black" fill="none" points="473.37729863126214,726.605604664939 485.17931857105816,719.9465077495521" />
<polyline stroke="black" fill="none" points="494.14600160683773,598.944514088216 485.17931857105816,719.9465077495521" />
<polyline stroke="black" fill="none" points="549.8157821506909,689.092497426886 595.279088571266,663.5808262905366" />
<polyline stroke="black" fill="none" points="549.8157821506909,689.092497426886 519.0312369158398,653.0157624958728" />
<polyline stroke="black" fill="none" points="567.8943753088082,563.1003000783087 595.279088571266,663.5808262905366" />
<polyline stroke="black" fill="none" points="567.8943753088082,563.1003000783087 547.3820218291188,535.5248595404461" />
<polyline stroke="black" fill="none" points="595.279088571266,663.5808262905366 565.3450347303209,625.6461545163706" />
<polyline stroke="black" fill="none" points="517.8742189973002,604.4716516493143 519.0312369158398,653.0157624958728" />
<polyline stroke="black" fill="none" points="535.4497344216892,543.2375513574543 547.3820218291188,535.5248595404461" />
<polyline stroke="black" fill="none" points="519.0312369158398,653.0157624958728 565.3450347303209,625.6461545163706" />
<polyline stroke="black" fill="none" points="547.3820218291188,535.5248595404461 565.3450347303209,625.6461545163706" />
<polyline stroke="black" fill="none" points="682.7480665479684,794.1637532687977 752.8827616209699,761.2586717713509" />
<polyline stroke="black" fill="none" points="682.7480665479684,794.1637532687977 645.0728284693739,747.425383061345" />
<polyline stroke="black" fill="none" points="673.3843573761981,628.1752522496972 752.8827616209699,761.2586717713509" />
<polyline stroke="black" fill="none" points="752.8827616209699,761.2586717713509 717.4952507885043,711.0117586130044" />
<polyline stroke="black" fill="none" points="595.4300152608214,602.1545736448069 645.0728284693739,747.425383061345" />
<polyline stroke="black" fill="none" points="645.0728284693739,747.425383061345 717.4952507885043,711.0117586130044" />
<polyline stroke="black" fill="none" points="670.4230543851469,630.1510358034993 717.4952507885043,711.0117586130044" />
<polyline stroke="black" fill="none" points="726.2080157807964,598.7631414306446 799.9099781158387,681.5978741122171" />
<polyline stroke="black" fill="none" points="799.9099781158387,681.5978741122171 891.140089339707,636.2576307649451" />
<polyline stroke="black" fill="none" points="799.9099781158387,681.5978741122171 760.879178060912,616.982709285145" />
<polyline stroke="black" fill="none" points="891.140089339707,636.2576307649451 857.7262509918028,568.569185434211" />
<polyline stroke="black" fill="none" points="710.1269007239473,564.1724440259352 760.879178060912,616.982709285145" />
<polyline stroke="black" fill="none" points="760.879178060912,616.982709285145 802.9301965933099,594.3448206278807" />
<polyline stroke="black" fill="none" points="934.1005210015862,507.24454570276134 989.8239755125431,526.9454863059317" />
<polyline stroke="black" fill="none" points="989.8239755125431,526.9454863059317 1023.9193445117066,509.0914532712323" />
<polyline stroke="black" fill="none" points="989.8239755125431,526.9454863059317 975.7286356029178,488.294481597193" />
<polyline stroke="black" fill="none" points="0.10900301950903213,978.906403390773 21.332996167413967,966.6850314070812" />
<polyline stroke="black" fill="none" points="123.16135203070218,840.3667381330131 21.332996167413967,966.6850314070812" />
<polyline stroke="black" fill="none" points="21.332996167413967,966.6850314070812 0.6280572707618148,955.6841115963912" />
<polyline stroke="black" fill="none" points="1.8012525144640108,869.742516478693 0.8802458449208075,870.6662890731706" />
<polyline stroke="black" fill="none" points="10.528429590631049,874.254913815573 0.48763840789854385,884.5914752188698" />
<polyline stroke="black" fill="none" points="131.1801879283775,845.0492557081733 142.47130820189125,838.0772457381461" />
<polyline stroke="black" fill="none" points="131.1801879283775,845.0492557081733 120.42240581636048,837.8327191882844" />
<polyline stroke="black" fill="none" points="185.5841022199316,875.182932359682 224.82232264037395,852.6714099762137" />
<polyline stroke="black" fill="none" points="185.5841022199316,875.182932359682 138.45235259368042,843.3234058136011" />
<polyline stroke="black" fill="none" points="252.06452278521516,805.7470714830491 224.82232264037395,852.6714099762137" />
<polyline stroke="black" fill="none" points="224.82232264037395,852.6714099762137 177.909041099209,819.0372120149375" />
<polyline stroke="black" fill="none" points="163.797403196225,810.395201645472 138.45235259368042,843.3234058136011" />
<polyline stroke="black" fill="none" points="138.45235259368042,843.3234058136011 177.909041099209,819.0372120149375" />
<polyline stroke="black" fill="none" points="299.5388717297714,651.1952814093495 177.909041099209,819.0372120149375" />
<polyline stroke="black" fill="none" points="268.16243429525775,817.6252960701449 319.58200246975105,787.78494119625" />
<polyline stroke="black" fill="none" points="268.16243429525775,817.6252960701449 213.4756719826549,775.2828274118729" />
<polyline stroke="black" fill="none" points="327.94051489633654,769.1158657260542 319.58200246975105,787.78494119625" />
<polyline stroke="black" fill="none" points="319.58200246975105,787.78494119625 265.5017373615134,742.4935678932499" />
<polyline stroke="black" fill="none" points="301.1680323578433,652.7082208855836 213.4756719826549,775.2828274118729" />
<polyline stroke="black" fill="none" points="213.4756719826549,775.2828274118729 265.5017373615134,742.4935678932499" />
<polyline stroke="black" fill="none" points="314.94256658619554,665.3769630397741 265.5017373615134,742.4935678932499" />
<polyline stroke="black" fill="none" points="389.61489069688423,822.0317194903507 473.9672462963676,776.8844392707155" />
<polyline stroke="black" fill="none" points="389.61489069688423,822.0317194903507 314.69355280839375,757.5143196686431" />
<polyline stroke="black" fill="none" points="477.9242766832895,733.3037742886019 473.9672462963676,776.8844392707155" />
<polyline stroke="black" fill="none" points="482.32685499617617,557.6158143347413 472.495896307161,545.5464453733834" />
<polyline stroke="black" fill="none" points="473.9672462963676,776.8844392707155 401.40737693612584,705.3806704383861" />
<polyline stroke="black" fill="none" points="345.6965580367121,694.7399592099075 314.69355280839375,757.5143196686431" />
<polyline stroke="black" fill="none" points="314.69355280839375,757.5143196686431 401.40737693612584,705.3806704383861" />
<polyline stroke="black" fill="none" points="409.9064738796293,678.6851853971954 401.40737693612584,705.3806704383861" />
<polyline stroke="black" fill="none" points="505.2366046159692,612.2167842210946 540.8950738239604,590.1611189709035" />
<polyline stroke="black" fill="none" points="505.2366046159692,612.2167842210946 479.2705741267032,581.0888345921824" />
<polyline stroke="black" fill="none" points="533.9165297749645,534.0939184381523 540.8950738239604,590.1611189709035" />
<polyline stroke="black" fill="none" points="533.9165297749645,534.0939184381523 514.5790324563296,508.46109113336666" />
<polyline stroke="black" fill="none" points="540.8950738239604,590.1611189709035 515.4239873996249,557.7520846377304" />
<polyline stroke="black" fill="none" points="487.22361608777913,526.8824790003946 479.2705741267032,581.0888345921824" />
<polyline stroke="black" fill="none" points="487.22361608777913,526.8824790003946 514.5790324563296,508.46109113336666" />
<polyline stroke="black" fill="none" points="479.2705741267032,581.0888345921824 515.4239873996249,557.7520846377304" />
<polyline stroke="black" fill="none" points="514.5790324563296,508.46109113336666 515.4239873996249,557.7520846377304" />
<polyline stroke="black" fill="none" points="631.990678069683,651.0985062809015 730.0661313538172,596.4820906259874" />
<polyline stroke="black" fill="none" points="631.990678069683,651.0985062809015 573.8148169441879,573.0257086912831" />
<polyline stroke="black" fill="none" points="730.0661313538172,596.4820906259874 680.3344860736149,516.3462605934857" />
<polyline stroke="black" fill="none" points="545.321625764397,473.91615135727716 573.8148169441879,573.0257086912831" />
<polyline stroke="black" fill="none" points="560.3656357856074,440.01867540575813 580.2878273778811,426.19367217388515" />
<polyline stroke="black" fill="none" points="573.8148169441879,573.0257086912831 668.7209427244242,514.4898811542987" />
<polyline stroke="black" fill="none" points="695.6119456868348,506.2151320360071 806.3090849581528,595.5650433417261" />
<polyline stroke="black" fill="none" points="806.3090849581528,595.5650433417261 940.2593234080551,523.6498307746114" />
<polyline stroke="black" fill="none" points="806.3090849581528,595.5650433417261 749.2917646771102,492.21757994203807" />
<polyline stroke="black" fill="none" points="940.2593234080551,523.6498307746114 892.4949432294723,405.83740443123133" />
<polyline stroke="black" fill="none" points="722.8375139647488,477.255747576243 749.2917646771102,492.21757994203807" />
<polyline stroke="black" fill="none" points="749.2917646771102,492.21757994203807 892.4949432294723,405.83740443123133" />
<polyline stroke="black" fill="none" points="795.7964238883685,393.68300374269904 892.4949432294723,405.83740443123133" />
<polyline stroke="black" fill="none" points="920.6564448038461,472.60891085358116 991.7562726109622,492.5470563653327" />
<polyline stroke="black" fill="none" points="991.7562726109622,492.5470563653327 1023.6059298267132,475.39896917199513" />
<polyline stroke="black" fill="none" points="991.7562726109622,492.5470563653327 968.4135627487829,426.3824055640545" />
<polyline stroke="black" fill="none" points="897.6684386219958,415.78477197012273 968.4135627487829,426.3824055640545" />
<polyline stroke="black" fill="none" points="968.4135627487829,426.3824055640545 1022.9653604990501,395.0930591725944" />
<polyline stroke="black" fill="none" points="782.9982173273031,366.20499761152337 1022.0373970889823,373.4321734139413" />
<polyline stroke="black" fill="none" points="908.8706255639137,334.2372714478779 1022.3818397827929,327.43745158398804" />
<polyline stroke="black" fill="none" points="1008.7577385251801,271.1565541118315 1023.423527666893,268.5923318452079" />
<polyline stroke="black" fill="none" points="1013.1034224651037,240.74710946786462 1022.6434911034627,238.51461435691658" />
<polyline stroke="black" fill="none" points="76.58117293770852,712.0457089086353 0.2934724095226784,774.0743791903012" />
<polyline stroke="black" fill="none" points="77.9037204574388,712.6971024149018 0.18467331093927442,776.1987342341918" />
<polyline stroke="black" fill="none" points="53.799162579393624,748.8742138907515 76.41639742366146,732.4501850587131" />
<polyline stroke="black" fill="none" points="21.04643048438021,880.0397834794236 62.9029916432915,853.1244473413685" />
<polyline stroke="black" fill="none" points="21.04643048438021,880.0397834794236 0.34992002462212213,867.7650986286469" />
<polyline stroke="black" fill="none" points="90.96509690446163,822.1870115474785 62.9029916432915,853.1244473413685" />
<polyline stroke="black" fill="none" points="62.9029916432915,853.1244473413685 0.7618943264942573,813.903259319242" />
<polyline stroke="black" fill="none" points="79.35486751870661,734.9743403223506 0.8960322918055112,803.335355319213" />
<polyline stroke="black" fill="none" points="83.03735487939502,737.4515920117573 0.1524145219390789,810.7676825535843" />
<polyline stroke="black" fill="none" points="92.42022687968091,743.5930040909967 75.0892217524866,730.9830815427031" />
<polyline stroke="black" fill="none" points="136.66928412346323,702.2286468272302 135.83031415547094,701.5701843639313" />
<polyline stroke="black" fill="none" points="87.80143591253136,720.1312233408858 75.0892217524866,730.9830815427031" />
<polyline stroke="black" fill="none" points="75.0892217524866,730.9830815427031 89.25194878676109,720.6729055635842" />
<polyline stroke="black" fill="none" points="117.42614234480538,839.1434193435725 173.02338101564544,804.2366500278584" />
<polyline stroke="black" fill="none" points="117.42614234480538,839.1434193435725 43.10747020617265,789.4782046937988" />
<polyline stroke="black" fill="none" points="293.410552193957,645.7603042802922 173.02338101564544,804.2366500278584" />
<polyline stroke="black" fill="none" points="173.02338101564544,804.2366500278584 98.8539712946556,750.3901460560269" />
<polyline stroke="black" fill="none" points="149.71277042335532,691.381886474303 43.10747020617265,789.4782046937988" />
<polyline stroke="black" fill="none" points="292.0026639793824,562.0609819677054 302.67152540284974,554.2190721499777" />
<polyline stroke="black" fill="none" points="43.10747020617265,789.4782046937988 98.8539712946556,750.3901460560269" />
<polyline stroke="black" fill="none" points="304.33920217743105,555.2339590936169 98.8539712946556,750.3901460560269" />
<polyline stroke="black" fill="none" points="287.0211496029887,620.4587206733657 274.12195009035196,608.0633547300215" />
<polyline stroke="black" fill="none" points="314.19218912219685,565.9424652787134 274.12195009035196,608.0633547300215" />
<polyline stroke="black" fill="none" points="274.12195009035196,608.0633547300215 321.6988653290352,574.1050663210361" />
<polyline stroke="black" fill="none" points="360.7920631017478,708.5798846631146 448.84566747015765,654.4954323594111" />
<polyline stroke="black" fill="none" points="360.7920631017478,708.5798846631146 278.87244764874094,631.1908300469204" />
<polyline stroke="black" fill="none" points="479.8747578842369,508.82649084347076 448.84566747015765,654.4954323594111" />
<polyline stroke="black" fill="none" points="479.8747578842369,508.82649084347076 466.2598915068033,491.4497343434041" />
<polyline stroke="black" fill="none" points="448.84566747015765,654.4954323594111 369.3406591856891,568.1669482933845" />
<polyline stroke="black" fill="none" points="324.9477641840699,577.1996949449905 278.87244764874094,631.1908300469204" />
<polyline stroke="black" fill="none" points="278.87244764874094,631.1908300469204 369.3406591856891,568.1669482933845" />
<polyline stroke="black" fill="none" points="381.1983377093803,550.6990770825101 369.3406591856891,568.1669482933845" />
<polyline stroke="black" fill="none" points="439.3024868915659,510.3624259082213 472.79005657725736,486.85604760078184" />
<polyline stroke="black" fill="none" points="481.54670088466787,458.0815781840119 472.79005657725736,486.85604760078184" />
<polyline stroke="black" fill="none" points="481.54670088466787,458.0815781840119 471.7133378913238,444.9779808326431" />
<polyline stroke="black" fill="none" points="472.79005657725736,486.85604760078184 459.9726670900279,470.322450260058" />
<polyline stroke="black" fill="none" points="519.9604142577924,491.0603053299559 519.9609397529672,491.0690883492253" />
<polyline stroke="black" fill="none" points="519.9609397529672,491.0690883492253 570.1996943611889,456.8515594909975" />
<polyline stroke="black" fill="none" points="519.9609397529672,491.0690883492253 484.14642456337003,442.6208099938359" />
<polyline stroke="black" fill="none" points="559.5247291040797,438.7223659562077 570.1996943611889,456.8515594909975" />
<polyline stroke="black" fill="none" points="559.5247291040797,438.7223659562077 530.9603366681821,396.57342825325145" />
<polyline stroke="black" fill="none" points="570.1996943611889,456.8515594909975 535.3933226154784,405.5893126938185" />
<polyline stroke="black" fill="none" points="489.3025701707747,426.9582751994396 484.14642456337003,442.6208099938359" />
<polyline stroke="black" fill="none" points="489.3025701707747,426.9582751994396 530.9603366681821,396.57342825325145" />
<polyline stroke="black" fill="none" points="484.14642456337003,442.6208099938359 535.3933226154784,405.5893126938185" />
<polyline stroke="black" fill="none" points="530.9603366681821,396.57342825325145 535.3933226154784,405.5893126938185" />
<polyline stroke="black" fill="none" points="579.2274861247593,424.2607348996506 674.9650521214743,518.6050987964727" />
<polyline stroke="black" fill="none" points="579.2274861247593,424.2607348996506 545.3893090480385,372.58090382589165" />
<polyline stroke="black" fill="none" points="674.9650521214743,518.6050987964727 727.7523964070873,486.2632750390844" />
<polyline stroke="black" fill="none" points="674.9650521214743,518.6050987964727 597.8502530818226,395.4721036408206" />
<polyline stroke="black" fill="none" points="809.255596543308,422.3441052169196 746.6957065619492,290.70433322509166" />
<polyline stroke="black" fill="none" points="545.3893090480385,372.58090382589165 597.8502530818226,395.4721036408206" />
<polyline stroke="black" fill="none" points="545.3893090480385,372.58090382589165 558.5833924585876,362.8593899993458" />
<polyline stroke="black" fill="none" points="597.8502530818226,395.4721036408206 746.6957065619492,290.70433322509166" />
<polyline stroke="black" fill="none" points="605.7235608642422,331.1330433115269 746.6957065619492,290.70433322509166" />
<polyline stroke="black" fill="none" points="705.2521185848839,302.0795050992266 702.201910106967,296.08102223632113" />
<polyline stroke="black" fill="none" points="647.0391495390412,319.1658115375893 659.8479810601895,309.8716395383672" />
<polyline stroke="black" fill="none" points="685.3941561186316,308.13249950246814 702.201910106967,296.08102223632113" />
<polyline stroke="black" fill="none" points="659.8479810601895,309.8716395383672 702.201910106967,296.08102223632113" />
<polyline stroke="black" fill="none" points="776.0706561764783,352.2143874847254 883.4265956353672,349.8575891522724" />
<polyline stroke="black" fill="none" points="679.5390711664488,302.949315823908 674.0474524244554,292.5303158754042" />
<polyline stroke="black" fill="none" points="883.4265956353672,349.8575891522724 1018.3339079700004,264.6328481931131" />
<polyline stroke="black" fill="none" points="883.4265956353672,349.8575891522724 835.0357686492368,227.47705123681772" />
<polyline stroke="black" fill="none" points="1018.3339079700004,264.6328481931131 979.5869758457516,125.65996514943015" />
<polyline stroke="black" fill="none" points="674.0474524244554,292.5303158754042 835.0357686492368,227.47705123681772" />
<polyline stroke="black" fill="none" points="674.0474524244554,292.5303158754042 738.8006319176475,245.31062860568233" />
<polyline stroke="black" fill="none" points="835.0357686492368,227.47705123681772 979.5869758457516,125.65996514943015" />
<polyline stroke="black" fill="none" points="738.8006319176475,245.31062860568233 979.5869758457516,125.65996514943015" />
<polyline stroke="black" fill="none" points="1004.7631066333429,212.97352541724115 1022.6309674442044,201.2129043121484" />
<polyline stroke="black" fill="none" points="784.6394740500743,222.5311288910941 809.1889078740953,204.75623016508803" />
<polyline stroke="black" fill="none" points="981.6115104883525,129.7702908264256 1022.4731856804402,101.08912486440141" />
<polyline stroke="black" fill="none" points="809.1889078740953,204.75623016508803 1023.8162867751366,94.07649201077851" />
<polyline stroke="black" fill="none" points="857.1532100783072,179.35078829480477 853.7099788135098,170.00792542926337" />
<polyline stroke="black" fill="none" points="853.7099788135098,170.00792542926337 1023.7001635056886,76.48190878494029" />
<polyline stroke="black" fill="none" points="853.7099788135098,170.00792542926337 895.7070705980774,139.5504520981213" />
<polyline stroke="black" fill="none" points="895.7070705980774,139.5504520981213 1023.4219386972322,66.83682711929202" />
<polyline stroke="black" fill="none" points="941.0901627172098,112.75024708458102 940.7251614301662,111.53620409250152" />
<polyline stroke="black" fill="none" points="940.7251614301662,111.53620409250152 1023.3431316712284,64.03888939222281" />
<polyline stroke="black" fill="none" points="940.7251614301662,111.53620409250152 989.2621437924922,76.43753427211038" />
<polyline stroke="black" fill="none" points="989.2621437924922,76.43753427211038 1023.2333296900174,56.39529162465453" />
<polyline stroke="black" fill="none" points="1023.3831398376346,56.28350216933819 1017.8743687172766,33.391658048062254" />
<polyline stroke="black" fill="none" points="1017.8743687172766,33.391658048062254 1023.156303436796,30.002237165091913" />
<polyline stroke="black" fill="none" points="1017.8743687172766,33.391658048062254 1023.8015407602779,29.047626262818653" />
<polyline stroke="black" fill="none" points="73.47520764024483,708.8626949912552 0.8781094363961301,766.9455548165712" />
<polyline stroke="black" fill="none" points="159.6828233775429,560.6378289512845 0.28292577723971135,652.3126268324947" />
<polyline stroke="black" fill="none" points="60.71385800064701,700.361486596757 0.51599204959291,746.0281553868465" />
<polyline stroke="black" fill="none" points="60.3630754045156,700.6198584664255 0.5293775039134516,746.0092411767697" />
<polyline stroke="black" fill="none" points="57.76459005826109,635.3040096661219 0.3386162437515736,670.3602567164628" />
<polyline stroke="black" fill="none" points="244.5888399580337,605.2358450740154 248.15500570762026,602.6342065307243" />
<polyline stroke="black" fill="none" points="130.40131544227359,587.6055905743629 128.37424184537468,585.8424087067386" />
<polyline stroke="black" fill="none" points="301.9162255484241,552.7897449259802 248.15500570762026,602.6342065307243" />
<polyline stroke="black" fill="none" points="192.2752607332156,549.8668907513243 183.46619190471068,541.5484756116507" />
<polyline stroke="black" fill="none" points="128.4247418655561,585.812417336154 128.37424184537468,585.8424087067386" />
<polyline stroke="black" fill="none" points="128.37424184537468,585.8424087067386 183.46619190471068,541.5484756116507" />
<polyline stroke="black" fill="none" points="253.3144794828903,502.52741080986453 183.46619190471068,541.5484756116507" />
<polyline stroke="black" fill="none" points="98.86399717544975,727.7214441829226 157.61073766857294,685.557556136287" />
<polyline stroke="black" fill="none" points="98.86399717544975,727.7214441829226 18.044540218518023,667.6614234289641" />
<polyline stroke="black" fill="none" points="301.33313181637607,552.7214370646068 157.61073766857294,685.557556136287" />
<polyline stroke="black" fill="none" points="157.61073766857294,685.557556136287 76.85636062876074,620.0624423957712" />
<polyline stroke="black" fill="none" points="18.044540218518023,667.6614234289641 76.85636062876074,620.0624423957712" />
<polyline stroke="black" fill="none" points="259.86211973835503,509.8532708248093 76.85636062876074,620.0624423957712" />
<polyline stroke="black" fill="none" points="332.7205207247633,584.5662489084968 442.2568589564832,507.63621879232005" />
<polyline stroke="black" fill="none" points="332.7205207247633,584.5662489084968 225.65847341100584,473.83829064926283" />
<polyline stroke="black" fill="none" points="481.6740481405361,423.071869463482 442.2568589564832,507.63621879232005" />
<polyline stroke="black" fill="none" points="481.6740481405361,423.071869463482 440.89190122321054,367.20042723925076" />
<polyline stroke="black" fill="none" points="442.2568589564832,507.63621879232005 338.6916647527239,380.40713728541084" />
<polyline stroke="black" fill="none" points="225.65847341100584,473.83829064926283 338.6916647527239,380.40713728541084" />
<polyline stroke="black" fill="none" points="440.89190122321054,367.20042723925076 338.6916647527239,380.40713728541084" />
<polyline stroke="black" fill="none" points="549.4255727681272,361.59093907165965 562.5363441408605,362.84485105537067" />
<polyline stroke="black" fill="none" points="549.4255727681272,361.59093907165965 511.3594522423738,302.70511923949437" />
<polyline stroke="black" fill="none" points="562.5363441408605,362.84485105537067 639.5947655563973,306.18936831656526" />
<polyline stroke="black" fill="none" points="562.5363441408605,362.84485105537067 511.12162651591444,282.17067018684025" />
<polyline stroke="black" fill="none" points="639.5731242625259,306.19815785703815 639.5947655563973,306.18936831656526" />
<polyline stroke="black" fill="none" points="639.5947655563973,306.18936831656526 632.0552150753977,292.64693063986135" />
<polyline stroke="black" fill="none" points="511.3594522423738,302.70511923949437 511.12162651591444,282.17067018684025" />
<polyline stroke="black" fill="none" points="511.12162651591444,282.17067018684025 576.1037176488089,230.07303532266315" />
<polyline stroke="black" fill="none" points="617.1037119756197,300.6228694238248 677.9541108975101,267.39735468966126" />
<polyline stroke="black" fill="none" points="677.9541108975101,267.39735468966126 810.3976975519066,169.3014169247022" />
<polyline stroke="black" fill="none" points="677.9541108975101,267.39735468966126 605.2232063327976,126.22481981183921" />
<polyline stroke="black" fill="none" points="810.3976975519066,169.3014169247022 746.1319153459153,7.207841126006485" />
<polyline stroke="black" fill="none" points="557.4592423904643,244.98337903200138 605.2232063327976,126.22481981183921" />
<polyline stroke="black" fill="none" points="605.2232063327976,126.22481981183921 746.1319153459153,7.207841126006485" />
<polyline stroke="black" fill="none" points="790.3606133437258,118.1636048097202 803.002452454931,107.27083061635972" />
<polyline stroke="black" fill="none" points="803.002452454931,107.27083061635972 893.7125636137062,37.13213708699982" />
<polyline stroke="black" fill="none" points="803.002452454931,107.27083061635972 764.4497598791329,7.327844749705264" />
<polyline stroke="black" fill="none" points="792.2120130680912,122.45664968852236 893.7125636137062,37.13213708699982" />
<polyline stroke="black" fill="none" points="893.7125636137062,37.13213708699982 882.3315409702878,1.0448703194174414" />
<polyline stroke="black" fill="none" points="752.8305855701365,23.46830476819332 764.4497598791329,7.327844749705264" />
<polyline stroke="black" fill="none" points="764.4497598791329,7.327844749705264 772.2874723425762,0.7678583159924983" />
<polyline stroke="black" fill="none" points="805.756246013156,156.51448784358223 1022.0153230998512,8.175270488391561" />
<polyline stroke="black" fill="none" points="166.7417025843477,554.9068535672101 0.85410777722484,649.5098981143599" />
<polyline stroke="black" fill="none" points="168.68203678110746,553.021815589814 160.28695953498442,545.2647674166562" />
<polyline stroke="black" fill="none" points="190.96359829894521,528.243772248861 0.006068375223719613,629.5005827393967" />
<polyline stroke="black" fill="none" points="190.96359829894521,528.243772248861 220.65066607663226,504.2275612214026" />
<polyline stroke="black" fill="none" points="220.65066607663226,504.2275612214026 1.2205446548601913,614.350325848847" />
<polyline stroke="black" fill="none" points="220.65066607663226,504.2275612214026 212.78998238393666,496.33055199146037" />
<polyline stroke="black" fill="none" points="107.52899554500272,495.4046123283744 0.9850261933699471,531.5960837008657" />
<polyline stroke="black" fill="none" points="220.15247126378677,492.60774185740047 143.1563083280534,528.1173427807619" />
<polyline stroke="black" fill="none" points="220.15247126378677,492.60774185740047 233.31888258493797,481.8502061484246" />
<polyline stroke="black" fill="none" points="143.1563083280534,528.1173427807619 182.97135479620675,494.8150544618491" />
<polyline stroke="black" fill="none" points="143.1563083280534,528.1173427807619 92.18029597931547,480.9629405990564" />
<polyline stroke="black" fill="none" points="227.42045867810668,476.3340113435004 182.97135479620675,494.8150544618491" />
<polyline stroke="black" fill="none" points="245.28359686193335,457.2124084819132 244.75352649343392,456.6475481762003" />
<polyline stroke="black" fill="none" points="182.97135479620675,494.8150544618491 132.1350475712822,444.91121531908163" />
<polyline stroke="black" fill="none" points="92.18029597931547,480.9629405990564 132.1350475712822,444.91121531908163" />
<polyline stroke="black" fill="none" points="177.07525152280863,434.63048778923553 132.1350475712822,444.91121531908163" />
<polyline stroke="black" fill="none" points="249.13459403754712,454.36843407433065 200.53821974849484,472.18209246895725" />
<polyline stroke="black" fill="none" points="200.53821974849484,472.18209246895725 226.74859718025658,450.11762968247825" />
<polyline stroke="black" fill="none" points="200.53821974849484,472.18209246895725 169.8654412848179,441.07012236385435" />
<polyline stroke="black" fill="none" points="271.92282868924616,435.531125588334 226.74859718025658,450.11762968247825" />
<polyline stroke="black" fill="none" points="226.74859718025658,450.11762968247825 196.18584955489968,417.872740394081" />
<polyline stroke="black" fill="none" points="169.8654412848179,441.07012236385435 196.18584955489968,417.872740394081" />
<polyline stroke="black" fill="none" points="235.31480308577824,410.45602013647954 196.18584955489968,417.872740394081" />
<polyline stroke="black" fill="none" points="276.57476874994796,431.6766214028223 259.80852600208004,436.9228145807035" />
<polyline stroke="black" fill="none" points="259.80852600208004,436.9228145807035 295.5083446140096,407.21134422678193" />
<polyline stroke="black" fill="none" points="259.80852600208004,436.9228145807035 221.51321471277322,394.93497454274797" />
<polyline stroke="black" fill="none" points="310.21412180820147,403.8693169720876 295.5083446140096,407.21134422678193" />
<polyline stroke="black" fill="none" points="341.3402441758733,379.6406541188276 339.2695829168057,377.08915506440326" />
<polyline stroke="black" fill="none" points="295.5083446140096,407.21134422678193 257.4947989915192,363.20791050592925" />
<polyline stroke="black" fill="none" points="221.51321471277322,394.93497454274797 257.4947989915192,363.20791050592925" />
<polyline stroke="black" fill="none" points="305.2019069333196,362.23385306270063 257.4947989915192,363.20791050592925" />
<polyline stroke="black" fill="none" points="356.5544648240345,374.8886744642514 319.3672163383442,378.9261871324388" />
<polyline stroke="black" fill="none" points="356.5544648240345,374.8886744642514 403.8295468618998,336.08061291136926" />
<polyline stroke="black" fill="none" points="319.3672163383442,378.9261871324388 377.01368715465196,330.6438482647518" />
<polyline stroke="black" fill="none" points="319.3672163383442,378.9261871324388 262.6013232914706,310.3361782868566" />
<polyline stroke="black" fill="none" points="403.8295468618998,336.08061291136926 377.01368715465196,330.6438482647518" />
<polyline stroke="black" fill="none" points="403.8295468618998,336.08061291136926 364.6752538409876,283.1955715954068" />
<polyline stroke="black" fill="none" points="377.01368715465196,330.6438482647518 326.38246327278426,263.7493265784682" />
<polyline stroke="black" fill="none" points="262.6013232914706,310.3361782868566 263.28666903454985,309.7102477356008" />
<polyline stroke="black" fill="none" points="452.0257498044159,313.4443079648338 411.8318909749233,283.57598992245636" />
<polyline stroke="black" fill="none" points="452.0257498044159,313.4443079648338 490.6021910810261,282.156035298495" />
<polyline stroke="black" fill="none" points="411.8318909749233,283.57598992245636 475.7171557554168,229.38837942012987" />
<polyline stroke="black" fill="none" points="411.8318909749233,283.57598992245636 357.3298479590999,206.54329732776483" />
<polyline stroke="black" fill="none" points="490.6021910810261,282.156035298495 475.7171557554168,229.38837942012987" />
<polyline stroke="black" fill="none" points="475.7171557554168,229.38837942012987 422.616242597159,146.22395751393003" />
<polyline stroke="black" fill="none" points="357.36670047557294,206.57938694623527 357.3298479590999,206.54329732776483" />
<polyline stroke="black" fill="none" points="357.3298479590999,206.54329732776483 422.616242597159,146.22395751393003" />
<polyline stroke="black" fill="none" points="422.63839352382956,146.27644234861646 422.616242597159,146.22395751393003" />
<polyline stroke="black" fill="none" points="517.3273723614147,272.42900920826946 519.7606296622328,233.33949921455513" />
<polyline stroke="black" fill="none" points="517.3273723614147,272.42900920826946 559.9030545209384,238.18160560905937" />
<polyline stroke="black" fill="none" points="517.3273723614147,272.42900920826946 483.5245568907758,218.66119961370197" />
<polyline stroke="black" fill="none" points="519.7606296622328,233.33949921455513 582.5499293458843,181.530227428976" />
<polyline stroke="black" fill="none" points="519.7606296622328,233.33949921455513 469.797866936646,151.4868545705429" />
<polyline stroke="black" fill="none" points="586.9018762044875,170.96672286858433 541.5158882876144,87.23842438389164" />
<polyline stroke="black" fill="none" points="483.5245568907758,218.66119961370197 469.797866936646,151.4868545705429" />
<polyline stroke="black" fill="none" points="469.797866936646,151.4868545705429 541.5158882876144,87.23842438389164" />
<polyline stroke="black" fill="none" points="515.2873021342497,109.56208555175095 507.1852395531716,95.2475598365458" />
<polyline stroke="black" fill="none" points="632.6899466620407,102.48453159454152 591.5425663489503,18.596920964848493" />
<polyline stroke="black" fill="none" points="507.5930124732279,117.501635872321 507.1852395531716,95.2475598365458" />
<polyline stroke="black" fill="none" points="507.1852395531716,95.2475598365458 591.5425663489503,18.596920964848493" />
<polyline stroke="black" fill="none" points="748.3296774245933,10.146742095897935 760.3751164368797,0.0013051424625700747" />
<polyline stroke="black" fill="none" points="738.4955495230166,12.161405458793752 734.0613671893343,1.1345502660566353" />
<polyline stroke="black" fill="none" points="643.8334445227712,93.6018387771303 690.1485201899227,0.7107180598436571" />
<polyline stroke="black" fill="none" points="32.99686920275059,520.1922498678077 24.630328730678684,513.0192034485042" />
<polyline stroke="black" fill="none" points="28.356421838730682,511.6625297008241 0.37222704692919706,520.552958026594" />
<polyline stroke="black" fill="none" points="0.029121751844286337,510.7616414424114 6.249288628495776,504.88792803162335" />
<polyline stroke="black" fill="none" points="16.839824862474075,501.81230317329033 6.249288628495776,504.88792803162335" />
<polyline stroke="black" fill="none" points="6.249288628495776,504.88792803162335 0.3258388108581016,499.8413888990195" />
<polyline stroke="black" fill="none" points="4.066064697537456,467.3190704024936 0.5511696701823325,468.075476670325" />
<polyline stroke="black" fill="none" points="100.84291464396233,489.1176866891682 29.356165531614465,511.91274693774864" />
<polyline stroke="black" fill="none" points="29.356165531614465,511.91274693774864 54.219505548282086,488.9859501148343" />
<polyline stroke="black" fill="none" points="29.356165531614465,511.91274693774864 0.4500745243786355,487.02303077105034" />
<polyline stroke="black" fill="none" points="96.61185626005448,476.85718491615404 54.219505548282086,488.9859501148343" />
<polyline stroke="black" fill="none" points="147.31319651282297,441.0101288124591 144.9834135462632,438.6887033506351" />
<polyline stroke="black" fill="none" points="54.219505548282086,488.9859501148343 16.600970259570374,455.3745137328034" />
<polyline stroke="black" fill="none" points="0.4621255733111411,471.11268911105043 16.600970259570374,455.3745137328034" />
<polyline stroke="black" fill="none" points="92.163656646795,440.52384663591 16.600970259570374,455.3745137328034" />
<polyline stroke="black" fill="none" points="166.87860306280163,433.37308221584107 100.47765005209777,447.8725502421852" />
<polyline stroke="black" fill="none" points="166.87860306280163,433.37308221584107 205.03806285577224,399.4671929735673" />
<polyline stroke="black" fill="none" points="100.47765005209777,447.8725502421852 144.09990934950753,407.69697394686284" />
<polyline stroke="black" fill="none" points="100.47765005209777,447.8725502421852 54.848425898555604,404.25599797971586" />
<polyline stroke="black" fill="none" points="205.03806285577224,399.4671929735673 144.09990934950753,407.69697394686284" />
<polyline stroke="black" fill="none" points="205.03806285577224,399.4671929735673 196.3787737134507,390.1338029772829" />
<polyline stroke="black" fill="none" points="144.09990934950753,407.69697394686284 133.1862493138359,396.5651999495234" />
<polyline stroke="black" fill="none" points="231.15380462155315,386.1875190461492 0.766630334547358,409.30116230583224" />
<polyline stroke="black" fill="none" points="254.88484349764155,365.25857651572744 1.364974327110133,372.40425320506205" />
<polyline stroke="black" fill="none" points="257.0320153347492,363.195833098301 243.33965056201288,347.352085791708" />
<polyline stroke="black" fill="none" points="195.23676848480392,332.1015290448945 0.4800567842228247,316.1711664990525" />
<polyline stroke="black" fill="none" points="262.67735919437376,348.00233543469795 207.89352383129312,345.8030008571493" />
<polyline stroke="black" fill="none" points="262.67735919437376,348.00233543469795 280.58278191320926,332.08987444319996" />
<polyline stroke="black" fill="none" points="207.89352383129312,345.8030008571493 250.06496818246876,306.87402085837084" />
<polyline stroke="black" fill="none" points="207.89352383129312,345.8030008571493 157.30091344060503,288.90642644952607" />
<polyline stroke="black" fill="none" points="272.56426216723065,311.0847359952486 128.67800647959444,282.88457853961825" />
<polyline stroke="black" fill="none" points="128.67800647959444,282.88457853961825 207.57308388011432,202.3850394069604" />
<polyline stroke="black" fill="none" points="128.67800647959444,282.88457853961825 24.274042011393647,167.5848476473463" />
<polyline stroke="black" fill="none" points="364.4502376731916,282.5824361175153 207.57308388011432,202.3850394069604" />
<polyline stroke="black" fill="none" points="364.4502376731916,282.5824361175153 322.40052186943973,225.77429561366796" />
<polyline stroke="black" fill="none" points="207.57308388011432,202.3850394069604 103.53941800145492,73.12833520685012" />
<polyline stroke="black" fill="none" points="24.274042011393647,167.5848476473463 103.53941800145492,73.12833520685012" />
<polyline stroke="black" fill="none" points="322.40052186943973,225.77429561366796 103.53941800145492,73.12833520685012" />
<polyline stroke="black" fill="none" points="363.53496669952415,200.49953601459515 247.46969048760388,77.36160531423604" />
<polyline stroke="black" fill="none" points="247.46969048760388,77.36160531423604 319.2541120432711,0.13031681293620068" />
<polyline stroke="black" fill="none" points="247.46969048760388,77.36160531423604 191.9541397787296,0.13031681293614383" />
<polyline stroke="black" fill="none" points="366.8636565526608,49.69412361539361 343.6413705978364,0.36233266052875024" />
<polyline stroke="black" fill="none" points="404.86360496042175,162.5977686629102 390.49571279032733,136.3911342846189" />
<polyline stroke="black" fill="none" points="464.9611176839229,211.99357822471302 479.0965625604754,199.78788538413232" />
<polyline stroke="black" fill="none" points="390.49571279032733,136.3911342846189 477.02705979248884,54.38500117076228" />
<polyline stroke="black" fill="none" points="390.49571279032733,136.3911342846189 347.54179817974864,70.80473236296916" />
<polyline stroke="black" fill="none" points="486.45830218191924,136.26475416342157 477.02705979248884,54.38500117076228" />
<polyline stroke="black" fill="none" points="477.02705979248884,54.38500117076228 446.4949081820414,0.8430585733152043" />
<polyline stroke="black" fill="none" points="491.13243309026575,131.98719422238827 480.6356614339837,18.292760952131744" />
<polyline stroke="black" fill="none" points="480.6356614339837,18.292760952131744 498.528624358109,1.001696710744966" />
<polyline stroke="black" fill="none" points="480.6356614339837,18.292760952131744 470.7635998869416,0.5357635344802816" />
<polyline stroke="black" fill="none" points="566.9132738396229,40.655960573345624 573.9025800924373,0.2632586796032115" />
<polyline stroke="black" fill="none" points="598.4780806002893,31.805729440399716 606.8906020071037,0.0726758922511408" />
<polyline stroke="black" fill="none" points="612.5613533995156,60.590668893572854 654.6302990673281,23.72982190523436" />
<polyline stroke="black" fill="none" points="654.6302990673281,23.72982190523436 664.4537417116682,0.7066806966806212" />
<polyline stroke="black" fill="none" points="670.8420473720159,12.203942888406402 676.3450252574162,0.22366612568271194" />
<polyline stroke="black" fill="none" points="670.8420473720159,12.203942888406402 684.4804396824379,0.27279040600501503" />
<polyline stroke="black" fill="none" points="670.8420473720159,12.203942888406402 665.7679263358341,0.723233030759161" />
<polyline stroke="black" fill="none" points="0.05627053596231235,463.2411001519133 1.491162227593918,461.83249565346284" />
<polyline stroke="black" fill="none" points="1.491162227593918,461.83249565346284 0.7044116822445403,461.9924951851295" />
<polyline stroke="black" fill="none" points="1.491162227593918,461.83249565346284 0.21543234851463922,460.710586214814" />
<polyline stroke="black" fill="none" points="2.2518618470181195,455.0483579789317 0.6697051473339002,455.349540863064" />
<polyline stroke="black" fill="none" points="2.2518618470181195,455.0483579789317 5.954886173031639,451.39560877619795" />
<polyline stroke="black" fill="none" points="57.23639498089693,441.9104266456518 0.45869797661907796,452.3852847380215" />
<polyline stroke="black" fill="none" points="57.23639498089693,441.9104266456518 75.65135862161122,424.31547393863275" />
<polyline stroke="black" fill="none" points="59.659583581368224,409.6045964250608 0.7576712904353258,416.3228293912924" />
<polyline stroke="black" fill="none" points="102.44687822269015,324.07491061162466 88.49787222051793,309.41210364950416" />
<polyline stroke="black" fill="none" points="151.42871974697238,316.299738686173 0.18333267486275417,298.80327836968866" />
<polyline stroke="black" fill="none" points="151.42871974697238,316.299738686173 167.38427527164407,300.65509139321466" />
<polyline stroke="black" fill="none" points="159.13256092998188,291.4667311989796 0.8504990276218223,261.61741072785344" />
<polyline stroke="black" fill="none" points="98.43266275690905,249.83611928737633 0.5304106851545498,224.22815014200626" />
<polyline stroke="black" fill="none" points="309.2866343236904,215.76716948861366 331.00991539713925,195.21311190971056" />
<polyline stroke="black" fill="none" points="226.01828641986612,157.33759503942088 255.21447752410887,127.03600732522062" />
<polyline stroke="black" fill="none" points="331.00991539713925,195.21311190971056 255.21447752410887,127.03600732522062" />
<polyline stroke="black" fill="none" points="331.00991539713925,195.21311190971056 284.99320310007636,131.26519654678947" />
<polyline stroke="black" fill="none" points="255.21447752410887,127.03600732522062 184.1326868613013,30.52039091545157" />
<polyline stroke="black" fill="none" points="131.31096409351386,91.52524804891306 184.1326868613013,30.52039091545157" />
<polyline stroke="black" fill="none" points="284.99320310007636,131.26519654678947 184.1326868613013,30.52039091545157" />
<polyline stroke="black" fill="none" points="352.28279397404367,191.35332351567376 297.0497637142284,133.71996112718762" />
<polyline stroke="black" fill="none" points="352.28279397404367,191.35332351567376 353.5496405357692,190.1673622765597" />
<polyline stroke="black" fill="none" points="297.0497637142284,133.71996112718762 298.6971267583937,132.06287836346849" />
<polyline stroke="black" fill="none" points="297.0497637142284,133.71996112718762 286.20472819490294,118.51105109080453" />
<polyline stroke="black" fill="none" points="83.49251526722946,233.15194723885463 0.059810878905466325,208.8411106060214" />
<polyline stroke="black" fill="none" points="43.860821644374084,189.3892167701951 0.9865775268888797,173.94604090812032" />
<polyline stroke="black" fill="none" points="32.3701624497736,157.67669158123783 5.560267361032118,146.4785623585239" />
<polyline stroke="black" fill="none" points="5.560267361032118,146.4785623585239 39.25590163918088,105.17908223332944" />
<polyline stroke="black" fill="none" points="5.560267361032118,146.4785623585239 0.5360184917210518,140.92841520622727" />
<polyline stroke="black" fill="none" points="64.90695444526204,118.89775022241213 39.25590163918088,105.17908223332944" />
<polyline stroke="black" fill="none" points="39.25590163918088,105.17908223332944 0.04998444694859927,59.6421828773145" />
<polyline stroke="black" fill="none" points="80.02683046692749,99.66883691146302 0.8023269686322578,52.28840753887778" />
<polyline stroke="black" fill="none" points="83.87400794591571,95.47190340881343 0.9539169169778461,44.62282411623107" />
<polyline stroke="black" fill="none" points="173.17897142814172,42.47718664079673 127.57366197087674,0.006260430100724079" />
<polyline stroke="black" fill="none" points="189.7003573359491,35.952642579436485 179.55691373640087,22.162246091548752" />
<polyline stroke="black" fill="none" points="179.55691373640087,22.162246091548752 158.21126693281155,0.5978905498094491" />
<polyline stroke="black" fill="none" points="245.24691913207312,74.38957608805538 175.45621922808084,0.18545837606353643" />
<polyline stroke="black" fill="none" points="193.13242759464868,21.81989794025145 172.6540252628647,0.22890285440314528" />
<polyline stroke="black" fill="none" points="193.13242759464868,21.81989794025145 194.40265256567255,20.354359494833773" />
</g></svg>
